<svg width="40" height="41" viewBox="0 0 40 41" fill="none" xmlns="http://www.w3.org/2000/svg">
<circle opacity="0.1" cx="19" cy="19" r="19" fill="white"/>
<path d="M8.88321 19.3553L13.2514 20.9841L14.9542 26.4628C15.0283 26.833 15.4725 26.907 15.7687 26.6849L18.2119 24.6859C18.434 24.4638 18.8042 24.4638 19.1003 24.6859L23.4685 27.8695C23.7646 28.0916 24.2089 27.9436 24.2829 27.5734L27.5405 12.0256C27.6146 11.6554 27.2444 11.2853 26.8742 11.4333L8.88321 18.3928C8.43899 18.5409 8.43899 19.2072 8.88321 19.3553ZM14.7321 20.1697L23.3204 14.9131C23.4685 14.839 23.6166 15.0611 23.4685 15.1352L16.435 21.7245C16.2129 21.9466 15.9908 22.2427 15.9908 22.6129L15.7687 24.3898C15.7687 24.6119 15.3985 24.6859 15.3244 24.3898L14.436 21.1322C14.2139 20.762 14.362 20.3178 14.7321 20.1697Z" fill="white"/>
<circle cx="33" cy="33.5" r="6" fill="#06CF6D" stroke="#397EDB" stroke-width="2"/>
</svg>
