<svg width="44" height="44" viewBox="0 0 44 44" fill="none" xmlns="http://www.w3.org/2000/svg">
<circle cx="22" cy="22" r="22" fill="white"/>
<g clip-path="url(#clip0_815_2600)">
<path d="M14.2503 10.2397H29.7498C30.308 10.2393 30.8608 10.3488 31.3767 10.5622C31.8925 10.7756 32.3612 11.0886 32.756 11.4833C33.1507 11.8779 33.4638 12.3466 33.6773 12.8624C33.8907 13.3782 34.0004 13.931 34 14.4892V29.3895C34.0005 29.9478 33.8909 30.5007 33.6775 31.0166C33.4641 31.5325 33.151 32.0012 32.7562 32.396C32.3615 32.7907 31.8927 33.1038 31.3768 33.3172C30.8609 33.5306 30.308 33.6402 29.7498 33.6397H14.2503C13.692 33.6402 13.1391 33.5306 12.6232 33.3172C12.1073 33.1038 11.6385 32.7907 11.2438 32.396C10.849 32.0012 10.5359 31.5325 10.3225 31.0166C10.1091 30.5007 9.99951 29.9478 10 29.3895V14.4892C9.99961 13.931 10.1093 13.3782 10.3227 12.8624C10.5362 12.3466 10.8493 11.8779 11.244 11.4833C11.6388 11.0886 12.1075 10.7756 12.6233 10.5622C13.1392 10.3488 13.692 10.2393 14.2503 10.2397Z" fill="#300000"/>
<path d="M21.6007 24.2404H17.8807L17.1202 26.5902C17.1118 26.633 17.0876 26.6712 17.0525 26.6972C17.0174 26.7231 16.9738 26.735 16.9304 26.7304H15.0501C14.9406 26.7304 14.9107 26.6704 14.9407 26.5504L18.1604 17.2804C18.1904 17.1807 18.2204 17.0704 18.2601 16.9504C18.3006 16.7404 18.3202 16.5207 18.3202 16.3002C18.3104 16.2507 18.3501 16.2004 18.4004 16.1907H20.9902C21.0704 16.1907 21.1101 16.2207 21.1207 16.2702L24.7702 26.5707C24.8002 26.6802 24.7702 26.7304 24.6704 26.7304H22.5802C22.5104 26.7402 22.4406 26.6907 22.4204 26.6202L21.6007 24.2404ZM18.4604 22.2102H21.0007C20.9303 21.9682 20.8535 21.7281 20.7704 21.4902C20.6804 21.2202 20.5904 20.9307 20.5004 20.6307C20.4007 20.3202 20.3106 20.0202 20.2101 19.7104C20.1138 19.4156 20.0238 19.1188 19.9402 18.8202C19.8607 18.5404 19.7902 18.2802 19.7204 18.0402H19.7001C19.6103 18.476 19.4969 18.9066 19.3604 19.3302C19.2104 19.8102 19.0604 20.3104 18.9006 20.8107C18.7604 21.3207 18.6104 21.7902 18.4604 22.2102ZM27.0006 17.9404C26.8364 17.944 26.6732 17.9149 26.5203 17.8548C26.3675 17.7947 26.2281 17.7047 26.1104 17.5902C25.8814 17.3398 25.7595 17.0098 25.7707 16.6707C25.7602 16.3302 25.8907 16.0107 26.1307 15.7804C26.3707 15.5502 26.6902 15.4302 27.0202 15.4302C27.4102 15.4302 27.7101 15.5502 27.9306 15.7804C28.1504 16.0204 28.2704 16.3407 28.2606 16.6707C28.2704 17.0104 28.1504 17.3404 27.9104 17.5902C27.6801 17.8302 27.3404 17.9607 27.0006 17.9404ZM25.8802 26.6202V18.9207C25.8802 18.8202 25.9207 18.7804 26.0107 18.7804H27.9906C28.0806 18.7804 28.1204 18.8307 28.1204 18.9207V26.6202C28.1204 26.7304 28.0806 26.7807 27.9906 26.7807H26.0301C25.9304 26.7807 25.8802 26.7207 25.8802 26.6202Z" fill="#FF9B00"/>
</g>
<defs>
<clipPath id="clip0_815_2600">
<rect width="24" height="24" fill="white" transform="translate(10 10)"/>
</clipPath>
</defs>
</svg>
