<svg width="44" height="44" viewBox="0 0 44 44" fill="none" xmlns="http://www.w3.org/2000/svg">
<circle cx="22" cy="22" r="22" fill="white"/>
<g clip-path="url(#clip0_815_2177)">
<path d="M18.1713 30.0284C16.9938 28.9664 16.6495 26.7352 17.14 25.1182C17.9905 26.1374 19.1695 26.4607 20.3905 26.6422C22.2745 26.9234 24.1255 26.8184 25.8768 25.9687C26.077 25.8712 26.2615 25.7422 26.4805 25.6109C26.6401 26.069 26.6914 26.5577 26.6305 27.0389C26.491 28.2164 25.897 29.1254 24.9535 29.8139C24.5755 30.0899 24.1765 30.3367 23.7865 30.5962C22.5888 31.3949 22.2648 32.3317 22.7148 33.6944L22.7598 33.8422C22.1866 33.5964 21.6996 33.1854 21.361 32.6617C21.001 32.1157 20.83 31.5119 20.821 30.8587C20.8165 30.5414 20.8165 30.2212 20.7738 29.9069C20.668 29.1434 20.3043 28.8014 19.6195 28.7819C18.9168 28.7609 18.361 29.1899 18.214 29.8649C18.2028 29.9174 18.1863 29.9677 18.1698 30.0284H18.1713Z" fill="#222222"/>
<path d="M12.25 25.6127C12.25 25.6127 15.4697 24.049 18.6985 24.049L21.1322 16.534C21.2238 16.1702 21.49 15.9235 21.79 15.9235C22.09 15.9235 22.3562 16.171 22.4478 16.534L24.8822 24.049C28.7057 24.049 31.33 25.6127 31.33 25.6127L25.8505 10.7222C25.6938 10.2827 25.429 10 25.072 10H18.5095C18.1517 10 17.8975 10.2827 17.7295 10.7222L12.25 25.6127Z" fill="#222222"/>
</g>
<defs>
<clipPath id="clip0_815_2177">
<rect width="24" height="24" fill="white" transform="translate(10 10)"/>
</clipPath>
</defs>
</svg>
