<svg width="44" height="44" viewBox="0 0 44 44" fill="none" xmlns="http://www.w3.org/2000/svg">
<circle cx="22" cy="22" r="22" fill="white"/>
<path d="M30.0705 16.3505H25.0005V17.7605H30.0907L30.0705 16.3505ZM29.0002 26.0503C28.6157 26.3049 28.1616 26.4341 27.7005 26.42C27.3952 26.4519 27.0866 26.4204 26.794 26.3275C26.5014 26.2345 26.2312 26.0822 26.0002 25.88C25.5736 25.3959 25.3515 24.7651 25.3807 24.1205H32.0002C32.0481 23.449 31.991 22.7741 31.8307 22.1203C31.6756 21.4982 31.4041 20.9111 31.0305 20.39C30.6547 19.8847 30.1693 19.4711 29.6107 19.1803C28.9891 18.8738 28.3035 18.7196 27.6105 18.7303C26.9587 18.7254 26.3124 18.8511 25.71 19.1C25.1585 19.3327 24.6588 19.6728 24.24 20.1005C23.8226 20.5365 23.4994 21.0538 23.2905 21.62C23.0662 22.2317 22.9544 22.8788 22.9605 23.5303C22.95 24.1909 23.0582 24.8481 23.28 25.4705C23.469 26.0338 23.7675 26.5543 24.1605 27.0005C24.5665 27.4386 25.0655 27.7802 25.6207 28.0003C26.2397 28.236 26.898 28.3513 27.5602 28.34C28.4896 28.3691 29.4073 28.1258 30.2002 27.6403C31.0013 27.0713 31.5781 26.24 31.8307 25.2905H29.6205C29.5021 25.6046 29.2843 25.8714 29.0002 26.0503ZM25.5705 21.9305C25.6484 21.6813 25.7776 21.451 25.9497 21.2547C26.1219 21.0584 26.3333 20.9003 26.5702 20.7905C26.8843 20.649 27.2264 20.5806 27.5707 20.5903C27.8193 20.569 28.0695 20.6018 28.3042 20.6864C28.5389 20.7709 28.7526 20.9052 28.9305 21.08C29.2702 21.4963 29.4885 21.998 29.5605 22.5305H25.4107C25.4265 22.3273 25.4632 22.1255 25.5202 21.9305H25.5705ZM20.28 21.4505C20.7891 21.2385 21.2315 20.8928 21.5602 20.45C21.8622 19.9801 22.0123 19.4286 21.99 18.8705C22.0098 18.3612 21.9107 17.8543 21.7005 17.39C21.5238 16.9881 21.2403 16.6423 20.8807 16.3903C20.4992 16.1283 20.066 15.951 19.6102 15.8705C19.071 15.7572 18.521 15.7034 17.97 15.71H12V28.2905H18.1005C18.657 28.2905 19.2112 28.22 19.7505 28.0805C20.2611 27.9483 20.7448 27.7282 21.18 27.4303C21.6019 27.138 21.9455 26.7465 22.1805 26.2903C22.44 25.7803 22.5675 25.2125 22.5502 24.6403C22.5692 23.9309 22.3703 23.2328 21.9802 22.64C21.5608 22.0442 20.9389 21.6214 20.2305 21.4505H20.28ZM14.7705 17.8603H17.3602C17.598 17.8603 17.8357 17.8798 18.0705 17.9203C18.2865 17.9525 18.4935 18.0268 18.6802 18.14C18.8602 18.242 19.0065 18.395 19.1003 18.5803C19.2165 18.8023 19.2712 19.0505 19.2607 19.3003C19.2793 19.5155 19.2464 19.732 19.1646 19.932C19.0828 20.1319 18.9546 20.3095 18.7905 20.45C18.4326 20.6962 18.0042 20.8192 17.5703 20.8003H14.7705V17.8603ZM19.6102 25.3003C19.5075 25.5042 19.3522 25.6769 19.1603 25.8005C18.9608 25.9243 18.7402 26.0128 18.5107 26.06C18.2548 26.1174 17.993 26.1443 17.7307 26.1403H14.7308V22.6903H17.7307C18.2455 22.6678 18.7538 22.8117 19.1805 23.1005C19.3733 23.2735 19.5226 23.4895 19.6164 23.7309C19.7102 23.9724 19.7459 24.2325 19.7205 24.4903C19.7475 24.7652 19.7097 25.0426 19.6102 25.3003Z" fill="#222222"/>
</svg>
