<svg width="44" height="44" viewBox="0 0 44 44" fill="none" xmlns="http://www.w3.org/2000/svg">
<circle cx="22" cy="22" r="22" fill="white"/>
<g clip-path="url(#clip0_167_12520)">
<mask id="mask0_167_12520" style="mask-type:luminance" maskUnits="userSpaceOnUse" x="10" y="10" width="24" height="24">
<path d="M10 10H34V34H10V10Z" fill="white"/>
</mask>
<g mask="url(#mask0_167_12520)">
<path d="M19.6375 33.785C17.5488 33.3522 15.5995 32.387 14.0688 31.028C10.1395 27.5382 8.92525 22.0565 11.0013 17.1785C11.5113 15.9807 12.3393 14.765 13.366 13.709L14.2713 12.7782L14.335 18.2277C14.3965 23.444 14.41 23.7065 14.6575 24.3642C15.1502 25.679 15.6797 26.5167 16.591 27.4242C18.9438 29.7672 22.396 30.3522 25.3307 28.9047C28.0885 27.5435 29.8277 24.5847 29.6252 21.596C29.4902 19.589 28.8153 18.1167 27.3573 16.6497C26.2547 15.5412 24.958 14.8167 23.5465 14.5212C22.1103 14.2212 22.1785 14.1762 22.1785 15.3927V16.4427L22.966 16.5875C26.0163 17.1492 28.033 20.144 27.397 23.1657C27.1945 24.131 26.7415 24.9837 26.0148 25.7682C24.91 26.9622 23.3553 27.5322 21.9985 27.53C19.7545 27.5255 17.881 26.2505 16.9727 24.365C16.9727 24.365 16.7343 23.825 16.6578 23.4927C16.2085 21.5337 16.4958 17.4102 16.4958 17.4102L16.4612 11.3817L16.8167 11.1972C17.0125 11.096 17.2007 11.0135 17.2345 11.0135C17.2675 11.0135 17.3103 13.7825 17.329 17.1672C17.329 17.1672 16.897 21.6035 17.431 23.3037C17.5082 23.549 17.6545 23.9682 17.6545 23.9682C18.1225 24.9222 18.8733 25.7615 19.8482 26.2235C20.5885 26.5737 20.9605 26.7327 22.0555 26.7327C22.771 26.7327 23.4055 26.507 24.1345 26.1717C24.994 25.7757 25.9795 24.728 26.3447 23.7702C27.3482 21.1332 25.9503 18.2967 23.257 17.5055C22.1568 17.1822 22.1785 17.1642 22.1785 18.3605V19.4067L22.7073 19.5477C24.6123 20.0577 25.1927 22.61 23.6973 23.9217C23.1693 24.3852 22.6938 24.59 21.8605 24.59C20.971 24.59 20.1167 24.0515 19.678 23.2257C19.4877 22.8609 19.3896 22.4551 19.3923 22.0437C19.3923 20.0525 19.3488 16.4712 19.3488 16.4712L19.3135 10.3287L19.5865 10.2612C19.7365 10.2237 20.3448 10.1307 20.9373 10.0557C22.9473 9.79921 25.9202 10.457 27.9175 11.5992C30.64 13.1577 32.701 15.8337 33.5583 18.9267C33.8538 19.9917 33.8868 20.3007 33.8868 22.0122C33.8868 23.717 33.853 24.0365 33.5643 25.0767C32.3973 29.2812 29.4295 32.2872 25.1852 33.5615C24.2927 33.83 23.8735 33.881 22.2977 33.9147C21.0257 33.9417 20.2008 33.902 19.6375 33.785Z" fill="#20B3E6"/>
</g>
</g>
<defs>
<clipPath id="clip0_167_12520">
<rect width="24" height="24" fill="white" transform="translate(10 10)"/>
</clipPath>
</defs>
</svg>
