<svg width="44" height="44" viewBox="0 0 44 44" fill="none" xmlns="http://www.w3.org/2000/svg">
<circle cx="22" cy="22" r="22" fill="white"/>
<path d="M18.6722 21.6992C19.4438 23.2928 20.7323 24.578 22.3278 25.3457C22.4455 25.4015 22.5758 25.4257 22.7057 25.4158C22.8356 25.406 22.9608 25.3624 23.0687 25.2895L25.4125 23.7242C25.516 23.654 25.6357 23.6111 25.7603 23.5995C25.8848 23.588 26.0103 23.6082 26.125 23.6582L30.5125 25.543C30.6623 25.6054 30.7875 25.7153 30.8688 25.8559C30.9501 25.9964 30.983 26.1597 30.9625 26.3207C30.8235 27.4062 30.2938 28.4038 29.4724 29.1269C28.651 29.85 27.5943 30.249 26.5 30.2492C23.1185 30.2492 19.8755 28.9059 17.4844 26.5148C15.0933 24.1237 13.75 20.8807 13.75 17.4992C13.7503 16.4049 14.1493 15.3482 14.8724 14.5268C15.5954 13.7054 16.5931 13.1757 17.6785 13.0367C17.8395 13.0162 18.0029 13.0491 18.1434 13.1304C18.2839 13.2117 18.3938 13.3369 18.4562 13.4867L20.3403 17.8832C20.3893 17.9961 20.4099 18.1193 20.4 18.242C20.3902 18.3647 20.3504 18.4831 20.284 18.5867L18.7188 20.968C18.649 21.0756 18.608 21.1994 18.5997 21.3274C18.5915 21.4555 18.6169 21.5835 18.6722 21.6992Z" fill="#25D155"/>
</svg>
