<svg width="40" height="40" viewBox="0 0 40 40" fill="none" xmlns="http://www.w3.org/2000/svg">
<path d="M36.4871 16.5466L34.6671 14.73C34.4452 14.5088 34.2693 14.2459 34.1494 13.9564C34.0296 13.6669 33.9682 13.3566 33.9688 13.0433V10.915C33.9675 9.62006 33.4526 8.37856 32.5371 7.46278C31.6217 6.547 30.3803 6.03172 29.0854 6.02995H26.9571C26.3257 6.02825 25.7204 5.77798 25.2721 5.33328L23.4538 3.51328C22.5371 2.59893 21.2952 2.08545 20.0004 2.08545C18.7057 2.08545 17.4638 2.59893 16.5471 3.51328L14.7304 5.33328C14.2816 5.77838 13.6759 6.0292 13.0438 6.03162H10.9138C9.61888 6.03338 8.37756 6.54867 7.46209 7.46445C6.54663 8.38023 6.03176 9.62173 6.03044 10.9166V13.0433C6.03126 13.3565 5.97013 13.6667 5.85057 13.9562C5.731 14.2457 5.55537 14.5086 5.33377 14.73L3.51377 16.5466C2.59942 17.4633 2.08594 18.7052 2.08594 20C2.08594 21.2947 2.59942 22.5366 3.51377 23.4533L5.33377 25.27C5.55567 25.4911 5.73161 25.754 5.85146 26.0435C5.97132 26.333 6.03271 26.6433 6.03211 26.9566V29.085C6.03343 30.3798 6.54829 31.6213 7.46376 32.5371C8.37923 33.4529 9.62055 33.9682 10.9154 33.97H13.0438C13.6754 33.9721 14.2808 34.223 14.7288 34.6683L16.5471 36.4866C17.4636 37.4014 18.7056 37.9151 20.0004 37.9151C21.2953 37.9151 22.5373 37.4014 23.4538 36.4866L25.2704 34.6683C25.7192 34.2232 26.325 33.9724 26.9571 33.97H29.0871C30.382 33.9682 31.6233 33.4529 32.5388 32.5371C33.4543 31.6213 33.9691 30.3798 33.9704 29.085V26.9566C33.9698 26.6433 34.0312 26.333 34.1511 26.0435C34.2709 25.754 34.4469 25.4911 34.6688 25.27L36.4871 23.4533C37.4015 22.5366 37.9149 21.2947 37.9149 20C37.9149 18.7052 37.4015 17.4633 36.4871 16.5466ZM25.8838 17.5466L19.2171 24.2133C19.1013 24.3296 18.9636 24.4219 18.812 24.4848C18.6604 24.5478 18.4979 24.5802 18.3338 24.5802C18.1696 24.5802 18.0071 24.5478 17.8555 24.4848C17.7039 24.4219 17.5663 24.3296 17.4504 24.2133L14.1171 20.88C13.8963 20.643 13.7761 20.3296 13.7818 20.0057C13.7875 19.6819 13.9187 19.3729 14.1477 19.1439C14.3768 18.9149 14.6857 18.7837 15.0096 18.778C15.3334 18.7723 15.6468 18.8925 15.8838 19.1133L18.3338 21.565L24.1171 15.7833C24.3541 15.5625 24.6675 15.4423 24.9913 15.448C25.3151 15.4537 25.6241 15.5849 25.8531 15.8139C26.0822 16.0429 26.2134 16.3519 26.2191 16.6757C26.2248 16.9996 26.1046 17.313 25.8838 17.55V17.5466Z" fill="#ED1B24"/>
</svg>
