<svg width="44" height="44" viewBox="0 0 44 44" fill="none" xmlns="http://www.w3.org/2000/svg">
<circle cx="22" cy="22" r="22" fill="white"/>
<path d="M32.5145 10L30.5945 31.5978L21.9642 34L13.3572 31.6007L11.4395 10H32.5145Z" fill="#235EA8"/>
<path d="M28.9528 30.2226L30.593 11.7666H21.9785V32.1644L28.9528 30.2226Z" fill="#3AA4D1"/>
<path d="M15.8388 19.7778L16.0758 22.4268H21.9798V19.7778H15.8388ZM21.9798 14.416H15.3633L15.6033 17.065H21.9798V14.416ZM21.9798 29.4145V26.6583L21.9678 26.6613L19.03 25.8648L18.8425 23.752H16.1928L16.5625 27.9115L21.967 29.4175L21.979 29.4145H21.9798Z" fill="#F5F5F7"/>
<path d="M25.2178 22.4278L24.911 25.8628L21.9688 26.6608V29.417L27.3777 27.9118L27.4175 27.464L28.037 20.489L28.1015 19.778L28.5778 14.4155H21.9688V17.0653H25.6865L25.4465 19.778H21.9688V22.427L25.2178 22.4278Z" fill="white"/>
</svg>
