<svg width="44" height="44" viewBox="0 0 44 44" fill="none" xmlns="http://www.w3.org/2000/svg">
<circle cx="22" cy="22" r="22" fill="white"/>
<g clip-path="url(#clip0_815_494)">
<mask id="mask0_815_494" style="mask-type:luminance" maskUnits="userSpaceOnUse" x="10" y="10" width="24" height="24">
<path d="M10 10H34V34H10V10Z" fill="white"/>
</mask>
<g mask="url(#mask0_815_494)">
<path d="M24.5305 10H15.3663C14.9396 10.0111 14.5339 10.1872 14.2345 10.4912C13.9328 10.7978 13.7594 11.208 13.75 11.638V32.3642C13.7595 32.7946 13.9331 33.2051 14.2352 33.5117C14.5367 33.8162 14.9425 33.9917 15.3685 34.0022H29.3815C29.8086 33.9915 30.2149 33.8154 30.5148 33.511C30.8166 33.2048 30.9902 32.7949 31 32.365V16.5475L27.2275 13.8175L24.5297 10H24.5305Z" fill="#4285F4"/>
<path d="M18.0605 27.4543H26.6855V26.3638H18.0605V27.4543ZM18.0605 29.6368H24.5285V28.5463H18.0613V29.6368H18.0605ZM18.0605 22.0003V23.0908H26.6855V21.9995H18.0605V22.0003ZM18.0605 25.2725H26.6855V24.1828H18.0605V25.2725Z" fill="#F5F5F7"/>
<path d="M24.5312 10V14.9095C24.5413 15.3387 24.7145 15.748 25.0157 16.054C25.3165 16.3585 25.7223 16.534 26.1475 16.5452H30.9993L24.5312 10Z" fill="#A1C2FA"/>
</g>
</g>
<defs>
<clipPath id="clip0_815_494">
<rect width="24" height="24" fill="white" transform="translate(10 10)"/>
</clipPath>
</defs>
</svg>
