<svg width="44" height="44" viewBox="0 0 44 44" fill="none" xmlns="http://www.w3.org/2000/svg">
<circle cx="22" cy="22" r="22" fill="white"/>
<g clip-path="url(#clip0_815_1529)">
<path d="M33.762 19.8621C33.6975 19.8096 33.0893 19.3513 31.8083 19.3513C31.47 19.3529 31.1324 19.382 30.7988 19.4383C30.5505 17.7381 29.145 16.9093 29.0813 16.8718L28.7378 16.6738L28.5113 17.0001C28.228 17.4388 28.0213 17.9224 27.9 18.4303C27.6705 19.4008 27.81 20.3128 28.3028 21.0913C27.7073 21.4228 26.7525 21.5046 26.5598 21.5121H10.749C10.3365 21.5121 10.0013 21.8466 9.99904 22.2591C9.98075 23.6442 10.2156 25.0211 10.692 26.3218C11.2365 27.7498 12.0465 28.8021 13.1003 29.4456C14.2815 30.1693 16.2008 30.5826 18.3765 30.5826C19.359 30.5856 20.34 30.4963 21.306 30.3171C22.6491 30.0704 23.9414 29.601 25.1295 28.9281C26.1089 28.3612 26.9902 27.6399 27.7395 26.7921C28.992 25.3746 29.7375 23.7951 30.2925 22.3918H30.5138C31.8848 22.3918 32.7285 21.8428 33.1935 21.3831C33.5025 21.0898 33.7433 20.7321 33.9 20.3361L33.9983 20.0488L33.7613 19.8613L33.762 19.8621Z" fill="#2991E0"/>
<path d="M12.2165 21.0489H14.3345C14.4365 21.0489 14.5197 20.9664 14.5197 20.8636V18.9774C14.5199 18.9284 14.5007 18.8813 14.4663 18.8464C14.4318 18.8116 14.385 18.7918 14.336 18.7914H12.2165C12.1674 18.7914 12.1202 18.8109 12.0855 18.8456C12.0508 18.8804 12.0312 18.9275 12.0312 18.9766V20.8644C12.0312 20.9664 12.1137 21.0489 12.2165 21.0489ZM15.1355 21.0489H17.2543C17.3563 21.0489 17.4387 20.9664 17.4387 20.8636V18.9774C17.4389 18.9284 17.4197 18.8813 17.3853 18.8464C17.3508 18.8116 17.304 18.7918 17.255 18.7914H15.1355C15.1111 18.7914 15.0869 18.7962 15.0643 18.8055C15.0418 18.8149 15.0212 18.8286 15.004 18.8458C14.9867 18.8631 14.973 18.8836 14.9637 18.9062C14.9543 18.9288 14.9495 18.9529 14.9495 18.9774V20.8644C14.9495 20.9671 15.0335 21.0489 15.1355 21.0489ZM18.0995 21.0489H20.2183C20.3203 21.0489 20.4028 20.9664 20.4028 20.8636V18.9774C20.403 18.9284 20.3837 18.8813 20.3493 18.8464C20.3148 18.8116 20.268 18.7918 20.219 18.7914H18.0995C18.0504 18.7914 18.0032 18.8109 17.9685 18.8456C17.9338 18.8804 17.9143 18.9275 17.9143 18.9766V20.8644C17.9143 20.9664 17.9967 21.0489 18.0995 21.0489ZM21.0282 21.0489H23.147C23.249 21.0489 23.3323 20.9664 23.333 20.8636V18.9774C23.333 18.928 23.3134 18.8807 23.2785 18.8458C23.2436 18.811 23.1963 18.7914 23.147 18.7914H21.0282C20.9792 18.7916 20.9323 18.8112 20.8977 18.8459C20.8632 18.8806 20.8438 18.9276 20.8438 18.9766V20.8644C20.8438 20.9664 20.9263 21.0489 21.0282 21.0489ZM15.1355 18.3339H17.2543C17.3033 18.3335 17.3502 18.3137 17.3848 18.2789C17.4194 18.244 17.4388 18.1969 17.4387 18.1479V16.2609C17.4388 16.2119 17.4193 16.1649 17.3848 16.1301C17.3502 16.0954 17.3033 16.0758 17.2543 16.0756H15.1355C15.0863 16.0756 15.0391 16.0951 15.0042 16.1298C14.9694 16.1645 14.9497 16.2117 14.9495 16.2609V18.1479C14.9499 18.1971 14.9696 18.2442 15.0044 18.279C15.0392 18.3137 15.0863 18.3335 15.1355 18.3339ZM18.0995 18.3339H20.2175C20.2667 18.3337 20.3138 18.314 20.3485 18.2791C20.3833 18.2443 20.4028 18.1971 20.4028 18.1479V16.2609C20.4028 16.2117 20.3832 16.1646 20.3485 16.1299C20.3138 16.0951 20.2666 16.0756 20.2175 16.0756H18.0995C18.0504 16.0756 18.0032 16.0951 17.9685 16.1299C17.9338 16.1646 17.9143 16.2117 17.9143 16.2609V18.1479C17.9143 18.2499 17.9967 18.3331 18.0995 18.3339ZM21.0282 18.3339H23.147C23.1962 18.3335 23.2433 18.3137 23.2781 18.279C23.3129 18.2442 23.3326 18.1971 23.333 18.1479V16.2609C23.3328 16.2117 23.3131 16.1645 23.2783 16.1298C23.2434 16.0951 23.1962 16.0756 23.147 16.0756H21.0282C20.9792 16.0758 20.9323 16.0954 20.8977 16.1301C20.8632 16.1649 20.8438 16.2119 20.8438 16.2609V18.1479C20.8438 18.2499 20.9263 18.3331 21.0282 18.3339ZM21.0282 15.6174H23.147C23.249 15.6174 23.3323 15.5349 23.333 15.4329V13.5451C23.3328 13.4959 23.3131 13.4488 23.2783 13.4141C23.2434 13.3794 23.1962 13.3599 23.147 13.3599H21.0282C20.9792 13.3601 20.9323 13.3797 20.8977 13.4144C20.8632 13.4491 20.8438 13.4961 20.8438 13.5451V15.4329C20.8438 15.5349 20.9263 15.6181 21.0282 15.6181V15.6174ZM23.9825 21.0489H26.1012C26.2032 21.0489 26.2865 20.9664 26.2872 20.8636V18.9774C26.2872 18.928 26.2677 18.8807 26.2328 18.8458C26.1979 18.811 26.1506 18.7914 26.1012 18.7914H23.9825C23.9335 18.7916 23.8866 18.8112 23.852 18.8459C23.8174 18.8806 23.798 18.9276 23.798 18.9766V20.8644C23.798 20.9664 23.8805 21.0489 23.9825 21.0489Z" fill="#2991E0"/>
</g>
<defs>
<clipPath id="clip0_815_1529">
<rect width="24" height="24" fill="white" transform="translate(10 10)"/>
</clipPath>
</defs>
</svg>
