<svg width="44" height="44" viewBox="0 0 44 44" fill="none" xmlns="http://www.w3.org/2000/svg">
<circle cx="22" cy="22" r="22" fill="white"/>
<g clip-path="url(#clip0_167_12149)">
<g clip-path="url(#clip1_167_12149)">
<mask id="mask0_167_12149" style="mask-type:luminance" maskUnits="userSpaceOnUse" x="10" y="10" width="25" height="25">
<path d="M10.002 10.0005H34.002V34.0005H10.002V10.0005Z" fill="white"/>
</mask>
<g mask="url(#mask0_167_12149)">
<path d="M18.0037 34.0012C19.0643 34.0008 20.0815 33.5793 20.8315 32.8293C21.5815 32.0793 22.003 31.0622 22.0034 30.0015V26.001H18.0037C16.9428 26.0014 15.9256 26.423 15.1756 27.1732C14.4255 27.9234 14.0041 28.9407 14.0039 30.0015C14.0043 31.062 14.4257 32.079 15.1756 32.829C15.9254 33.579 16.9431 34.0006 18.0037 34.0012Z" fill="#0ACF83"/>
<path d="M14.002 22.0012C14.0024 20.9404 14.424 19.9232 15.1742 19.1731C15.9243 18.4231 16.9416 18.0017 18.0025 18.0015H22.0022V26.001H18.0025C16.9418 26.0006 15.9247 25.579 15.1746 24.829C14.4246 24.079 14.0024 23.0619 14.002 22.0012Z" fill="#A259FF"/>
<path d="M14.002 14.0007C14.0024 12.9398 14.4241 11.9224 15.1744 11.1724C15.9248 10.4223 16.9423 10.001 18.0032 10.001L22.0022 10.001V18.0012H18.0025C16.9416 18.0008 15.9244 17.5792 15.1744 16.829C14.4243 16.0788 14.0022 15.0615 14.002 14.0007Z" fill="#F24E1E"/>
<path d="M22.0039 10.001H26.0037C27.0645 10.0012 28.0818 10.4226 28.832 11.1727C29.5821 11.9227 30.0038 12.9399 30.0042 14.0007C30.004 15.0617 29.5824 16.0791 28.8322 16.8293C28.082 17.5795 27.0646 18.001 26.0037 18.0012H22.0039V10.001Z" fill="#FF7262"/>
<path d="M30.0042 22.0012C30.0038 23.062 29.5821 24.0793 28.832 24.8293C28.0818 25.5793 27.0645 26.0008 26.0037 26.001C24.943 26.0006 23.9259 25.579 23.1758 24.829C22.4258 24.079 22.0043 23.0619 22.0039 22.0012C22.0043 20.9405 22.4258 19.9234 23.1758 19.1734C23.9259 18.4234 24.943 18.0019 26.0037 18.0015C27.0645 18.0017 28.0818 18.4231 28.832 19.1731C29.5821 19.9232 30.0038 20.9404 30.0042 22.0012Z" fill="#1ABCFE"/>
</g>
</g>
</g>
<defs>
<clipPath id="clip0_167_12149">
<rect width="24" height="24" fill="white" transform="translate(10 10)"/>
</clipPath>
<clipPath id="clip1_167_12149">
<rect width="24" height="24" fill="white" transform="translate(10 10)"/>
</clipPath>
</defs>
</svg>
