<svg width="44" height="44" viewBox="0 0 44 44" fill="none" xmlns="http://www.w3.org/2000/svg">
<circle cx="22" cy="22" r="22" fill="white"/>
<g clip-path="url(#clip0_815_2572)">
<path d="M19.403 15.8056C20.4118 15.4694 21.2885 15.2648 22.0822 15.1809C22.86 15.0986 23.4449 15.0603 23.9228 15.0603C24.4341 15.0603 24.8121 15.1038 25.2454 15.1743L25.3681 14.396C25.3681 14.396 24.1715 14.0282 22.6001 14.1567L22.4768 13.7331C22.9646 13.6297 23.3308 13.1968 23.3308 12.6781C23.3308 12.0825 22.8479 11.5996 22.2523 11.5996C21.6566 11.5996 21.1737 12.0825 21.1737 12.6781C21.1737 13.1967 21.5397 13.6296 22.0274 13.733L22.1647 14.2044C20.4965 14.4348 19.168 15.0866 19.168 15.0866L19.403 15.8056Z" fill="#1878EE"/>
<path d="M14.6698 18.9915C14.7088 18.9418 14.7471 18.8944 14.7851 18.8482L14.467 18.6167L13.9682 18.252C13.9388 18.2921 13.156 19.012 12.5375 20.3444C12.5107 20.3023 12.4802 20.2615 12.4452 20.2229C12.2598 20.0184 12.0001 19.9168 11.6716 19.9224C11.6667 19.9224 11.6619 19.9225 11.6571 19.9225C11.4517 19.9225 11.3126 19.853 11.2201 19.7713C11.3113 19.6551 11.3662 19.509 11.3662 19.3498C11.3662 18.9727 11.0603 18.6667 10.6831 18.6667C10.3058 18.6667 10 18.9726 10 19.3498C10 19.7271 10.3058 20.0329 10.6831 20.0329C10.7416 20.0329 10.7981 20.0248 10.8523 20.011C11.0206 20.1979 11.2878 20.3608 11.6783 20.3537C11.8788 20.3505 12.0247 20.4021 12.1244 20.5114C12.2378 20.6355 12.2757 20.8136 12.2871 20.9479C12.2864 20.9496 12.2858 20.9512 12.2851 20.953C11.8391 22.1681 11.9675 23.6795 11.9675 23.6795L13.0462 23.7224C13.0681 23.1718 13.1473 22.2095 13.4257 21.444C13.9635 19.9656 14.6357 19.0379 14.664 18.9991L14.6698 18.9915Z" fill="#1878EE"/>
<path d="M33.3169 15.9629C32.9397 15.9629 32.6338 16.2687 32.6338 16.646C32.6338 16.7046 32.642 16.7612 32.6559 16.8155C32.4694 16.9839 32.3069 17.251 32.313 17.6411C32.3162 17.8415 32.2646 17.9875 32.1554 18.0872C32.0699 18.1653 31.9588 18.2076 31.8541 18.2301C31.0494 17.1066 30.0599 16.4181 30.0599 16.4181L29.2852 17.2491C29.8711 17.7829 30.4685 18.4494 31.0509 19.282C31.4524 19.856 31.8655 20.5991 32.2107 21.338L33.2567 20.8428C33.2567 20.8428 32.7792 19.6625 32.1063 18.6049C32.2236 18.5633 32.3414 18.501 32.4439 18.408C32.6484 18.2227 32.7496 17.9623 32.7444 17.6344C32.7411 17.421 32.812 17.2776 32.8956 17.1829C33.0117 17.2741 33.1578 17.3291 33.3169 17.3291C33.6942 17.3291 34 17.0232 34 16.646C33.9999 16.2687 33.6941 15.9629 33.3169 15.9629Z" fill="#1878EE"/>
<path d="M30.6017 25.3601C29.1629 26.0606 26.7937 26.9866 23.6775 27.4204C22.4541 27.5908 21.2672 27.6545 20.1769 27.6545C18.7575 27.6545 17.5079 27.5466 16.5452 27.4255C15.4466 27.2873 14.5581 27.1175 14.0679 26.9997V26.9996C14.0679 26.9994 14.0596 26.9992 14.0586 26.999C14.1868 27.4055 14.3387 27.7995 14.5181 28.1761C14.5192 28.1784 14.5186 28.1808 14.5198 28.1831C14.5242 28.1924 14.5279 28.2017 14.5325 28.2109C14.5545 28.2569 14.5765 28.3026 14.5994 28.3481C14.6211 28.3913 14.6431 28.4342 14.6655 28.477C14.6713 28.4881 14.6769 28.4993 14.6828 28.5105C14.9922 29.0936 15.3625 29.628 15.7862 30.0917C17.2555 31.7008 18.7534 31.9536 18.7684 31.956L18.7917 31.9596L18.814 31.9671C18.8269 31.9713 20.1552 32.4012 22.1754 32.4013C24.1618 32.4013 26.1107 32.0008 27.9682 31.2109C29.3437 30.5072 30.6466 29.4374 31.2894 28.4832C31.7888 27.7464 32.15 26.9585 32.3633 26.1407C32.4769 25.7052 32.5655 25.0115 32.5139 24.2783C32.1078 24.5483 31.4681 24.9382 30.6017 25.3601Z" fill="#1878EE"/>
<path d="M23.5592 26.5696C26.5476 26.1536 28.8173 25.2684 30.1951 24.6006C31.3403 24.0455 32.0757 23.5427 32.3607 23.3354C32.0777 22.2858 31.2963 20.6378 30.5789 19.6124C28.5326 16.6869 26.3253 15.9355 25.1918 15.7483C24.759 15.6767 24.4126 15.6353 23.9225 15.6353C23.4652 15.6353 22.8996 15.6725 22.1423 15.7526C21.3832 15.8329 20.5374 16.0316 19.5568 16.3601C18.18 16.8212 16.9346 17.5447 15.9552 18.4522L15.9225 18.4827C15.7767 18.6176 15.4737 18.8981 15.1255 19.342C15.0826 19.4018 14.4657 20.2861 13.9729 21.6406C13.6033 22.6569 13.6273 24.1384 13.6273 24.1532V24.1574C13.6273 24.503 13.6398 24.8483 13.678 25.1908C13.6786 25.1962 13.6696 25.2017 13.6703 25.2071C13.6751 25.2498 13.6763 25.2924 13.6763 25.3349V25.3351C13.7253 25.5764 13.7527 25.8199 13.8015 26.0571C13.802 26.0572 13.8058 26.0613 13.8064 26.0613H13.8079C14.5223 26.2574 18.7899 27.2335 23.5592 26.5696ZM27.6534 18.6616C28.6362 18.6616 29.433 19.4583 29.433 20.4412C29.433 21.4241 28.6362 22.2208 27.6534 22.2208C26.6705 22.2208 25.8737 21.4241 25.8737 20.4412C25.8737 19.4584 26.6705 18.6616 27.6534 18.6616ZM19.2387 18.5897C20.8272 18.5897 22.1149 19.8775 22.1149 21.4659C22.1149 23.0544 20.8272 24.3421 19.2387 24.3421C17.6503 24.3421 16.3625 23.0544 16.3625 21.4659C16.3625 19.8774 17.6503 18.5897 19.2387 18.5897ZM13.6903 25.3474C13.7209 25.5792 13.7599 25.8133 13.8085 26.0485C13.7598 25.8133 13.7208 25.5792 13.6903 25.3474Z" fill="#1878EE"/>
</g>
<defs>
<clipPath id="clip0_815_2572">
<rect width="24" height="24" fill="white" transform="translate(10 10)"/>
</clipPath>
</defs>
</svg>
