<svg width="44" height="44" viewBox="0 0 44 44" fill="none" xmlns="http://www.w3.org/2000/svg">
<circle cx="22" cy="22" r="22" fill="white"/>
<g clip-path="url(#clip0_815_1521)">
<mask id="mask0_815_1521" style="mask-type:luminance" maskUnits="userSpaceOnUse" x="10" y="9" width="24" height="25">
<path d="M10 9.99951H34V33.9995H10V9.99951Z" fill="white"/>
</mask>
<g mask="url(#mask0_815_1521)">
<path opacity="0.985" fill-rule="evenodd" clip-rule="evenodd" d="M33.9766 21.227V23.336C33.5176 27.269 31.6426 30.3237 28.3516 32.5002C27.5448 32.9662 26.6976 33.3586 25.8203 33.6725C25.3823 33.8007 25.0928 33.6522 24.9526 33.227C24.9504 31.8045 24.9191 30.3822 24.8588 28.961C24.7648 28.4365 24.5112 27.9538 24.1328 27.5787C25.5266 27.4713 26.8604 26.9669 27.9766 26.1252C28.8256 25.2792 29.3333 24.2555 29.4998 23.0547C29.7803 21.6875 29.5928 20.3907 28.9373 19.1645C28.7832 18.9322 28.6106 18.7128 28.4213 18.5082C28.5278 18.0402 28.5976 17.5632 28.6328 17.0787C28.6321 16.433 28.4911 15.8232 28.2106 15.2502C27.7952 15.2147 27.3773 15.279 26.9918 15.4377C26.2838 15.7527 25.5968 16.1045 24.9293 16.4922C22.9606 15.9297 20.9918 15.9297 19.0231 16.4922C18.4178 16.1349 17.7916 15.8141 17.1481 15.5315C16.7107 15.32 16.2268 15.2232 15.7418 15.2502C15.6363 15.3793 15.5639 15.5323 15.5311 15.6957C15.3464 16.2702 15.2825 16.8766 15.3436 17.477C15.4081 17.8242 15.4703 18.1677 15.5311 18.5082C14.6251 19.5545 14.2343 20.7732 14.3588 22.1645C14.3875 23.4057 14.7785 24.6115 15.4838 25.6332C16.1603 26.3763 17.0278 26.9193 17.9918 27.203C18.5971 27.359 19.2068 27.4835 19.8203 27.578C19.3861 28.0165 19.1063 28.5843 19.0231 29.1957C17.3956 29.9052 16.1686 29.4837 15.3436 27.9297C14.9195 27.4074 14.3195 27.0575 13.6561 26.9457C13.5436 26.9817 13.4258 27.0057 13.3043 27.0155C13.2733 27.0227 13.2445 27.0371 13.2201 27.0576C13.1957 27.078 13.1765 27.104 13.1641 27.1332L13.3516 27.4145C13.8598 27.712 14.2865 28.1307 14.5936 28.6332C14.8096 29.0495 15.0128 29.471 15.2033 29.8985C15.7073 30.5375 16.3718 30.8735 17.1953 30.9065C17.8073 30.947 18.4171 30.9237 19.0231 30.836C19.0306 31.649 19.0231 32.4612 18.9998 33.2735C18.8401 33.662 18.5506 33.7947 18.1328 33.6725C14.3123 32.2902 11.7578 29.6727 10.4686 25.82C10.2417 25.0057 10.0772 24.1753 9.97656 23.336V21.2277C10.5211 16.7525 12.7868 13.4795 16.7723 11.4065C19.8046 10.0527 22.8983 9.89673 26.0543 10.9377C29.8013 12.4032 32.2936 15.0515 33.5311 18.8832C33.7441 19.6587 33.8926 20.4402 33.9766 21.227Z" fill="#222222"/>
</g>
</g>
<defs>
<clipPath id="clip0_815_1521">
<rect width="24" height="24" fill="white" transform="translate(10 10)"/>
</clipPath>
</defs>
</svg>
