<svg width="44" height="44" viewBox="0 0 44 44" fill="none" xmlns="http://www.w3.org/2000/svg">
<circle cx="22" cy="22" r="22" fill="white"/>
<g clip-path="url(#clip0_815_1514)">
<path d="M33.5988 19.5964L33.5665 19.5109L30.3003 11.0194C30.2323 10.8531 30.1142 10.7122 29.9625 10.6161C29.8107 10.5201 29.6328 10.4736 29.4535 10.4833C29.2741 10.4929 29.1022 10.5582 28.9617 10.67C28.8211 10.7818 28.7188 10.9345 28.669 11.1071L26.464 17.8346H17.5353L15.3303 11.1071C15.2751 10.9116 15.1525 10.7419 14.9842 10.6281C14.8159 10.5143 14.6128 10.4637 14.4108 10.4854C14.2548 10.5015 14.1062 10.5598 13.9807 10.6538C13.8552 10.7479 13.7576 10.8742 13.6983 11.0194L10.4343 19.5124L10.4005 19.5964C9.9304 20.8204 9.87247 22.1644 10.2355 23.4244C10.5992 24.6854 11.3634 25.7937 12.4128 26.5819L12.4248 26.5909L12.4525 26.6119L17.422 30.3229L19.8865 32.1799L21.3843 33.3079C21.5602 33.4402 21.7743 33.5118 21.9944 33.5118C22.2145 33.5118 22.4287 33.4402 22.6045 33.3079L24.1023 32.1799L26.5675 30.3229L31.5723 26.5909L31.5858 26.5796C32.6351 25.7919 33.3996 24.6841 33.7638 23.4236C34.127 22.164 34.0685 20.8203 33.5988 19.5964Z" fill="#DA4027"/>
<path d="M33.5997 19.5962L33.5674 19.5107C31.9767 19.8357 30.4773 20.5077 29.1762 21.4787L22.0039 26.884L26.5714 30.3227L31.5754 26.59L31.5889 26.5795C32.6376 25.7913 33.4013 24.6833 33.7647 23.4227C34.1274 22.1633 34.0695 20.8198 33.5997 19.5962Z" fill="#F26923"/>
<path d="M17.4219 30.3238L19.8871 32.18L21.3849 33.308C21.5608 33.4404 21.7749 33.5119 21.995 33.5119C22.2151 33.5119 22.4292 33.4404 22.6051 33.308L24.1021 32.18L26.5674 30.3238L22.0006 26.8843L17.4219 30.3238Z" fill="#F19E28"/>
<path d="M14.8239 21.4787C13.5232 20.5081 12.0243 19.8366 10.4342 19.5122L10.4004 19.5962C9.93045 20.82 9.87251 22.1637 10.2354 23.4235C10.599 24.6845 11.3633 25.7928 12.4127 26.581L12.4247 26.59L12.4524 26.6125L17.4219 30.3227L21.9917 26.884L14.8239 21.4787Z" fill="#F26923"/>
</g>
<defs>
<clipPath id="clip0_815_1514">
<rect width="24" height="24" fill="white" transform="translate(10 10)"/>
</clipPath>
</defs>
</svg>
