<svg width="44" height="44" viewBox="0 0 44 44" fill="none" xmlns="http://www.w3.org/2000/svg">
<circle cx="22" cy="22" r="22" fill="white"/>
<g clip-path="url(#clip0_815_1589)">
<mask id="mask0_815_1589" style="mask-type:luminance" maskUnits="userSpaceOnUse" x="11" y="10" width="22" height="24">
<path d="M11.1992 10H32.7992V34H11.1992V10Z" fill="white"/>
</mask>
<g mask="url(#mask0_815_1589)">
<path d="M12.2637 27.783L13.1442 28.293L22.9594 11.292L22.0782 10.7827L12.2644 27.7837L12.2637 27.783Z" fill="#D7018F"/>
<path d="M31.6915 26.4253H12.0625V27.443H31.6922L31.6915 26.4253Z" fill="#D7018F"/>
<path d="M12.4492 26.9968L22.2682 32.6668L22.7767 31.7848L12.9577 26.1163L12.4492 26.9968ZM20.979 12.2218L30.7972 17.8903L31.3065 17.0098L21.4875 11.3398L20.979 12.2218Z" fill="#D7018F"/>
<path d="M12.4512 17.0054L12.9604 17.8874L22.7794 12.2174L22.2702 11.3369L12.4519 17.0062L12.4512 17.0054Z" fill="#D7018F"/>
<path d="M20.8018 11.2925L30.6171 28.292L31.4983 27.7835L21.6831 10.7832L20.8018 11.2925ZM13.8568 16.331H12.8398V27.6702H13.8568V16.3302V16.331Z" fill="#D7018F"/>
<path d="M30.9201 16.3308H29.9023V27.6701H30.9201V16.3301V16.3308Z" fill="#D7018F"/>
<path d="M21.6504 31.4652L22.0951 32.2347L30.6346 27.3042L30.1899 26.5347L21.6504 31.4652Z" fill="#D7018F"/>
<path d="M32.268 28C31.9841 28.4912 31.5169 28.8496 30.9689 28.9967C30.421 29.1438 29.837 29.0675 29.3453 28.7845C28.8538 28.5007 28.495 28.0334 28.3478 27.4852C28.2006 26.9371 28.2769 26.3529 28.56 25.861C28.844 25.3696 29.3114 25.011 29.8595 24.8639C30.4076 24.7168 30.9917 24.7933 31.4835 25.0765C31.7277 25.2162 31.9419 25.4029 32.1136 25.6258C32.2854 25.8486 32.4113 26.1032 32.4842 26.375C32.5572 26.6467 32.5756 26.9302 32.5385 27.2091C32.5014 27.488 32.4095 27.7568 32.268 28ZM15.1935 18.139C14.9096 18.6304 14.4422 18.989 13.8941 19.1361C13.346 19.2832 12.7619 19.2067 12.27 18.9235C11.7785 18.6397 11.4198 18.1724 11.2725 17.6242C11.1253 17.0761 11.2017 16.4919 11.4848 16C11.7688 15.5086 12.2361 15.15 12.7842 15.0029C13.3324 14.8558 13.9165 14.9323 14.4083 15.2155C14.8994 15.4997 15.2577 15.9671 15.4048 16.5151C15.5518 17.0631 15.4756 17.6471 15.1928 18.139H15.1935ZM11.4915 28C11.2087 27.5081 11.1325 26.9241 11.2796 26.3761C11.4266 25.8281 11.785 25.3607 12.276 25.0765C12.768 24.7937 13.3519 24.7175 13.8999 24.8645C14.448 25.0116 14.9153 25.3699 15.1995 25.861C15.4755 26.3523 15.5467 26.9325 15.3975 27.4759C15.2484 28.0193 14.891 28.482 14.4029 28.7635C13.9149 29.0451 13.3354 29.1228 12.7904 28.9799C12.2453 28.8369 11.7786 28.4848 11.4915 28ZM28.566 18.139C28.2832 17.6471 28.207 17.0631 28.3541 16.5151C28.5011 15.9671 28.8595 15.4997 29.3505 15.2155C29.8425 14.9325 30.4267 14.8561 30.9749 15.0032C31.5231 15.1502 31.9906 15.5087 32.2748 16C32.5576 16.4919 32.6338 17.0759 32.4868 17.6239C32.3397 18.1719 31.9814 18.6393 31.4903 18.9235C30.9985 19.2067 30.4144 19.2832 29.8662 19.1361C29.3181 18.989 28.8508 18.6304 28.5668 18.139H28.566ZM21.8798 34C21.5988 34.0002 21.3206 33.945 21.061 33.8376C20.8014 33.7302 20.5655 33.5726 20.3669 33.3739C20.1682 33.1753 20.0106 32.9394 19.9032 32.6798C19.7958 32.4202 19.7406 32.142 19.7408 31.861C19.7406 31.58 19.7958 31.3018 19.9032 31.0422C20.0106 30.7826 20.1682 30.5467 20.3669 30.3481C20.5655 30.1494 20.8014 29.9918 21.061 29.8844C21.3206 29.777 21.5988 29.7218 21.8798 29.722C22.1608 29.7218 22.439 29.777 22.6986 29.8844C22.9582 29.9918 23.1941 30.1494 23.3927 30.3481C23.5914 30.5467 23.749 30.7826 23.8564 31.0422C23.9638 31.3018 24.019 31.58 24.0188 31.861C24.0182 32.4281 23.7927 32.9718 23.3916 33.3728C22.9906 33.7739 22.4469 33.9994 21.8798 34ZM21.8798 14.278C21.5988 14.2782 21.3206 14.223 21.061 14.1156C20.8014 14.0082 20.5655 13.8506 20.3669 13.6519C20.1682 13.4533 20.0106 13.2174 19.9032 12.9578C19.7958 12.6982 19.7406 12.42 19.7408 12.139C19.7406 11.858 19.7958 11.5798 19.9032 11.3202C20.0106 11.0606 20.1682 10.8247 20.3669 10.6261C20.5655 10.4274 20.8014 10.2698 21.061 10.1624C21.3206 10.055 21.5988 9.9998 21.8798 10C22.1608 9.9998 22.439 10.055 22.6986 10.1624C22.9582 10.2698 23.1941 10.4274 23.3927 10.6261C23.5914 10.8247 23.749 11.0606 23.8564 11.3202C23.9638 11.5798 24.019 11.858 24.0188 12.139C24.019 12.42 23.9638 12.6982 23.8564 12.9578C23.749 13.2174 23.5914 13.4533 23.3927 13.6519C23.1941 13.8506 22.9582 14.0082 22.6986 14.1156C22.439 14.223 22.1608 14.2782 21.8798 14.278Z" fill="#D7018F"/>
</g>
</g>
<defs>
<clipPath id="clip0_815_1589">
<rect width="24" height="24" fill="white" transform="translate(10 10)"/>
</clipPath>
</defs>
</svg>
