<svg width="44" height="44" viewBox="0 0 44 44" fill="none" xmlns="http://www.w3.org/2000/svg">
<circle cx="22" cy="22" r="22" fill="white"/>
<g clip-path="url(#clip0_815_2113)">
<path fill-rule="evenodd" clip-rule="evenodd" d="M22.0949 28.938C20.6887 28.938 19.6019 28.7265 19.0799 28.6005C18.7859 28.5343 18.4975 28.4453 18.2174 28.3343L18.9149 29.5245L19.1872 33.2445C19.1872 33.6615 20.5117 33.9998 22.1459 33.9998C23.7802 33.9998 25.1047 33.6623 25.1047 33.2445L25.3207 29.484L25.9807 28.3305C25.698 28.4435 25.4069 28.5338 25.1099 28.6005C24.5872 28.7265 23.5012 28.938 22.0949 28.938ZM26.0024 16.833C24.9704 16.9778 23.6009 17.0573 22.1459 17.0573C20.6909 17.0573 19.3214 16.9778 18.2894 16.8338C17.7779 16.7618 17.3737 16.6778 17.0872 16.5833C16.9851 16.5517 16.8862 16.5107 16.7917 16.461L17.4307 22.3455C17.5246 22.0326 17.6451 21.7283 17.7907 21.4358C17.8869 21.243 17.9945 21.0561 18.1132 20.8763C18.2287 20.7008 18.3524 20.5388 18.4829 20.391C18.6142 20.2433 18.7484 20.1165 18.8864 20.01C19.0244 19.9035 19.1639 19.8203 19.3034 19.7603C19.4444 19.7003 19.5832 19.6703 19.7212 19.6703C19.8836 19.6714 20.0427 19.7165 20.1817 19.8008C20.3302 19.887 20.4689 20.028 20.5979 20.2223C20.6258 20.2615 20.645 20.3063 20.6542 20.3535C20.6624 20.3985 20.6662 20.4405 20.6662 20.4795C20.6662 20.5725 20.6437 20.646 20.5994 20.6993C20.581 20.724 20.5572 20.7442 20.5298 20.7583C20.5023 20.7723 20.472 20.7799 20.4412 20.7803C20.3857 20.7803 20.3332 20.7503 20.2852 20.6918C20.2242 20.6125 20.1705 20.5279 20.1247 20.439C20.0809 20.3538 20.0177 20.28 19.9402 20.2238C19.8755 20.18 19.7992 20.1568 19.7212 20.157C19.5989 20.157 19.4684 20.208 19.3304 20.3093C19.1764 20.425 19.0378 20.5598 18.9179 20.7105C18.7727 20.89 18.6418 21.0805 18.5264 21.2805C18.4024 21.4927 18.2917 21.7124 18.1949 21.9383C18.0989 22.1625 18.0224 22.3838 17.9662 22.6013C17.9092 22.8195 17.8814 23.0153 17.8814 23.1893C17.8814 23.247 17.8852 23.3063 17.8927 23.3678C17.9002 23.4278 17.9152 23.484 17.9377 23.5328C17.9594 23.583 17.9887 23.6235 18.0262 23.6558C18.0637 23.688 18.1117 23.7038 18.1687 23.7038C18.2463 23.7001 18.322 23.6778 18.3892 23.6385C18.4717 23.5958 18.5564 23.5388 18.6442 23.4683C18.7319 23.3978 18.8212 23.3183 18.9097 23.2298C19.075 23.065 19.2265 22.8869 19.3627 22.6973C19.4227 22.6148 19.4662 22.5413 19.4962 22.4798L19.7399 21.7508C19.7608 21.6845 19.8014 21.6262 19.8562 21.5835C19.899 21.5519 19.9506 21.5344 20.0039 21.5333C20.0287 21.5333 20.0527 21.5378 20.0774 21.546C20.1026 21.5547 20.1256 21.5688 20.1448 21.5874C20.1639 21.6059 20.1788 21.6284 20.1884 21.6533C20.1997 21.681 20.2057 21.7133 20.2057 21.7508C20.2057 21.8498 20.1967 21.9428 20.1794 22.0298C20.162 22.1158 20.1394 22.2007 20.1119 22.284C20.0857 22.3665 20.0557 22.449 20.0219 22.533C19.9877 22.6198 19.9554 22.7073 19.9252 22.7955C19.9098 22.8269 19.8973 22.8595 19.8877 22.893C19.8343 23.0534 19.7836 23.2147 19.7354 23.3768L19.6417 23.6903C19.5817 23.8863 19.5242 24.0831 19.4692 24.2805L19.4092 24.4883C19.4004 24.5214 19.3911 24.5544 19.3814 24.5873C19.358 24.6681 19.3207 24.7442 19.2712 24.8123C19.247 24.8464 19.218 24.8767 19.1849 24.9023C19.1572 24.9245 19.1229 24.9369 19.0874 24.9375C19.0319 24.9375 18.9914 24.9188 18.9659 24.882C18.9404 24.8445 18.9284 24.777 18.9284 24.6773V24.6338C18.9284 24.6195 18.9284 24.6038 18.9307 24.5873C18.9322 24.5543 18.9457 24.492 18.9704 24.4013C19.0323 24.1783 19.0983 23.9565 19.1684 23.736C19.2067 23.613 19.2419 23.5035 19.2734 23.406C19.1777 23.5131 19.0776 23.6162 18.9734 23.715C18.8647 23.817 18.7537 23.9093 18.6404 23.9903C18.5332 24.0684 18.4183 24.1355 18.2977 24.1905C18.1935 24.2399 18.0799 24.2665 17.9647 24.2685C17.8542 24.2713 17.7451 24.2433 17.6497 24.1875C17.6339 24.1778 17.6189 24.1665 17.6039 24.156L17.9594 27.8865C18.0517 28.119 19.7954 28.689 22.0949 28.689C24.3952 28.689 26.1397 28.1183 26.2304 27.8865L26.7412 23.451L26.6189 23.5643C26.4719 23.7008 26.3339 23.8178 26.2034 23.9168C26.0737 24.0143 25.9469 24.0908 25.8232 24.144C25.6977 24.1982 25.5623 24.2258 25.4257 24.225C25.2922 24.225 25.1902 24.195 25.1174 24.138C25.0816 24.1096 25.0531 24.0731 25.0342 24.0315C25.0153 23.9899 25.0066 23.9444 25.0087 23.8988V23.8763C25.018 23.7909 25.0467 23.7088 25.0927 23.6363C25.1399 23.5553 25.1962 23.4713 25.2629 23.3843C25.3313 23.2948 25.4018 23.207 25.4744 23.121C25.5494 23.0318 25.6192 22.9485 25.6829 22.8683C25.7467 22.7888 25.7992 22.716 25.8404 22.65C25.8757 22.6029 25.8977 22.5473 25.9042 22.4888C25.9047 22.4775 25.9025 22.4663 25.898 22.4561C25.8934 22.4458 25.8866 22.4367 25.8779 22.4295C25.8607 22.4145 25.8314 22.4078 25.7917 22.4078C25.7165 22.409 25.6426 22.4275 25.5757 22.4618C25.4967 22.5013 25.4229 22.5504 25.3559 22.608C25.2832 22.6688 25.2127 22.7385 25.1437 22.8173C25.0078 22.972 24.8877 23.1398 24.7852 23.3183C24.7221 23.4262 24.6648 23.5373 24.6134 23.6513C24.5939 23.6925 24.5737 23.739 24.5504 23.7908C24.5279 23.8425 24.5039 23.8958 24.4784 23.9505C24.4548 24.0017 24.4318 24.0532 24.4094 24.105L24.3532 24.2355L24.3179 24.3143C24.3089 24.333 24.2947 24.3683 24.2744 24.4193C24.2225 24.5522 24.1719 24.6857 24.1229 24.8198L24.0419 25.0373L23.9744 25.2173C23.9613 25.2519 23.9492 25.2869 23.9384 25.3223C23.9204 25.3763 23.9002 25.4265 23.8769 25.4745C23.855 25.5194 23.8278 25.5614 23.7959 25.5998C23.7666 25.635 23.731 25.6645 23.6909 25.6868C23.6504 25.7087 23.6049 25.7198 23.5589 25.719C23.5034 25.7212 23.4487 25.7054 23.4029 25.674C23.3617 25.644 23.3414 25.587 23.3414 25.5015C23.3414 25.461 23.3467 25.419 23.3564 25.3748C23.3677 25.3313 23.3804 25.2885 23.3962 25.2465C23.4119 25.2038 23.4284 25.1625 23.4449 25.122C23.4614 25.0823 23.4764 25.0433 23.4899 25.0058C23.5852 24.7995 23.6812 24.5918 23.7787 24.384C23.8762 24.177 23.9699 23.9715 24.0599 23.7675L24.1139 23.6408L24.0982 23.6573C23.9915 23.7612 23.8782 23.8581 23.7592 23.9475C23.6467 24.0308 23.5342 24.0975 23.4239 24.147C23.3129 24.1965 23.2057 24.222 23.1007 24.222C23.0388 24.224 22.9774 24.2122 22.9207 24.1875C22.8752 24.1666 22.8358 24.1346 22.8059 24.0945C22.776 24.0528 22.755 24.0053 22.7444 23.955C22.7407 23.9363 22.7377 23.9175 22.7354 23.898C22.6094 23.9999 22.4707 24.0851 22.3229 24.1515C22.2345 24.1941 22.1382 24.2179 22.0402 24.2213C22.0022 24.2227 21.9644 24.2159 21.9292 24.2016C21.894 24.1872 21.8623 24.1656 21.8362 24.138C21.7837 24.0818 21.7582 23.9873 21.7582 23.853C21.7582 23.7578 21.7717 23.6468 21.7994 23.5208C21.7544 23.6018 21.6974 23.6835 21.6299 23.766C21.5617 23.8485 21.4837 23.9235 21.3967 23.9925C21.3089 24.06 21.2114 24.1155 21.1034 24.1575C20.9907 24.2007 20.8709 24.2224 20.7502 24.2213C20.6939 24.2215 20.6379 24.2142 20.5837 24.1995C20.5298 24.1852 20.4802 24.1581 20.439 24.1207C20.3978 24.0832 20.3661 24.0365 20.3467 23.9843C20.3087 23.8832 20.2996 23.7737 20.3204 23.6678C20.3279 23.6078 20.3504 23.511 20.3879 23.3798C20.4254 23.2485 20.4832 23.0783 20.5612 22.8698C20.6399 22.6613 20.7509 22.4078 20.8942 22.11C20.9214 22.0439 20.965 21.9858 21.0209 21.9413C21.0649 21.9087 21.1179 21.8906 21.1726 21.8895C21.2273 21.8884 21.281 21.9044 21.3262 21.9353C21.3487 21.9503 21.3667 21.9705 21.3809 21.9938C21.3952 22.0189 21.4025 22.0474 21.4019 22.0763C21.4021 22.096 21.3996 22.1157 21.3944 22.1348C21.3803 22.1826 21.3612 22.2289 21.3374 22.2728C21.3043 22.338 21.2708 22.403 21.2369 22.4678L21.1154 22.7055C21.0716 22.7915 21.0316 22.8793 20.9954 22.9688C20.9594 23.0603 20.9279 23.1525 20.9017 23.2463C20.876 23.3357 20.8609 23.4278 20.8567 23.5208C20.8567 23.5583 20.8657 23.592 20.8837 23.6235C20.9009 23.6543 20.9302 23.67 20.9699 23.67C21.0832 23.67 21.1912 23.6325 21.2947 23.5575C21.3974 23.484 21.4927 23.391 21.5797 23.28C21.6674 23.1698 21.7462 23.0513 21.8167 22.9238C21.8872 22.7963 21.9464 22.6808 21.9937 22.575C22.0267 22.5053 22.0559 22.4295 22.0814 22.3493C22.1062 22.2683 22.1339 22.194 22.1639 22.1258C22.1895 22.0644 22.2239 22.007 22.2659 21.9555C22.283 21.934 22.3048 21.9167 22.3296 21.9048C22.3545 21.893 22.3817 21.887 22.4092 21.8873C22.4722 21.8873 22.5217 21.9105 22.5592 21.9585C22.5952 22.0058 22.6139 22.0628 22.6139 22.1288C22.6106 22.1816 22.5987 22.2335 22.5787 22.2825C22.5507 22.3576 22.5207 22.4319 22.4887 22.5053C22.4534 22.5893 22.4144 22.6785 22.3732 22.7738C22.3309 22.8692 22.2919 22.966 22.2562 23.064C22.2209 23.1615 22.1909 23.2575 22.1677 23.352C22.1452 23.4377 22.1333 23.5259 22.1324 23.6145C22.1324 23.688 22.1699 23.7255 22.2472 23.7255C22.3176 23.7214 22.3863 23.7025 22.4489 23.67C22.5644 23.6151 22.6717 23.5445 22.7677 23.46C22.7924 23.3588 22.8209 23.265 22.8547 23.1803C22.9154 23.0183 22.9777 22.8585 23.0407 22.6995L23.2132 22.2623L24.0067 20.262C24.0293 20.193 24.0738 20.1332 24.1334 20.0918C24.1812 20.0605 24.2368 20.0433 24.2939 20.0423C24.348 20.042 24.4005 20.0605 24.4424 20.0948C24.4867 20.13 24.5092 20.187 24.5092 20.2658C24.5092 20.3033 24.5017 20.3423 24.4867 20.3835C24.4702 20.4287 24.4514 20.473 24.4304 20.5163C24.2368 20.9575 24.0495 21.4016 23.8687 21.8483L23.6572 22.3703C23.5385 22.6619 23.422 22.9544 23.3077 23.2478C23.2882 23.2958 23.2694 23.3513 23.2514 23.4143C23.2343 23.4689 23.225 23.5257 23.2237 23.583C23.2237 23.6138 23.2289 23.6385 23.2387 23.6573C23.2499 23.676 23.2702 23.685 23.2994 23.685C23.3362 23.685 23.3819 23.6723 23.4367 23.6468C23.4986 23.6169 23.5583 23.5826 23.6152 23.544C23.6789 23.502 23.7449 23.4533 23.8139 23.3985C24.0132 23.2403 24.2026 23.07 24.3809 22.8885C24.3922 22.8769 24.4057 22.8677 24.4207 22.8615C24.4494 22.7762 24.4762 22.6901 24.5009 22.6035L24.5587 22.4453C24.5827 22.377 24.6112 22.3103 24.6419 22.2435C24.6734 22.1775 24.7094 22.1198 24.7484 22.071C24.7874 22.023 24.8302 21.9983 24.8759 21.9983C24.9449 21.9983 24.9959 22.0148 25.0274 22.047C25.0582 22.0785 25.0739 22.1258 25.0739 22.188C25.0664 22.2651 25.0546 22.3417 25.0387 22.4175C25.0347 22.4374 25.0292 22.457 25.0222 22.476C25.089 22.4034 25.1588 22.3336 25.2314 22.2668C25.3064 22.1978 25.3837 22.1348 25.4639 22.0793C25.5449 22.023 25.6267 21.978 25.7107 21.9428C25.8438 21.883 25.9939 21.8732 26.1337 21.915C26.1877 21.9305 26.2387 21.9551 26.2844 21.9878C26.3294 22.02 26.3654 22.0605 26.3932 22.1085C26.4217 22.1573 26.4352 22.2135 26.4352 22.278C26.4331 22.3717 26.4114 22.464 26.3714 22.5488C26.3259 22.6499 26.272 22.747 26.2102 22.839C26.1457 22.9365 26.0752 23.0303 26.0009 23.1225C25.9259 23.2148 25.8554 23.298 25.7902 23.3738L25.6252 23.5658C25.5802 23.6183 25.5577 23.6543 25.5562 23.673C25.5562 23.6978 25.5637 23.718 25.5794 23.733C25.5952 23.7488 25.6214 23.7563 25.6582 23.7563C25.6882 23.7563 25.7317 23.7398 25.7887 23.7068C25.8731 23.6547 25.9541 23.5971 26.0309 23.5343C26.1344 23.4533 26.2664 23.3438 26.4262 23.2065C26.5357 23.112 26.6639 22.9995 26.8087 22.872L27.5009 16.4603C27.4062 16.5103 27.307 16.5515 27.2047 16.5833C26.9182 16.6778 26.5139 16.7618 26.0024 16.8338V16.833ZM22.1422 15.312C19.1489 15.312 16.7227 15.6473 16.7227 16.0598C16.7227 16.4723 19.1489 16.8075 22.1422 16.8075C25.1347 16.8075 27.5609 16.4723 27.5609 16.0598C27.5609 15.6473 25.1347 15.312 22.1414 15.312H22.1422ZM24.3059 16.278C24.3059 16.3755 24.0172 16.4535 23.6609 16.4535C23.3062 16.4535 23.0174 16.3748 23.0174 16.278C23.0174 16.1813 23.3062 16.1025 23.6617 16.1025C24.0172 16.1025 24.3059 16.1813 24.3059 16.278Z" fill="#D64A47"/>
<path fill-rule="evenodd" clip-rule="evenodd" d="M23.1451 16.2009C23.1423 16.2054 23.1407 16.2106 23.1406 16.2159C23.1406 16.2789 23.3731 16.3299 23.6581 16.3299C23.9454 16.3299 24.1771 16.2789 24.1771 16.2166L24.8544 13.4709L27.5469 10.6276L27.5499 10.6246C27.6069 10.5601 27.4914 10.3606 27.2994 10.1896C27.1074 10.0186 26.9004 9.9609 26.8359 10.0261L26.8344 10.0276L23.9611 13.0501L23.1451 16.2009Z" fill="#D64A47"/>
</g>
<defs>
<clipPath id="clip0_815_2113">
<rect width="24" height="24" fill="white" transform="translate(10 10)"/>
</clipPath>
</defs>
</svg>
