<svg width="44" height="44" viewBox="0 0 44 44" fill="none" xmlns="http://www.w3.org/2000/svg">
<circle cx="22" cy="22" r="22" fill="white"/>
<g clip-path="url(#clip0_815_2103)">
<mask id="mask0_815_2103" style="mask-type:luminance" maskUnits="userSpaceOnUse" x="10" y="10" width="24" height="24">
<path d="M10 10H34V34H10V10Z" fill="white"/>
</mask>
<g mask="url(#mask0_815_2103)">
<path d="M33.9925 10H10.0075C10.0055 10 10.0036 10.0008 10.0022 10.0022C10.0008 10.0036 10 10.0055 10 10.0075V33.9925C10 33.997 10.003 34 10.0075 34H33.9925C33.9945 34 33.9964 33.9992 33.9978 33.9978C33.9992 33.9964 34 33.9945 34 33.9925V10.0075C34 10.0055 33.9992 10.0036 33.9978 10.0022C33.9964 10.0008 33.9945 10 33.9925 10Z" fill="#F7E01D"/>
<path d="M25.1879 27.3438C25.6566 28.141 26.3129 28.7035 27.3914 28.7035C28.3289 28.7035 28.9379 28.2347 28.9379 27.5785C28.9379 26.8285 28.3281 26.5472 27.2969 26.0785L26.7344 25.8438C25.0941 25.1403 24.0156 24.2965 24.0156 22.4688C24.0156 20.7812 25.2816 19.4688 27.2969 19.4688C28.7504 19.4688 29.7816 19.9847 30.4844 21.2972L28.7504 22.4222C28.3754 21.7187 27.9531 21.4375 27.2969 21.4375C26.6406 21.4375 26.2191 21.8597 26.2191 22.4222C26.2191 23.0785 26.6414 23.3598 27.6254 23.7812L28.1879 24.016C30.1101 24.8597 31.1879 25.6562 31.1879 27.5785C31.1879 29.5938 29.5941 30.7188 27.4379 30.7188C25.3281 30.7188 23.9691 29.734 23.3129 28.4215L25.1879 27.3438ZM17.2191 27.5312C17.5941 28.141 17.8754 28.7035 18.6726 28.7035C19.4226 28.7035 19.8906 28.4222 19.8906 27.2972V19.516H22.1406V27.2035C22.1406 29.5472 20.7816 30.5785 18.7656 30.5785C16.9379 30.5785 15.9066 29.641 15.3906 28.516L17.2191 27.5312Z" fill="#222222"/>
</g>
</g>
<defs>
<clipPath id="clip0_815_2103">
<rect width="24" height="24" fill="white" transform="translate(10 10)"/>
</clipPath>
</defs>
</svg>
