<svg width="44" height="44" viewBox="0 0 44 44" fill="none" xmlns="http://www.w3.org/2000/svg">
<circle cx="22" cy="22" r="22" fill="white"/>
<g clip-path="url(#clip0_815_1540)">
<mask id="mask0_815_1540" style="mask-type:luminance" maskUnits="userSpaceOnUse" x="10" y="10" width="24" height="24">
<path d="M10 10H34V34H10V10Z" fill="white"/>
</mask>
<g mask="url(#mask0_815_1540)">
<path d="M23.3172 27.9416C29.2422 23.4386 25.1742 14.1191 20.0584 14.9171C10.4367 16.4194 12.8442 29.7919 16.0497 32.2781C11.0337 29.7994 8.94868 23.6501 10.5072 18.4256C11.7424 14.2856 15.5922 10.1861 21.4242 10.0286C30.6289 9.18864 33.3717 27.0986 23.3172 27.9416ZM20.2774 16.1029C15.0132 16.3714 13.8777 21.6889 14.3104 25.5304C14.9419 31.1359 18.4939 34.7749 24.0394 33.8591C32.5602 32.4529 39.5974 18.9191 27.6229 11.3591C32.0344 16.4966 32.0749 26.9074 24.8277 28.7554C18.1257 30.7759 15.0747 19.9556 20.2774 16.1029Z" fill="#61656D"/>
</g>
</g>
<defs>
<clipPath id="clip0_815_1540">
<rect width="24" height="24" fill="white" transform="translate(10 10)"/>
</clipPath>
</defs>
</svg>
