<svg width="44" height="44" viewBox="0 0 44 44" fill="none" xmlns="http://www.w3.org/2000/svg">
<circle cx="22" cy="22" r="22" fill="white"/>
<g clip-path="url(#clip0_815_1534)">
<path d="M31.8999 15.64C31.7634 15.2005 31.4334 14.8442 31.0224 14.6245L22.6516 10.6172C22.4319 10.5077 22.1851 10.48 21.9654 10.48C21.7456 10.48 21.4989 10.48 21.2791 10.5347L12.9084 14.5697C12.7023 14.6643 12.5207 14.8051 12.3779 14.9812C12.2351 15.1573 12.1348 15.364 12.0849 15.5852L10.0269 24.6145C9.94436 25.081 10.0539 25.5475 10.3284 25.9315L16.1191 33.0947C16.4491 33.4247 16.9156 33.6437 17.3821 33.6715H26.6034C27.0976 33.7262 27.5634 33.5065 27.8656 33.0947L33.6571 25.9322C33.9278 25.5496 34.0452 25.0794 33.9864 24.6145L31.8999 15.64Z" fill="#2F69DF"/>
<path d="M30.6083 24.2575C30.5813 24.2575 30.5543 24.2575 30.5543 24.2297C30.5543 24.2027 30.4988 24.2027 30.444 24.2027C30.3345 24.175 30.225 24.175 30.1148 24.175C30.06 24.175 30.0053 24.175 29.9498 24.148H29.9228C29.6076 24.1197 29.2955 24.0645 28.9898 23.983C28.946 23.9663 28.9063 23.9406 28.8732 23.9075C28.8401 23.8744 28.8144 23.8347 28.7978 23.791L28.578 23.7362C28.6875 22.9397 28.6328 22.1162 28.4685 21.3212C28.2748 20.5231 27.9501 19.7625 27.5078 19.0705L27.6728 18.9055V18.8785C27.6728 18.796 27.6998 18.6865 27.7553 18.631C28.002 18.412 28.2488 18.247 28.5233 18.0827L28.6883 18.0002C28.7978 17.9455 28.8795 17.89 28.9898 17.8352C29.0175 17.8082 29.0445 17.8082 29.0723 17.7805C29.0993 17.7527 29.0723 17.7527 29.0723 17.7257C29.319 17.5337 29.3738 17.2037 29.1818 16.957C29.1349 16.8997 29.0765 16.853 29.0103 16.8199C28.9441 16.7868 28.8717 16.7681 28.7978 16.765C28.6582 16.7686 28.5234 16.8167 28.413 16.9022L28.386 16.93C28.3583 16.957 28.3313 16.9847 28.3035 16.9847C28.221 17.0672 28.1385 17.1497 28.0838 17.2322C28.0568 17.2862 28.0013 17.314 27.9743 17.341C27.7721 17.5708 27.5415 17.7739 27.288 17.9455C27.2333 17.9725 27.1785 18.0002 27.123 18.0002C27.096 18.0002 27.0405 18.0002 27.0135 17.9725H26.9865L26.7668 18.1097C26.547 17.89 26.3003 17.671 26.0805 17.4512C25.065 16.6555 23.8028 16.1612 22.5128 16.024L22.485 15.8042V15.832C22.4025 15.7772 22.3755 15.6947 22.3478 15.6122C22.3478 15.3107 22.3478 15.0085 22.4025 14.6792V14.6515C22.4025 14.5967 22.4303 14.542 22.4303 14.4865C22.458 14.377 22.458 14.2675 22.485 14.158V13.993C22.5128 13.7185 22.293 13.444 22.0185 13.417C21.8535 13.3892 21.6893 13.4717 21.552 13.609C21.5004 13.6589 21.4593 13.7185 21.431 13.7844C21.4026 13.8503 21.3877 13.9212 21.387 13.993V14.1302C21.387 14.2397 21.4148 14.35 21.4425 14.4602C21.4647 14.512 21.4739 14.5683 21.4695 14.6245V14.6515C21.5243 14.9537 21.5243 15.2552 21.5243 15.5845C21.4973 15.667 21.4695 15.7495 21.387 15.8042V15.859L21.36 16.0787C21.0578 16.1065 20.7563 16.1612 20.427 16.216C19.137 16.4905 17.9565 17.176 17.0513 18.1375L16.8863 18.0272H16.8593C16.8315 18.0272 16.8038 18.055 16.749 18.055C16.6943 18.055 16.6395 18.0272 16.584 18.0002C16.3366 17.8113 16.1071 17.5999 15.8985 17.3687C15.8708 17.314 15.816 17.2862 15.7883 17.2592C15.7058 17.1767 15.651 17.0942 15.5693 17.0117C15.5415 16.9847 15.5145 16.9847 15.4868 16.957L15.4583 16.93C15.3481 16.8446 15.2136 16.7965 15.0743 16.7927C14.9093 16.7927 14.7728 16.8475 14.6903 16.9847C14.6127 17.1044 14.581 17.2481 14.6011 17.3892C14.6213 17.5304 14.6918 17.6595 14.7998 17.7527C14.8275 17.7527 14.8275 17.7805 14.8275 17.7805C14.8275 17.7805 14.8823 17.8352 14.91 17.8352C14.9925 17.89 15.102 17.9455 15.2115 18.0002L15.3765 18.0827C15.6503 18.247 15.9248 18.412 16.1445 18.631C16.1993 18.6865 16.2548 18.796 16.227 18.8785V18.85L16.392 19.015C16.3643 19.0697 16.3365 19.0975 16.3095 19.1522C15.4583 20.497 15.102 22.0885 15.3488 23.6522L15.129 23.7077C15.129 23.7355 15.102 23.7355 15.102 23.7355C15.0743 23.818 14.9918 23.8727 14.9093 23.9275C14.6078 24.01 14.3055 24.0647 13.9763 24.0925C13.9215 24.0925 13.8668 24.0925 13.8113 24.1195C13.7018 24.1195 13.5923 24.1472 13.4828 24.1472C13.455 24.1472 13.4273 24.1742 13.3725 24.1742C13.3455 24.1742 13.3455 24.1742 13.3178 24.202C13.2471 24.2136 13.1794 24.2393 13.1188 24.2775C13.0582 24.3158 13.0059 24.3658 12.965 24.4246C12.9241 24.4834 12.8954 24.5498 12.8807 24.6199C12.8659 24.69 12.8653 24.7624 12.879 24.8327C12.9086 24.9522 12.9804 25.057 13.0811 25.1277C13.1819 25.1984 13.3048 25.2303 13.4273 25.2175C13.4828 25.2175 13.5098 25.2175 13.5645 25.1897C13.5923 25.1897 13.5923 25.1897 13.5923 25.1627C13.5923 25.135 13.6748 25.1627 13.7018 25.1627C13.812 25.135 13.9215 25.0802 14.004 25.0525C14.0542 25.022 14.1106 25.0033 14.169 24.9977H14.196C14.4894 24.8864 14.7928 24.8035 15.102 24.7502H15.129C15.2115 24.7502 15.294 24.778 15.3488 24.8327C15.3765 24.8327 15.3765 24.8605 15.3765 24.8605L15.6233 24.8327C16.032 26.1058 16.8163 27.2253 17.8733 28.0442C18.1208 28.2362 18.3405 28.4012 18.615 28.5385L18.4778 28.7305C18.4778 28.7575 18.5048 28.7575 18.5048 28.7575C18.5595 28.84 18.5595 28.9495 18.5325 29.032C18.4133 29.3116 18.266 29.5785 18.093 29.8285V29.8555C18.0652 29.9075 18.0281 29.9541 17.9835 29.9927C17.9288 30.0475 17.874 30.1577 17.7915 30.2672C17.7638 30.295 17.7638 30.322 17.7368 30.3497C17.7368 30.3497 17.7368 30.3767 17.709 30.3767C17.6446 30.505 17.6315 30.6531 17.6723 30.7907C17.7131 30.9284 17.8048 31.0453 17.9288 31.1177C17.9885 31.1485 18.0538 31.1671 18.1208 31.1725C18.3405 31.1725 18.5325 31.036 18.642 30.8432C18.642 30.8432 18.642 30.8162 18.6698 30.8162C18.6698 30.7885 18.6968 30.7615 18.7245 30.7337C18.7523 30.6242 18.807 30.5417 18.834 30.4322L18.8888 30.2672C18.9713 29.965 19.1085 29.6912 19.2458 29.4167C19.2989 29.339 19.3761 29.281 19.4655 29.2517C19.4933 29.2517 19.4933 29.2517 19.4933 29.224L19.6028 29.005C20.3639 29.3008 21.1742 29.4497 21.9908 29.4437C22.4843 29.4437 22.9785 29.389 23.4728 29.2517C23.7743 29.197 24.0765 29.0867 24.3503 29.0042L24.4605 29.197C24.4883 29.197 24.4883 29.197 24.4883 29.224C24.5708 29.2517 24.6533 29.3065 24.7073 29.389C24.8445 29.6635 24.9818 29.938 25.0643 30.2395V30.2672L25.119 30.4322C25.1468 30.5417 25.1738 30.6512 25.2293 30.7337C25.2563 30.7615 25.2563 30.7885 25.284 30.8162C25.284 30.8162 25.284 30.8432 25.311 30.8432C25.4213 31.036 25.6133 31.1732 25.833 31.1732C25.9155 31.1732 25.9703 31.1455 26.052 31.1177C26.1129 31.0887 26.1666 31.0467 26.2094 30.9946C26.2522 30.9425 26.2829 30.8816 26.2995 30.8162C26.3316 30.679 26.322 30.5354 26.2718 30.4037C26.2718 30.3767 26.2448 30.3767 26.2448 30.3767C26.2448 30.3497 26.217 30.322 26.1893 30.2942C26.1413 30.1927 26.0764 30.1001 25.9973 30.0205C25.9695 29.9684 25.9324 29.9219 25.8878 29.8832V29.8285C25.7046 29.5849 25.5566 29.3168 25.4483 29.032C25.4325 28.987 25.4267 28.9391 25.4315 28.8916C25.4363 28.8442 25.4515 28.7984 25.476 28.7575C25.476 28.7305 25.503 28.7305 25.503 28.7305L25.4205 28.5107C26.8208 27.6602 27.891 26.3432 28.3853 24.778L28.605 24.8057C28.632 24.8057 28.632 24.778 28.632 24.778C28.6917 24.7229 28.7706 24.6932 28.8518 24.6955H28.8795C29.181 24.751 29.4833 24.8335 29.757 24.943H29.7848C29.8349 24.9734 29.8913 24.9921 29.9498 24.9977C30.0593 25.0525 30.1418 25.1072 30.2513 25.135C30.279 25.135 30.306 25.1627 30.3615 25.1627C30.3885 25.1627 30.3885 25.1627 30.4163 25.1897C30.4584 25.212 30.506 25.2216 30.5535 25.2175C30.801 25.2175 31.02 25.0525 31.1025 24.8335C31.0914 24.6974 31.0375 24.5684 30.9486 24.4648C30.8597 24.3612 30.7403 24.2884 30.6075 24.2567L30.6083 24.2575ZM22.677 23.407L21.936 23.7632L21.195 23.407L21.003 22.6105L21.5243 21.952H22.3478L22.8698 22.6105L22.677 23.407ZM27.1508 21.6227C27.288 22.1987 27.3158 22.7755 27.2603 23.3515L24.6533 22.6105C24.4058 22.5557 24.2693 22.309 24.324 22.0615C24.3437 21.9892 24.3814 21.9232 24.4335 21.8695L26.4923 20.0035C26.7938 20.4977 27.0135 21.046 27.1508 21.6227ZM25.6688 18.988L23.4188 20.5802C23.226 20.6897 22.9515 20.6627 22.8143 20.47C22.7874 20.4459 22.7661 20.4162 22.7519 20.383C22.7377 20.3499 22.7308 20.314 22.7318 20.278L22.5675 17.506C23.7401 17.6315 24.8345 18.1544 25.6688 18.988ZM20.7015 17.5885L21.2505 17.4782L21.1133 20.2232C21.1133 20.4707 20.8935 20.662 20.646 20.662C20.5635 20.662 20.5095 20.635 20.427 20.6072L18.1493 18.988C18.8574 18.2987 19.7396 17.8149 20.7015 17.5885ZM17.3528 20.0035L19.3838 21.8147C19.5758 21.9797 19.6035 22.2542 19.4385 22.4462C19.3838 22.5287 19.329 22.5557 19.2195 22.5835L16.557 23.3515C16.476 22.1806 16.7536 21.0127 17.3528 20.0035ZM16.8863 24.6415L19.6035 24.175C19.8233 24.175 20.0423 24.3122 20.07 24.532C20.0858 24.577 20.0915 24.6249 20.0867 24.6723C20.0819 24.7198 20.0668 24.7656 20.0423 24.8065L18.9998 27.331C18.0224 26.6872 17.2807 25.7433 16.8863 24.6415ZM23.1165 28.045C22.7291 28.1328 22.3333 28.1788 21.936 28.1822C21.36 28.1822 20.7563 28.0727 20.2073 27.9077L21.552 25.465C21.6893 25.3 21.909 25.2452 22.101 25.3555C22.1835 25.4102 22.2383 25.465 22.3208 25.5475L23.6378 27.9347C23.4728 27.9625 23.3085 27.9902 23.1165 28.045ZM26.4645 25.657C26.0462 26.3225 25.4836 26.8854 24.8183 27.304L23.748 24.724C23.7208 24.6219 23.7307 24.5136 23.7759 24.4181C23.8211 24.3227 23.8986 24.2464 23.9948 24.2027C24.0773 24.175 24.1598 24.148 24.2423 24.148L26.9865 24.6145C26.8493 24.9985 26.6843 25.3555 26.4645 25.657Z" fill="white"/>
</g>
<defs>
<clipPath id="clip0_815_1534">
<rect width="24" height="24" fill="white" transform="translate(10 10)"/>
</clipPath>
</defs>
</svg>
