<svg width="44" height="44" viewBox="0 0 44 44" fill="none" xmlns="http://www.w3.org/2000/svg">
<circle cx="22" cy="22" r="22" fill="white"/>
<mask id="mask0_167_12528" style="mask-type:luminance" maskUnits="userSpaceOnUse" x="10" y="19" width="24" height="6">
<path d="M10 19.1201H34V24.9169H10V19.1201Z" fill="white"/>
</mask>
<g mask="url(#mask0_167_12528)">
<path d="M10.9427 19.1201V23.9824H12.7135V24.8201H10V19.1201H10.9427ZM16.039 21.5374V21.0251H16.9352V24.8224H16.0435V24.3071C15.9205 24.4969 15.751 24.6446 15.5297 24.7496C15.3085 24.8621 15.0835 24.9146 14.8608 24.9146C14.5872 24.9184 14.3158 24.8647 14.0642 24.7571C13.8298 24.6562 13.6187 24.5081 13.444 24.3221C13.2715 24.1381 13.1349 23.9234 13.0412 23.6891C12.9447 23.4447 12.8963 23.1839 12.8988 22.9211C12.8988 22.6556 12.9475 22.3999 13.0428 22.1621C13.1358 21.9244 13.2722 21.7069 13.4462 21.5209C13.6187 21.3334 13.8287 21.1849 14.062 21.0814C14.3042 20.9764 14.572 20.9239 14.8585 20.9239C15.0813 20.9239 15.3047 20.9786 15.526 21.0859C15.7465 21.1954 15.916 21.3431 16.0352 21.5329L16.039 21.5374ZM15.9588 23.3876C16.0711 23.0883 16.0711 22.7584 15.9588 22.4591C15.9077 22.3171 15.8298 22.1862 15.7292 22.0736C15.6248 21.9605 15.498 21.8704 15.3569 21.8089C15.2158 21.7475 15.0634 21.716 14.9095 21.7166C14.74 21.7166 14.587 21.7526 14.4513 21.8179C14.3183 21.8791 14.1985 21.9657 14.0988 22.0729C13.9983 22.1854 13.9218 22.3166 13.8737 22.4591C13.8212 22.6091 13.7943 22.7651 13.795 22.9241C13.795 23.0861 13.8205 23.2399 13.873 23.3876C13.9219 23.5278 13.9981 23.6568 14.0972 23.7673C14.1964 23.8777 14.3164 23.9674 14.4505 24.0311C14.587 24.0941 14.74 24.1286 14.9095 24.1286C15.0798 24.1286 15.2343 24.0964 15.3723 24.0311C15.5073 23.9689 15.6295 23.8796 15.7292 23.7694C15.829 23.6584 15.907 23.5294 15.9588 23.3899V23.3876ZM17.6403 24.8224V21.0251H20.0658V21.8981H18.532V24.8201H17.6403V24.8224ZM23.3035 21.5374V21.0251H24.196V24.8224H23.3035V24.3071C23.1794 24.5004 23.0023 24.654 22.7935 24.7496C22.5862 24.8568 22.3564 24.9133 22.123 24.9146C21.8494 24.9184 21.5781 24.8647 21.3265 24.7571C21.0924 24.6561 20.8815 24.508 20.707 24.3221C20.5342 24.1382 20.3973 23.9235 20.3035 23.6891C20.2077 23.4446 20.16 23.1838 20.1632 22.9211C20.1632 22.6556 20.2098 22.3999 20.3057 22.1621C20.398 21.9244 20.5352 21.7069 20.7085 21.5209C20.8818 21.3334 21.091 21.1849 21.325 21.0814C21.5665 20.9764 21.835 20.9239 22.1207 20.9239C22.3442 20.9239 22.567 20.9786 22.7882 21.0859C23.0088 21.1954 23.1805 21.3431 23.2975 21.5329L23.3035 21.5374ZM23.2233 23.3876C23.2773 23.2391 23.305 23.0816 23.3035 22.9234C23.3035 22.7584 23.2765 22.6069 23.2233 22.4591C23.1729 22.3173 23.0957 22.1864 22.996 22.0736C22.8943 21.9642 22.7716 21.8765 22.6353 21.8156C22.4905 21.7496 22.3331 21.7158 22.174 21.7166C22.0045 21.7166 21.8515 21.7526 21.7135 21.8179C21.5805 21.8791 21.4608 21.9657 21.361 22.0729C21.2605 22.1854 21.184 22.3166 21.136 22.4591C21.0835 22.6091 21.058 22.7659 21.0595 22.9241C21.0595 23.0861 21.085 23.2399 21.136 23.3876C21.1848 23.5278 21.261 23.6568 21.3602 23.7673C21.4593 23.8778 21.5794 23.9675 21.7135 24.0311C21.8515 24.0941 22.0045 24.1286 22.174 24.1286C22.4043 24.1301 22.6294 24.0597 22.8178 23.9273C23.0063 23.7949 23.1488 23.607 23.2255 23.3899L23.2233 23.3876ZM27.7803 21.0251H28.687L27.2215 24.8224H26.0965L24.631 21.0251H25.5333L26.659 23.9321L27.7803 21.0266V21.0251ZM30.634 20.9276C31.8512 20.9276 32.6815 22.0001 32.524 23.2526H29.5578C29.5578 23.5774 29.893 24.2104 30.6828 24.2104C31.3622 24.2104 31.819 23.6194 31.819 23.6194L32.422 24.0844C31.8805 24.6536 31.4395 24.9169 30.7443 24.9169C29.509 24.9169 28.672 24.1369 28.672 22.9196C28.672 21.8156 29.5382 20.9239 30.6325 20.9239L30.634 20.9276ZM29.5615 22.5941H31.7065C31.6982 22.5206 31.579 21.6326 30.628 21.6326C29.6725 21.6326 29.5705 22.5229 29.5615 22.5941ZM33.1082 24.8156V19.1201H34V24.8201H33.1075V24.8156H33.1082Z" fill="#EB2B1B"/>
</g>
</svg>
