<svg width="44" height="44" viewBox="0 0 44 44" fill="none" xmlns="http://www.w3.org/2000/svg">
<circle cx="22" cy="22" r="22" fill="white"/>
<mask id="mask0_167_12544" style="mask-type:luminance" maskUnits="userSpaceOnUse" x="10" y="13" width="24" height="18">
<path d="M10 13.8398H34V30.1111H10V13.8398Z" fill="white"/>
</mask>
<g mask="url(#mask0_167_12544)">
<path d="M15.7465 28.6626H14.824C14.7969 27.192 14.7071 25.7231 14.5547 24.2601H14.5472L13.1425 28.6626H12.4405L11.0447 24.2601H11.0365C10.9264 25.7253 10.8612 27.1935 10.8407 28.6626H10C10.054 26.6991 10.1905 24.8579 10.408 23.1396H11.551L12.8815 27.1971H12.889L14.2285 23.1396H15.322C15.562 25.1519 15.703 26.9931 15.7465 28.6626ZM19.7462 24.5879C19.3712 26.6301 18.8755 28.1144 18.2612 29.0406C17.7812 29.7531 17.2562 30.1109 16.6847 30.1109C16.5325 30.1109 16.345 30.0644 16.1222 29.9729V29.4809C16.231 29.4959 16.3585 29.5056 16.5047 29.5056C16.7725 29.5056 16.987 29.4321 17.1505 29.2844C17.3462 29.1044 17.4437 28.9019 17.4437 28.6791C17.4437 28.5254 17.368 28.2126 17.2157 27.7379L16.2032 24.5879H17.11L17.8367 26.9436C18.0002 27.4784 18.0685 27.8519 18.0407 28.0649C18.4382 27.0014 18.7157 25.8419 18.8733 24.5871H19.747L19.7462 24.5879Z" fill="#007690"/>
<path d="M32.0232 28.6631H29.4034V23.1401H30.2847V27.9836H32.0232V28.6631ZM28.7179 28.7966L27.7047 28.2956C27.7947 28.2221 27.8802 28.1419 27.9574 28.0489C28.3879 27.5419 28.6024 26.7926 28.6024 25.7989C28.6024 23.9719 27.8877 23.0576 26.4567 23.0576C25.7547 23.0576 25.2072 23.2901 24.8157 23.7536C24.3852 24.2606 24.1707 25.0076 24.1707 25.9961C24.1707 26.9666 24.3612 27.6791 24.7414 28.1306C25.0902 28.5401 25.6152 28.7449 26.3179 28.7449C26.5797 28.7449 26.8204 28.7126 27.0394 28.6474L28.3579 29.4176L28.7179 28.7966ZM25.4359 27.5584C25.2132 27.1984 25.1014 26.6209 25.1014 25.8236C25.1014 24.4331 25.5229 23.7371 26.3667 23.7371C26.8077 23.7371 27.1317 23.9036 27.3379 24.2359C27.5607 24.5959 27.6724 25.1689 27.6724 25.9541C27.6724 27.3566 27.2509 28.0579 26.4072 28.0579C25.9662 28.0579 25.6429 27.8921 25.4359 27.5584ZM23.7859 27.1324C23.7859 27.6011 23.6149 27.9851 23.2722 28.2859C22.9294 28.5859 22.4697 28.7359 21.8937 28.7359C21.3544 28.7359 20.8324 28.5634 20.3262 28.2199L20.5632 27.7459C20.9982 27.9641 21.3927 28.0729 21.7459 28.0729C22.0782 28.0729 22.3377 27.9994 22.5259 27.8531C22.7134 27.7061 22.8259 27.5006 22.8259 27.2396C22.8259 26.9111 22.5979 26.6306 22.1787 26.3959C21.7924 26.1836 21.0199 25.7389 21.0199 25.7389C20.6014 25.4329 20.3922 25.1051 20.3922 24.5636C20.3922 24.1159 20.5482 23.7551 20.8609 23.4799C21.1744 23.2039 21.5779 23.0666 22.0737 23.0666C22.5852 23.0666 23.0502 23.2039 23.4687 23.4754L23.2564 23.9501C22.9221 23.8027 22.5613 23.7249 22.1959 23.7214C21.9132 23.7214 21.6949 23.7889 21.5434 23.9261C21.4664 23.99 21.4044 24.07 21.3616 24.1604C21.3189 24.2509 21.2964 24.3496 21.2959 24.4496C21.2959 24.7766 21.5292 25.0609 21.9597 25.3001C22.3512 25.5131 23.1424 25.9654 23.1424 25.9654C23.5722 26.2706 23.7859 26.5954 23.7859 27.1324Z" fill="#F29209"/>
<path d="M33.1299 21.2896C32.5966 21.2761 32.1841 21.3301 31.8376 21.4771C31.7379 21.5169 31.5789 21.5169 31.5646 21.6436C31.6186 21.6969 31.6246 21.7831 31.6719 21.8574C31.7514 21.9909 31.8909 22.1701 32.0176 22.2639C32.1571 22.3711 32.2974 22.4776 32.4451 22.5714C32.7031 22.7311 32.9971 22.8249 33.2491 22.9846C33.3961 23.0776 33.5424 23.1984 33.6894 23.2989C33.7621 23.3514 33.8086 23.4384 33.9024 23.4714V23.4519C33.8551 23.3919 33.8424 23.3049 33.7959 23.2381L33.5956 23.0446C33.4006 22.7861 33.1671 22.559 32.9034 22.3711C32.6904 22.2241 32.2239 22.0239 32.1384 21.7779L32.1241 21.7636C32.2711 21.7501 32.4444 21.6969 32.5839 21.6564C32.8104 21.5964 33.0166 21.6099 33.2491 21.5499C33.3564 21.5229 33.4621 21.4899 33.5694 21.4561V21.3961C33.4494 21.2761 33.3631 21.1164 33.2364 21.0031C32.8974 20.7091 32.5239 20.4219 32.1376 20.1819C31.9306 20.0484 31.6651 19.9621 31.4446 19.8481C31.3659 19.8084 31.2316 19.7881 31.1851 19.7214C31.0659 19.5744 30.9991 19.3809 30.9121 19.2076C30.7155 18.8275 30.5336 18.44 30.3669 18.0459C30.2469 17.7856 30.1734 17.5261 30.0271 17.2854C29.3409 16.1514 28.5954 15.4636 27.4501 14.7894C27.2041 14.6491 26.9116 14.5891 26.5989 14.5156L26.0994 14.4894C25.9921 14.4429 25.8856 14.3154 25.7926 14.2554C25.4124 14.0154 24.4351 13.4949 24.1554 14.1819C23.9754 14.6169 24.4216 15.0436 24.5746 15.2634C24.6871 15.4164 24.8341 15.5904 24.9136 15.7644C24.9601 15.8769 24.9736 15.9976 25.0201 16.1176C25.1266 16.4116 25.2264 16.7386 25.3666 17.0124C25.4401 17.1519 25.5196 17.2989 25.6126 17.4249C25.6666 17.4999 25.7596 17.5321 25.7799 17.6529C25.6869 17.7856 25.6794 17.9859 25.6261 18.1531C25.3861 18.9069 25.4799 19.8406 25.8196 20.3956C25.9261 20.5621 26.1796 20.9296 26.5186 20.7886C26.8186 20.6686 26.7519 20.2884 26.8381 19.9546C26.8584 19.8744 26.8456 19.8211 26.8854 19.7686V19.7814C26.9776 19.9681 27.0714 20.1481 27.1576 20.3349C27.3646 20.6619 27.7239 21.0024 28.0239 21.2289C28.1829 21.3489 28.3089 21.5559 28.5091 21.6301V21.6099H28.4956C28.4559 21.5499 28.3966 21.5229 28.3434 21.4764C28.2172 21.3528 28.1013 21.2191 27.9969 21.0766C27.7152 20.693 27.4658 20.2866 27.2514 19.8616C27.1441 19.6546 27.0519 19.4274 26.9656 19.2211C26.9251 19.1409 26.9251 19.0209 26.8584 18.9804C26.7579 19.1274 26.6124 19.2541 26.5389 19.4334C26.4121 19.7214 26.3994 20.0746 26.3521 20.4421L26.3259 20.4556C26.1136 20.4016 26.0401 20.1819 25.9591 19.9951C25.7604 19.5211 25.7266 18.7599 25.8991 18.2131C25.9456 18.0729 26.1466 17.6326 26.0664 17.4991C26.0266 17.3716 25.8931 17.2989 25.8196 17.1991C25.7269 17.0642 25.6466 16.9211 25.5796 16.7716C25.4206 16.3981 25.3396 15.9841 25.1679 15.6106C25.0876 15.4366 24.9481 15.2566 24.8349 15.0961C24.7081 14.9161 24.5686 14.7894 24.4681 14.5756C24.4351 14.5029 24.3886 14.3821 24.4419 14.3026C24.4546 14.2494 24.4816 14.2291 24.5349 14.2156C24.6211 14.1429 24.8679 14.2351 24.9549 14.2756C25.2009 14.3754 25.4079 14.4691 25.6134 14.6094C25.7064 14.6769 25.8069 14.8029 25.9261 14.8366H26.0664C26.2794 14.8831 26.5186 14.8494 26.7189 14.9094C27.0714 15.0234 27.3909 15.1899 27.6774 15.3699C28.5597 15.9336 29.2766 16.7214 29.7549 17.6529C29.8336 17.8059 29.8674 17.9461 29.9409 18.1059C30.0811 18.4336 30.2544 18.7674 30.3931 19.0876C30.5334 19.4011 30.6669 19.7214 30.8664 19.9816C30.9661 20.1219 31.3659 20.1946 31.5459 20.2681C31.6786 20.3281 31.8856 20.3814 32.0049 20.4549C32.2314 20.5951 32.4571 20.7549 32.6701 20.9094C32.7766 20.9896 33.1104 21.1561 33.1299 21.2896ZM26.3379 15.4906C26.2461 15.4895 26.1545 15.5006 26.0656 15.5236V15.5371H26.0784C26.1324 15.6436 26.2254 15.7179 26.2914 15.8109C26.3454 15.9181 26.3919 16.0239 26.4444 16.1311L26.4571 16.1176C26.5509 16.0509 26.5981 15.9444 26.5981 15.7839C26.5576 15.7366 26.5509 15.6909 26.5171 15.6436C26.4781 15.5769 26.3919 15.5439 26.3379 15.4906Z" fill="#007690"/>
<path d="M33.7634 28.6631H33.9014V27.9858H33.6944L33.5256 28.4478L33.3419 27.9858H33.1424V28.6623H33.2729V28.1478H33.2804L33.4724 28.6631H33.5721L33.7634 28.1478V28.6631ZM32.6519 28.6631H32.7981V28.1006H32.9886V27.9858H32.4531V28.1006H32.6519V28.6631Z" fill="#F29209"/>
</g>
</svg>
