<svg width="44" height="44" viewBox="0 0 44 44" fill="none" xmlns="http://www.w3.org/2000/svg">
<circle cx="22" cy="22" r="22" fill="white"/>
<g clip-path="url(#clip0_815_2160)">
<mask id="mask0_815_2160" style="mask-type:luminance" maskUnits="userSpaceOnUse" x="10" y="10" width="24" height="24">
<path d="M10 10H34V34H10V10Z" fill="white"/>
</mask>
<g mask="url(#mask0_815_2160)">
<path d="M21.2157 10.0192C21.1639 10.0237 21.0004 10.0402 20.8527 10.0522C17.4477 10.3597 14.2579 12.1965 12.2374 15.0202C11.1208 16.5705 10.395 18.3674 10.1217 20.2582C10.0257 20.9167 10.0137 21.111 10.0137 22.0042C10.0137 22.8967 10.0257 23.0917 10.1217 23.7502C10.7727 28.2517 13.9767 32.0347 18.3214 33.4357C19.0999 33.6862 19.9197 33.858 20.8527 33.9607C21.2157 34.0005 22.7862 34.0005 23.1492 33.9607C24.7594 33.783 26.1229 33.384 27.4684 32.6977C27.6747 32.5927 27.7144 32.5642 27.6859 32.5402C27.6672 32.5267 26.7889 31.3477 25.7344 29.9227L23.8174 27.333L21.4152 23.778C20.0929 21.8235 19.0062 20.2252 18.9964 20.2252C18.9874 20.223 18.9777 21.8025 18.9732 23.7315C18.9657 27.1087 18.9634 27.2445 18.9214 27.324C18.8804 27.4174 18.8072 27.493 18.7152 27.537C18.6402 27.5745 18.5749 27.582 18.2202 27.582H17.8152L17.7072 27.5145C17.6403 27.4722 17.5861 27.4126 17.5504 27.342L17.5009 27.237L17.5062 22.5382L17.5137 17.8372L17.5857 17.7457C17.6346 17.6885 17.6933 17.6402 17.7589 17.6032C17.8549 17.556 17.8924 17.5515 18.2982 17.5515C18.7759 17.5515 18.8562 17.5702 18.9807 17.706C19.0152 17.7435 20.3157 19.7025 21.8719 22.0627C23.4282 24.423 25.5559 27.645 26.6014 29.2267L28.4989 32.1022L28.5957 32.0392C29.4462 31.4857 30.3462 30.6982 31.0587 29.8785C32.569 28.1496 33.5486 26.0218 33.8802 23.7502C33.9762 23.0917 33.9882 22.8967 33.9882 22.0042C33.9882 21.1117 33.9762 20.9167 33.8802 20.2582C33.2284 15.756 30.0252 11.9737 25.6804 10.5727C24.8683 10.3144 24.032 10.1393 23.1844 10.05C22.9594 10.0267 21.4107 10.0005 21.2157 10.02V10.0192ZM26.1229 17.2702C26.1788 17.2984 26.2285 17.3373 26.2692 17.3849C26.3099 17.4324 26.3407 17.4875 26.3599 17.547C26.3787 17.6077 26.3832 18.9105 26.3787 21.8475L26.3712 26.061L25.6287 24.9217L24.8832 23.7832V20.7202C24.8832 18.7402 24.8929 17.6265 24.9072 17.5725C24.9239 17.5102 24.953 17.4518 24.9928 17.4011C25.0327 17.3503 25.0824 17.3081 25.1389 17.277C25.2349 17.2282 25.2702 17.2237 25.6377 17.2237C25.9849 17.2237 26.0457 17.2282 26.1229 17.2702Z" fill="#222222"/>
<path d="M28.3831 32.154C28.3006 32.2057 28.2751 32.2402 28.3478 32.2005C28.3988 32.1705 28.4828 32.1067 28.4693 32.1045C28.439 32.118 28.4101 32.1346 28.3831 32.154ZM28.2211 32.259C28.1791 32.292 28.1791 32.2942 28.2301 32.2687C28.2586 32.2545 28.2826 32.2387 28.2826 32.2335C28.2826 32.2147 28.2698 32.2192 28.2211 32.259ZM28.1041 32.3295C28.0613 32.3625 28.0613 32.3647 28.1131 32.3392C28.1416 32.3242 28.1648 32.3085 28.1648 32.304C28.1648 32.2852 28.1528 32.2897 28.1041 32.3295ZM27.9863 32.4C27.9443 32.433 27.9443 32.4352 27.9961 32.409C28.0238 32.3955 28.0478 32.379 28.0478 32.3737C28.0478 32.3557 28.0358 32.3602 27.9863 32.4ZM27.8086 32.4937C27.7193 32.5402 27.7246 32.559 27.8131 32.5147C27.8392 32.5032 27.863 32.4872 27.8836 32.4675C27.8836 32.4517 27.8813 32.454 27.8086 32.4937Z" fill="#222222"/>
</g>
</g>
<defs>
<clipPath id="clip0_815_2160">
<rect width="24" height="24" fill="white" transform="translate(10 10)"/>
</clipPath>
</defs>
</svg>
