<svg width="44" height="44" viewBox="0 0 44 44" fill="none" xmlns="http://www.w3.org/2000/svg">
<circle cx="22" cy="22" r="22" fill="white"/>
<mask id="mask0_167_12571" style="mask-type:luminance" maskUnits="userSpaceOnUse" x="11" y="10" width="22" height="24">
<path d="M11.4414 10H32.6507V34H11.4414V10Z" fill="white"/>
</mask>
<g mask="url(#mask0_167_12571)">
<path d="M17.9702 31.7829C18.4787 31.5399 18.9272 31.3089 19.3922 31.1184C19.4994 31.0756 19.6757 31.1506 19.7927 31.2189C20.4174 31.5804 21.0362 31.9509 21.6497 32.3304C21.7523 32.4043 21.8751 32.445 22.0015 32.447C22.128 32.449 22.252 32.4122 22.3569 32.3416C25.1739 30.6991 27.9969 29.0686 30.8087 27.4201C30.8903 27.3622 30.9584 27.2872 31.0084 27.2005C31.0583 27.1138 31.089 27.0173 31.0982 26.9176C31.1154 23.6146 31.1154 20.3116 31.0982 17.0086C31.089 16.909 31.0583 16.8126 31.0083 16.726C30.9584 16.6394 30.8903 16.5646 30.8087 16.5069C27.9924 14.8629 25.1649 13.2399 22.3464 11.6026C22.2426 11.5329 22.12 11.4965 21.995 11.4982C21.87 11.5 21.7485 11.5398 21.6467 11.6124C18.8502 13.2364 16.0502 14.8544 13.2467 16.4664C13.1342 16.5215 13.0411 16.6096 12.9799 16.7189C12.9187 16.8283 12.8922 16.9536 12.9039 17.0784C12.9114 20.3409 12.9114 23.6034 12.9039 26.8674C12.9039 27.1149 12.9572 27.2949 13.1919 27.4306C13.9494 27.8581 14.6897 28.3051 15.4524 28.7251C15.8949 28.9696 16.3712 29.1091 16.8729 28.9051C17.3147 28.7251 17.5937 28.4079 17.6312 27.9144C17.6484 27.6744 17.6627 27.4344 17.6627 27.1936V18.2071C17.6627 17.5321 17.6732 17.5231 18.3234 17.5231C19.1792 17.5231 19.1792 17.5231 19.1792 18.3639C19.1792 21.6001 19.1934 24.8364 19.1657 28.0726C19.1507 29.7579 18.0062 30.6406 16.3637 30.4891C15.834 30.4331 15.3189 30.2814 14.8434 30.0414C13.9472 29.5959 13.0832 29.0784 12.2259 28.5624C11.7009 28.2421 11.4474 27.7374 11.4474 27.1134C11.4474 23.7429 11.4542 20.3731 11.4414 17.0034C11.4414 16.1941 11.7789 15.6384 12.4689 15.2409C15.0609 13.7439 17.6514 12.2424 20.2359 10.7379C20.4557 10.6104 20.6807 10.4934 20.8937 10.3554C21.6617 9.85735 22.4064 9.90535 23.1864 10.3629C25.9524 11.9851 28.7259 13.5939 31.5084 15.1899C32.3019 15.6444 32.6529 16.2864 32.6499 17.1871C32.6387 20.4091 32.6387 23.6319 32.6499 26.8546C32.6499 27.7111 32.2974 28.3224 31.5474 28.7521C28.7886 30.3364 26.0376 31.9342 23.2944 33.5454C22.4792 34.0239 21.6984 34.0681 20.8817 33.5641C20.0192 33.0286 19.1379 32.5231 18.2664 32.0019C18.1749 31.9411 18.0947 31.8744 17.9694 31.7836L17.9702 31.7829Z" fill="#8ABE3D"/>
<path d="M24.5599 17.2559C25.3594 17.2394 26.2174 17.3211 27.0327 17.6729C28.0339 18.1064 28.5477 18.9029 28.7112 19.9499C28.7839 20.4171 28.7022 20.4951 28.2402 20.4981H28.2004C27.6079 20.5746 27.1654 20.4981 27.0027 19.7691C26.8804 19.2216 26.3712 18.9576 25.8402 18.8339C24.9539 18.6199 24.0295 18.6199 23.1432 18.8339C22.9114 18.8954 22.6917 18.9959 22.4944 19.1324C22.1659 19.3529 22.0662 19.7001 22.0857 20.0804C22.1044 20.4599 22.3669 20.6976 22.7127 20.7734C23.4612 20.9406 24.2277 21.0636 24.9852 21.2099C25.8087 21.3704 26.6442 21.4859 27.4467 21.7139C28.2492 21.9419 28.9017 22.4196 29.0329 23.3339C29.1867 24.4041 28.9902 25.3611 28.0774 26.0616C27.3289 26.6406 26.4349 26.8364 25.5274 26.9046C24.5014 26.9826 23.4679 26.9579 22.4682 26.6594C21.3859 26.3384 20.5354 25.7481 20.2452 24.5759C20.1737 24.347 20.1378 24.1085 20.1387 23.8686C20.1561 23.7956 20.1914 23.728 20.2414 23.672C20.2914 23.6159 20.3546 23.5732 20.4252 23.5476C20.7448 23.5071 21.0681 23.5054 21.3882 23.5424C21.4947 23.5536 21.6747 23.6849 21.6897 23.7824C21.8629 24.8931 22.6047 25.3146 23.6149 25.4121C24.5344 25.5006 25.4562 25.5546 26.3569 25.2974C26.6269 25.2254 26.8767 25.0934 27.0889 24.9111C27.7242 24.3314 27.5764 23.4036 26.7619 23.1569C25.9654 22.9169 25.1217 22.8359 24.3012 22.6769C23.5182 22.5239 22.7209 22.4144 21.9604 22.1879C21.0244 21.9081 20.4972 21.2196 20.4447 20.2341C20.3952 19.3266 20.6922 18.5504 21.4609 18.0059C22.3759 17.3556 23.4139 17.2379 24.5599 17.2559Z" fill="#8ABE3D"/>
</g>
</svg>
