<svg width="44" height="44" viewBox="0 0 44 44" fill="none" xmlns="http://www.w3.org/2000/svg">
<circle cx="22" cy="22" r="22" fill="white"/>
<g clip-path="url(#clip0_815_2595)">
<path d="M14.2503 10.2397H29.7498C30.308 10.2393 30.8608 10.3488 31.3767 10.5622C31.8925 10.7756 32.3612 11.0886 32.756 11.4833C33.1507 11.8779 33.4638 12.3466 33.6773 12.8624C33.8907 13.3782 34.0004 13.931 34 14.4892V29.3895C34.0005 29.9478 33.8909 30.5007 33.6775 31.0166C33.4641 31.5325 33.151 32.0012 32.7562 32.396C32.3615 32.7907 31.8927 33.1038 31.3768 33.3172C30.8609 33.5306 30.308 33.6402 29.7498 33.6397H14.2503C13.692 33.6402 13.1391 33.5306 12.6232 33.3172C12.1073 33.1038 11.6385 32.7907 11.2438 32.396C10.849 32.0012 10.5359 31.5325 10.3225 31.0166C10.1091 30.5007 9.99951 29.9478 10 29.3895V14.4892C9.99961 13.931 10.1093 13.3782 10.3227 12.8624C10.5362 12.3466 10.8493 11.8779 11.244 11.4833C11.6388 11.0886 12.1075 10.7756 12.6233 10.5622C13.1392 10.3488 13.692 10.2393 14.2503 10.2397Z" fill="#222222"/>
<path d="M15.4023 26.6502V16.3602C15.4023 16.2904 15.4323 16.2499 15.5021 16.2499C15.6723 16.2499 15.8321 16.2499 16.0623 16.2402C16.3023 16.2304 16.5521 16.2304 16.8221 16.2199C17.0921 16.2102 17.3823 16.2102 17.6921 16.2004C18.0026 16.1899 18.3026 16.1899 18.6026 16.1899C19.4223 16.1899 20.1026 16.2904 20.6621 16.5004C21.1623 16.6699 21.6221 16.9504 22.0023 17.3202C22.3226 17.6404 22.5723 18.0304 22.7321 18.4602C22.8821 18.8802 22.9623 19.3099 22.9623 19.7599C22.9623 20.6202 22.7621 21.3304 22.3623 21.8899C21.9605 22.4493 21.3993 22.8746 20.7521 23.1102C20.0726 23.3599 19.3226 23.4499 18.5021 23.4499C18.2621 23.4499 18.1023 23.4499 18.0026 23.4402C17.9021 23.4304 17.7626 23.4304 17.5721 23.4304V26.6404C17.5742 26.6568 17.573 26.6734 17.5686 26.6893C17.5642 26.7052 17.5567 26.7201 17.5465 26.7331C17.5363 26.7461 17.5237 26.7569 17.5093 26.7649C17.4949 26.773 17.479 26.7781 17.4626 26.7799H15.5223C15.4421 26.7799 15.4023 26.7402 15.4023 26.6502ZM17.5826 18.1804V21.5404C17.7221 21.5502 17.8526 21.5599 17.9726 21.5599H18.5021C18.8921 21.5599 19.2821 21.4999 19.6526 21.3799C19.9721 21.2899 20.2526 21.1002 20.4723 20.8504C20.6823 20.5999 20.7821 20.2602 20.7821 19.8199C20.7916 19.5077 20.712 19.1991 20.5526 18.9304C20.3858 18.6707 20.1404 18.471 19.8521 18.3604C19.4768 18.2134 19.0752 18.1452 18.6723 18.1602C18.4121 18.1602 18.1826 18.1602 17.9921 18.1699C17.7926 18.1602 17.6523 18.1699 17.5826 18.1804ZM29.2023 20.9299C28.9004 20.771 28.577 20.6566 28.2423 20.5902C27.8748 20.507 27.4994 20.4635 27.1226 20.4604C26.9202 20.4534 26.7179 20.4769 26.5226 20.5302C26.3978 20.5561 26.2872 20.6275 26.2121 20.7304C26.1618 20.8116 26.1343 20.9049 26.1326 21.0004C26.1326 21.0904 26.1723 21.1804 26.2323 21.2599C26.3223 21.3702 26.4423 21.4602 26.5721 21.5299C26.8023 21.6499 27.0423 21.7602 27.2823 21.8599C27.8223 22.0399 28.3421 22.2904 28.8221 22.5904C29.1521 22.8004 29.4221 23.0802 29.6126 23.4199C29.7723 23.7402 29.8526 24.0904 29.8421 24.4504C29.8502 24.923 29.7142 25.3868 29.4521 25.7802C29.1733 26.1794 28.7842 26.4888 28.3323 26.6704C27.8426 26.8804 27.2426 26.9899 26.5226 26.9899C26.0659 26.9919 25.6102 26.9484 25.1621 26.8602C24.8094 26.7992 24.4664 26.6915 24.1421 26.5399C24.0723 26.5002 24.0221 26.4304 24.0326 26.3502V24.6102C24.0326 24.5802 24.0423 24.5404 24.0723 24.5202C24.1023 24.4999 24.1323 24.5104 24.1623 24.5299C24.5523 24.7602 24.9626 24.9199 25.4021 25.0204C25.7823 25.1202 26.1821 25.1704 26.5826 25.1704C26.9621 25.1704 27.2321 25.1202 27.4121 25.0302C27.4924 24.9931 27.5604 24.9339 27.6082 24.8595C27.6561 24.7851 27.6817 24.6986 27.6821 24.6102C27.6821 24.4699 27.6026 24.3402 27.4421 24.2104C27.2823 24.0799 26.9523 23.9299 26.4626 23.7402C25.9598 23.5631 25.4822 23.321 25.0421 23.0202C24.7289 22.7969 24.4693 22.5066 24.2823 22.1704C24.1227 21.8546 24.0436 21.5042 24.0521 21.1504C24.0521 20.7199 24.1721 20.3104 24.3926 19.9399C24.6423 19.5402 25.0121 19.2199 25.4426 19.0204C25.9121 18.7804 26.5023 18.6702 27.2126 18.6702C27.6221 18.6702 28.0421 18.7002 28.4523 18.7602C28.7523 18.7999 29.0426 18.8802 29.3126 18.9904C29.3523 19.0002 29.3921 19.0399 29.4123 19.0804C29.4221 19.1202 29.4326 19.1599 29.4326 19.2004V20.8302C29.4327 20.8496 29.4282 20.8688 29.4194 20.8861C29.4107 20.9034 29.398 20.9185 29.3823 20.9299C29.2923 20.9502 29.2421 20.9502 29.2023 20.9299Z" fill="#00A4F4"/>
</g>
<defs>
<clipPath id="clip0_815_2595">
<rect width="24" height="24" fill="white" transform="translate(10 10)"/>
</clipPath>
</defs>
</svg>
