<svg width="44" height="44" viewBox="0 0 44 44" fill="none" xmlns="http://www.w3.org/2000/svg">
<circle cx="22" cy="22" r="22" fill="white"/>
<mask id="mask0_167_12536" style="mask-type:luminance" maskUnits="userSpaceOnUse" x="10" y="16" width="24" height="12">
<path d="M10 16H34V28H10V16Z" fill="white"/>
</mask>
<g mask="url(#mask0_167_12536)">
<path d="M11.89 18.5125H15.4338C16.4732 18.52 17.2262 18.8185 17.6943 19.4065C18.1615 19.9937 18.3153 20.7962 18.157 21.814C18.0923 22.2886 17.9539 22.7501 17.7468 23.182C17.541 23.6338 17.2543 24.044 16.9008 24.3925C16.4605 24.8485 15.9887 25.138 15.4862 25.2603C14.9755 25.3841 14.4518 25.4461 13.9262 25.4447H12.34L11.8375 27.9437H10L11.89 18.5125ZM13.4373 20.0118L12.6438 23.9575C12.6962 23.9658 12.7495 23.9703 12.8028 23.9703H12.988C13.834 23.9793 14.539 23.8953 15.103 23.7205C15.667 23.536 16.0457 22.8955 16.24 21.8005C16.3982 20.8788 16.24 20.3485 15.7638 20.2083C15.2965 20.068 14.7108 20.002 14.0058 20.011C13.9045 20.0194 13.8029 20.0237 13.7013 20.0237H13.4237L13.4373 20.011V20.0118ZM20.2502 16H22.075L21.559 18.5125H23.1985C24.0977 18.5305 24.7675 18.715 25.2085 19.0652C25.657 19.4162 25.7898 20.0823 25.6045 21.0648L24.7188 25.4447H22.8678L23.7137 21.262C23.8022 20.8232 23.776 20.512 23.635 20.3282C23.4932 20.1437 23.1895 20.0515 22.7222 20.0515L21.2552 20.0388L20.1707 25.4455H18.3475L20.2502 16ZM27.5635 18.5125H31.1065C32.1467 18.52 32.9005 18.8185 33.367 19.4065C33.8342 19.9937 33.9888 20.7962 33.8298 21.814C33.7652 22.2885 33.6271 22.7501 33.4202 23.182C33.2145 23.6338 32.9278 24.044 32.5743 24.3925C32.1333 24.8485 31.6622 25.138 31.1597 25.2603C30.649 25.3841 30.1253 25.4461 29.5998 25.4447H28.0135L27.511 27.9437H25.6735L27.5635 18.5117V18.5125ZM29.1108 20.0118L28.3172 23.9583C28.3698 23.9665 28.423 23.971 28.4762 23.971H28.6608C29.5068 23.98 30.2125 23.896 30.7757 23.7213C31.3405 23.5367 31.7192 22.8962 31.9128 21.8012C32.0717 20.8795 31.9128 20.3493 31.4373 20.209C30.97 20.0688 30.3843 20.0027 29.6785 20.0118C29.5775 20.0202 29.4761 20.0244 29.3748 20.0245H29.0972L29.1108 20.0118Z" fill="#37689E"/>
</g>
</svg>
