<svg width="44" height="44" viewBox="0 0 44 44" fill="none" xmlns="http://www.w3.org/2000/svg">
<circle cx="22" cy="22" r="22" fill="white"/>
<path d="M23.0755 10C16.498 10 13 14.215 13 18.811C13 20.9425 14.191 23.6005 16.0975 24.4435C16.387 24.574 16.5445 24.5185 16.609 24.25C16.666 24.046 16.9165 23.0635 17.038 22.6C17.0596 22.5277 17.0615 22.451 17.0436 22.3777C17.0257 22.3044 16.9885 22.2372 16.936 22.183C16.303 21.451 15.8005 20.1175 15.8005 18.8665C15.8005 15.661 18.349 12.5485 22.6855 12.5485C26.4355 12.5485 29.059 14.9845 29.059 18.469C29.059 22.4065 26.9755 25.1305 24.268 25.1305C22.7695 25.1305 21.6535 23.9545 22.0075 22.4995C22.435 20.767 23.2735 18.904 23.2735 17.6545C23.2735 16.534 22.6405 15.607 21.3475 15.607C19.822 15.607 18.5845 17.1175 18.5845 19.1455C18.5845 20.434 19.0405 21.304 19.0405 21.304L17.251 28.5385C16.777 30.466 17.3155 33.5875 17.362 33.856C17.3905 34.0045 17.557 34.051 17.65 33.9295C17.7985 33.7345 19.6225 31.132 20.134 29.251C20.32 28.5655 21.0835 25.786 21.0835 25.786C21.586 26.6935 23.0365 27.454 24.5815 27.454C29.1775 27.454 32.4985 23.4145 32.4985 18.4015C32.482 13.5955 28.369 10 23.0755 10Z" fill="#D32F2F"/>
</svg>
