<svg width="44" height="44" viewBox="0 0 44 44" fill="none" xmlns="http://www.w3.org/2000/svg">
<circle cx="22" cy="22" r="22" fill="white"/>
<path d="M30.7563 21.5442C30.751 21.3192 30.7368 21.0882 30.727 20.8624C30.718 20.6322 30.7083 20.4019 30.6843 20.1717C30.6408 19.8597 30.6025 19.5379 30.5305 19.2304C30.478 18.9762 30.3865 18.7362 30.3003 18.4917C30.19 18.2082 30.0745 17.9157 29.935 17.6464C29.7048 17.2099 29.4025 16.8162 29.1243 16.4082C28.942 16.1487 28.7065 15.9327 28.5288 15.6687C28.4283 15.5157 28.279 15.3859 28.1305 15.2659C27.8926 15.0802 27.6474 14.9041 27.3955 14.7379C27.2085 14.6061 27.0148 14.4842 26.815 14.3727C26.6575 14.2864 26.4843 14.2152 26.3163 14.1379C26.1288 14.0517 25.9413 13.9407 25.7305 13.9024C25.678 13.8927 25.63 13.8739 25.5768 13.8544C25.4425 13.8064 25.3128 13.7539 25.174 13.7104C24.967 13.6429 24.766 13.5664 24.5545 13.5139C24.3453 13.4638 24.1338 13.4237 23.9208 13.3939C23.686 13.3602 23.4408 13.3459 23.206 13.3219C23.0523 13.3024 22.8985 13.2882 22.75 13.2784C22.5243 13.2687 22.294 13.2687 22.0675 13.2597C21.958 13.2544 21.838 13.2402 21.727 13.2499C21.5545 13.2544 21.3865 13.2739 21.214 13.2979C21.0505 13.3167 20.8825 13.3459 20.7243 13.3699C20.527 13.3939 20.335 13.4037 20.1385 13.4277C19.9563 13.4517 19.7635 13.4847 19.582 13.5139C19.5145 13.5237 19.4523 13.5477 19.3848 13.5619C19.2408 13.5904 19.0968 13.6047 18.9528 13.6482C18.6985 13.7247 18.4443 13.8162 18.1945 13.9077C17.9643 14.0037 17.7385 14.1042 17.5225 14.2197C17.2975 14.3442 17.086 14.4927 16.87 14.6322C16.4629 14.8974 16.0835 15.203 15.7375 15.5442C15.6408 15.6402 15.5643 15.7504 15.478 15.8562C15.3288 16.0287 15.1803 16.1922 15.0408 16.3699C14.9208 16.5184 14.8158 16.6722 14.7048 16.8259C14.503 17.0997 14.3305 17.3877 14.1723 17.6757C14.1078 17.7919 14.047 17.9102 13.99 18.0304C13.903 18.2082 13.807 18.3807 13.726 18.5629C13.6673 18.6918 13.6191 18.8252 13.582 18.9619C13.4995 19.2499 13.414 19.5469 13.3368 19.8357C13.2648 20.0944 13.2505 20.3682 13.2408 20.6322C13.2363 20.8677 13.2603 21.0972 13.2843 21.3372C13.2888 21.3957 13.255 21.4677 13.327 21.5157L13.3225 21.5442C13.3182 21.5516 13.3156 21.5598 13.315 21.5684C13.3144 21.5769 13.3158 21.5855 13.3191 21.5934C13.3224 21.6013 13.3274 21.6084 13.3339 21.614C13.3403 21.6197 13.348 21.6237 13.3563 21.6259L13.3608 21.6357H13.3323C13.3128 21.6882 13.375 21.7317 13.351 21.7887C13.3465 21.7984 13.3705 21.8224 13.3803 21.8412C13.3803 21.8607 13.375 21.8847 13.3803 21.8997C13.3848 21.9522 13.4088 22.0047 13.4088 22.0677C13.4088 22.1104 13.4425 22.1539 13.4568 22.1967C13.462 22.2162 13.4568 22.2447 13.447 22.2544C13.414 22.2979 13.4185 22.3317 13.471 22.3557C13.4808 22.3602 13.5003 22.3842 13.5003 22.3984C13.4985 22.4344 13.4919 22.4699 13.4808 22.5042C13.4905 22.5139 13.5003 22.5282 13.4905 22.5379C13.4905 22.5567 13.471 22.5717 13.4808 22.5859C13.5288 22.6819 13.5483 22.7877 13.5528 22.8934C13.5528 22.9167 13.5625 22.9407 13.5768 22.9699C13.582 22.9699 13.6008 22.9699 13.6105 22.9744L13.5768 23.0802C13.606 23.0607 13.6293 23.0562 13.6585 23.0464C13.678 23.1237 13.6923 23.1957 13.7163 23.2579C13.725 23.2715 13.7365 23.283 13.75 23.2917C13.7448 23.3007 13.7448 23.3247 13.7305 23.3344C13.7545 23.4402 13.7643 23.5407 13.807 23.6419L13.8265 23.6367C13.807 23.5317 13.798 23.4162 13.7785 23.3104V23.2767L13.798 23.2722C13.8025 23.2962 13.8168 23.3247 13.8168 23.3442C13.8648 23.3442 13.9368 23.3727 13.9803 23.3727C13.9848 23.3539 13.99 23.3299 13.999 23.3202C13.966 23.2864 13.9315 23.2339 13.8985 23.1957C13.9083 23.2437 13.8985 23.2632 13.8985 23.2767C13.8745 23.2677 13.846 23.2527 13.8168 23.2437C13.8408 23.2144 13.8648 23.1859 13.8985 23.1477C13.8985 23.0952 13.87 23.0464 13.7883 23.0517C13.822 23.0419 13.8603 23.0224 13.8985 23.0082C13.9021 23.0252 13.9087 23.0415 13.918 23.0562C13.966 22.9744 13.894 22.9077 13.894 22.8259C13.8985 22.7247 13.8415 22.6242 13.822 22.5184C13.7928 22.3504 13.798 22.1059 13.7785 21.9379C13.7785 21.9282 13.759 21.9139 13.75 21.9042L13.7065 21.9904C13.726 22.1344 13.7403 22.2739 13.7545 22.4179L13.7448 22.4224C13.7208 22.2979 13.6968 22.1682 13.6683 22.0242C13.663 22.0677 13.6585 22.0819 13.6585 22.1059C13.639 22.1007 13.6345 22.0962 13.606 22.0819C13.63 22.1344 13.654 22.1682 13.6735 22.2117C13.63 22.1922 13.5865 22.2019 13.5865 22.2019V22.3647C13.5288 22.3077 13.51 22.2597 13.4815 22.2162L13.4515 22.0722L13.471 22.0677C13.4665 22.0437 13.4523 22.0242 13.4523 22.0099C13.4472 21.9617 13.4407 21.9137 13.4328 21.8659C13.438 21.8607 13.462 21.8562 13.4763 21.8419L13.4283 21.7699C13.4763 21.7744 13.5048 21.7797 13.5333 21.7797C13.5333 21.7699 13.5385 21.7602 13.5333 21.7557C13.4763 21.7032 13.5145 21.6544 13.5385 21.6064C13.5483 21.5824 13.591 21.5779 13.606 21.5539C13.654 21.4677 13.7305 21.3957 13.7305 21.2802C13.7305 21.2277 13.75 21.1699 13.7545 21.1122C13.7643 21.0117 13.7785 20.9104 13.783 20.8099C13.7928 20.6802 13.783 20.5504 13.8123 20.4259C13.8962 20.0662 14.0068 19.7132 14.143 19.3699C14.23 19.1397 14.3155 18.9087 14.4265 18.6882C14.5848 18.3664 14.767 18.0597 14.9448 17.7477C15.055 17.5504 15.175 17.3682 15.3003 17.1807C15.4203 16.9984 15.535 16.8064 15.6745 16.6384C15.862 16.3939 16.0728 16.1734 16.303 15.9709C16.5385 15.7602 16.7643 15.5397 17.0185 15.3424C17.35 15.0882 17.7003 14.8624 18.07 14.6704C18.3723 14.5122 18.6843 14.3877 18.9963 14.2677C19.198 14.1904 19.414 14.1567 19.6248 14.0899C19.8603 14.0127 20.1003 13.9797 20.3448 13.9699C20.503 13.9647 20.6568 13.9459 20.8203 13.9264C20.9643 13.9167 21.103 13.9024 21.2568 13.8837C21.2441 13.8975 21.2344 13.9139 21.2283 13.9317C21.1608 14.0277 21.0933 14.1192 21.0265 14.2144C20.974 14.2917 20.9163 14.3727 20.8585 14.4499C20.7625 14.5744 20.662 14.6997 20.575 14.8287C20.4408 15.0259 20.3163 15.2277 20.1723 15.4197C20.0283 15.6072 19.8745 15.7842 19.7305 15.9717C19.534 16.2259 19.351 16.4847 19.1545 16.7397C18.9768 16.9842 18.79 17.2144 18.6168 17.4544C18.463 17.6659 18.3288 17.8917 18.1803 18.1122L17.5225 19.0819C17.35 19.3317 17.182 19.5717 17.0043 19.8207C16.9945 19.8402 16.975 19.8447 16.9563 19.8544C16.9465 19.8642 16.9225 19.8784 16.9225 19.8882C16.9128 19.9317 16.9128 19.9699 16.894 20.0082C16.846 20.0944 16.798 20.1859 16.7448 20.2677C16.7163 20.3157 16.6728 20.3539 16.6398 20.4019C16.6309 20.3965 16.6209 20.3931 16.6105 20.3922C16.6345 20.3344 16.735 20.2962 16.687 20.2099C16.6585 20.2579 16.63 20.2962 16.6008 20.3442L16.5288 20.4882C16.5528 20.5077 16.5963 20.5167 16.5528 20.5557C16.534 20.5842 16.519 20.6232 16.5003 20.6517L16.51 20.6562L16.5625 20.5887L16.582 20.5939C16.5625 20.6517 16.5295 20.7042 16.4995 20.7619C16.4763 20.8099 16.4185 20.8437 16.375 20.8819L16.4275 20.9104C16.447 20.8864 16.4523 20.9007 16.471 20.8767C16.4808 20.8962 16.5003 20.8677 16.5048 20.8819C16.5243 20.8579 16.5385 20.8384 16.5483 20.8242C16.5723 20.7664 16.606 20.7192 16.6683 20.6944C16.6915 20.6839 16.7115 20.6673 16.726 20.6464C16.903 20.4642 17.086 20.2864 17.2435 20.0899C17.494 19.7877 17.719 19.4749 17.9545 19.1682C18.055 19.0384 18.175 18.9087 18.2808 18.7842C18.2905 18.7887 18.3048 18.7887 18.31 18.7939C18.3003 18.9184 18.286 19.0482 18.2808 19.1727C18.262 19.3939 18.2523 19.6099 18.2328 19.8357C18.2283 19.9219 18.2328 20.0127 18.2283 20.0997C18.2283 20.1237 18.2088 20.1424 18.2088 20.1672C18.2088 20.2242 18.2283 20.2917 18.2283 20.3487C18.2088 20.5699 18.1848 20.7807 18.1705 21.0012C18.166 21.0499 18.19 21.0979 18.199 21.1362C18.1902 21.1274 18.1807 21.1194 18.1705 21.1122C18.1705 21.4527 18.238 21.7939 18.1803 22.1299C18.2043 22.1247 18.214 22.1202 18.214 22.1059C18.2185 22.0624 18.2328 22.0242 18.2328 21.9807C18.238 21.9477 18.2328 21.9087 18.2328 21.8704V21.8127C18.238 21.7077 18.262 21.5922 18.2523 21.4864C18.241 21.373 18.2443 21.2585 18.262 21.1459C18.271 21.0979 18.2568 21.0402 18.286 20.9824V21.0687C18.2808 21.4047 18.2905 21.7407 18.2425 22.0812C18.238 22.1112 18.262 22.1637 18.1945 22.1584C18.19 22.1584 18.1848 22.1877 18.1705 22.2064C18.142 22.2642 18.2043 22.3414 18.1465 22.4037C18.1368 22.4127 18.1563 22.4712 18.166 22.5042C18.166 22.5139 18.1705 22.5282 18.166 22.5327C18.142 22.5762 18.142 22.5762 18.175 22.5807C18.1803 22.7104 18.1945 22.8304 18.199 22.9557H18.2185C18.295 22.7299 18.247 22.4997 18.2905 22.2687C18.295 22.3647 18.3003 22.4562 18.295 22.5567C18.295 22.7104 18.2905 22.8597 18.286 23.0127C18.2852 23.0419 18.2819 23.071 18.2763 23.0997C18.2568 23.1807 18.2523 23.2677 18.2238 23.3442C18.199 23.4019 18.214 23.4927 18.214 23.5647V23.7904C18.214 23.7957 18.2328 23.8144 18.2328 23.8384C18.238 23.8909 18.2088 23.9442 18.2283 24.0064C18.2328 24.0162 18.223 24.0357 18.2185 24.0499C18.214 24.0687 18.2088 24.0837 18.214 24.1024L18.2328 24.1887C18.2328 24.1939 18.238 24.1984 18.2425 24.2127C18.247 24.1887 18.247 24.1699 18.247 24.1647C18.3483 24.1744 18.295 24.2659 18.343 24.3139C18.319 24.3237 18.3003 24.3327 18.3003 24.3379C18.3048 24.3619 18.319 24.3807 18.319 24.4054C18.319 24.4579 18.3145 24.5059 18.31 24.5584C18.31 24.6934 18.3048 24.8322 18.3048 24.9619C18.3048 24.9807 18.31 24.9957 18.31 25.0144C18.31 25.0242 18.3048 25.0384 18.3048 25.0579V25.1824H18.3288C18.3175 25.2021 18.303 25.2198 18.286 25.2349L18.262 25.2304V24.4864H18.175C18.166 24.8419 18.1945 25.1584 18.127 25.4899C18.055 25.4944 18.031 25.5087 17.9545 25.5087C17.7723 25.5087 17.59 25.5087 17.4025 25.5139C17.182 25.5139 16.9705 25.5184 16.75 25.5184C16.6443 25.5184 16.5288 25.5282 16.423 25.5282C16.279 25.5282 16.135 25.5087 15.991 25.5087C15.7705 25.5087 15.559 25.5282 15.3385 25.5327C15.1803 25.5379 15.0168 25.5379 14.8585 25.5424C14.7535 25.5477 14.647 25.5522 14.5368 25.5664C14.4888 25.5717 14.4505 25.5904 14.3883 25.6099C14.3688 25.6099 14.3305 25.6047 14.2923 25.6099C14.2345 25.6197 14.182 25.6579 14.1198 25.6677C14.0328 25.6864 14.0088 25.7104 14.0185 25.7967V25.8544C14.006 25.8422 13.9912 25.8325 13.975 25.8259L13.966 25.8304C13.9705 25.8499 13.9848 25.8597 13.99 25.8784C14.014 25.8687 14.0425 25.8357 14.0665 25.8357H14.1483C14.1385 25.8357 14.1288 25.8687 14.1145 25.9032C14.1625 25.8837 14.191 25.8732 14.2195 25.8597C14.2248 25.8784 14.2248 25.9024 14.2248 25.9077C14.3065 25.9024 14.383 25.8784 14.455 25.8979C14.686 25.9557 14.9208 25.9797 15.1608 26.0029C15.3145 26.0127 15.463 26.0224 15.6168 26.0277C15.838 26.0367 16.054 26.0517 16.2745 26.0517C16.4568 26.0517 16.6345 26.0322 16.8168 26.0322C17.0718 26.0322 17.326 26.0419 17.5803 26.0517C17.6328 26.0517 17.6905 26.0464 17.7528 26.0464H18.1848L19.3368 26.0179C19.558 26.0127 19.7785 25.9984 19.999 25.9939L20.671 25.9744C20.9305 25.9699 21.19 25.9699 21.4435 25.9647C21.6408 25.9647 21.8283 25.9602 22.0248 25.9557C22.246 25.9504 22.4665 25.9317 22.687 25.9219C22.807 25.9167 22.9225 25.9024 23.0425 25.8927C23.1865 25.8837 23.3305 25.8642 23.4745 25.8597L24.118 25.8304C24.382 25.8117 24.6505 25.7877 24.9243 25.7824C25.174 25.7727 25.4283 25.7779 25.6728 25.7727C25.894 25.7682 26.11 25.7539 26.335 25.7487L26.71 25.7299C26.71 25.7299 26.959 25.7247 27.0843 25.7104C27.295 25.7007 27.5118 25.6767 27.7225 25.6677C27.8575 25.6624 27.9963 25.6677 28.1305 25.6624C28.351 25.6579 28.5723 25.6437 28.7928 25.6437C28.8745 25.6437 28.9653 25.6527 29.071 25.6624C29.023 25.7059 28.9945 25.7299 28.9608 25.7584C28.9848 25.7637 29.0088 25.7779 29.0328 25.7877C29.0328 25.7922 29.0283 25.7967 29.0283 25.8117C28.999 25.8117 28.9705 25.8162 28.942 25.8162C28.9323 25.8447 28.918 25.8597 28.9083 25.9167H29.0133C28.9705 25.9167 28.9368 25.9692 28.8933 26.0037L28.9128 26.0127C28.8453 25.9887 28.8078 26.0037 28.783 26.0652C28.7987 26.0693 28.8149 26.071 28.831 26.0704C28.8262 26.0901 28.82 26.1094 28.8123 26.1282C28.8057 26.1417 28.8023 26.1566 28.8025 26.1717L28.783 26.1522C28.783 26.1424 28.783 26.1282 28.7785 26.1184C28.7448 26.1522 28.6923 26.1762 28.7208 26.2534C28.6922 26.2649 28.6648 26.2792 28.639 26.2962C28.6443 26.3059 28.6585 26.3202 28.663 26.3397C28.6105 26.3442 28.558 26.3584 28.567 26.4207C28.591 26.4259 28.615 26.4402 28.6345 26.4447C28.606 26.4544 28.5768 26.4739 28.5483 26.4882C28.543 26.4979 28.5385 26.5317 28.5243 26.5362C28.4425 26.5557 28.4905 26.5842 28.5145 26.6127C28.495 26.6224 28.4808 26.6367 28.462 26.6419C28.4785 26.6451 28.4935 26.6535 28.5048 26.6659C28.486 26.6757 28.4763 26.6847 28.462 26.6899C28.471 26.6944 28.4905 26.7087 28.495 26.7087L28.4088 26.7807C28.4088 26.7904 28.4088 26.8002 28.414 26.8099C28.3877 26.835 28.3636 26.8624 28.342 26.8917C28.318 26.9247 28.3083 26.9727 28.2745 27.0117C28.15 27.1459 28.063 27.3087 27.8995 27.4144C27.8425 27.4579 27.79 27.5104 27.7323 27.5637C27.6265 27.6642 27.5305 27.7744 27.4203 27.8712C27.271 27.9957 27.118 28.1059 26.959 28.2207C26.7625 28.3557 26.5705 28.4944 26.374 28.6242C26.2683 28.6962 26.1483 28.7487 26.038 28.8117C25.927 28.8792 25.8168 28.9362 25.7065 28.9992C25.6345 29.0464 25.5715 29.1087 25.495 29.1477C25.2985 29.2287 25.0923 29.3007 24.8905 29.3779C24.8738 29.3821 24.8577 29.3884 24.8425 29.3967C24.694 29.4642 24.5545 29.5317 24.406 29.5842C24.271 29.6322 24.127 29.6659 23.9883 29.6944C23.9403 29.7042 23.887 29.6944 23.8345 29.6997C23.734 29.7184 23.6328 29.7424 23.5323 29.7522C23.2728 29.7859 23.014 29.8099 22.75 29.8482C22.5963 29.8677 22.447 29.8962 22.294 29.9157C22.1883 29.9202 22.0728 29.9104 21.967 29.9104C21.8905 29.9104 21.8095 29.9299 21.7323 29.9157C21.607 29.8962 21.4825 29.8677 21.3573 29.8437C21.3288 29.8384 21.286 29.8242 21.262 29.8384C21.214 29.8624 21.175 29.8287 21.127 29.8384C21.0985 29.8437 21.07 29.8197 21.0408 29.8197C21.0168 29.8144 20.9883 29.8242 20.959 29.8197C20.8915 29.8002 20.8345 29.7762 20.7625 29.7859C20.6905 29.7904 20.6185 29.7567 20.542 29.7379L20.23 29.6659C20.1865 29.6562 20.1528 29.6367 20.11 29.6134C20.1003 29.6179 20.0808 29.6322 20.0575 29.6322C19.9563 29.6127 19.855 29.6082 19.759 29.5744C19.678 29.5459 19.6015 29.5024 19.51 29.5167C19.486 29.5219 19.4665 29.5122 19.4425 29.5122C19.423 29.4882 19.4088 29.4402 19.39 29.4402C19.27 29.4447 19.2025 29.3442 19.102 29.3157C19.0495 29.2962 19.006 29.2384 18.9528 29.2197C18.823 29.1672 18.718 29.0517 18.5688 29.0367C18.5208 29.0322 18.4728 29.0082 18.4203 28.9887C18.439 29.0127 18.4488 29.0322 18.4683 29.0464L18.4585 29.0562C18.3003 28.9602 18.1368 28.8687 17.9785 28.7779C17.9545 28.7727 17.935 28.7487 17.9208 28.7344L17.7625 28.6294C17.743 28.6197 17.71 28.6002 17.71 28.6047C17.6763 28.6482 17.638 28.6099 17.614 28.6002C17.455 28.4899 17.2728 28.4179 17.1145 28.2927C17.047 28.2402 16.9705 28.2064 16.927 28.1397C16.846 28.042 16.7446 27.9632 16.63 27.9087C16.5434 27.8605 16.4583 27.8095 16.375 27.7557C16.3323 27.7264 16.294 27.6882 16.294 27.6259C16.294 27.5824 16.2745 27.5442 16.222 27.5682C16.198 27.5344 16.174 27.4917 16.1448 27.4819C16.0728 27.4527 16.0248 27.4002 15.9723 27.3522C15.9198 27.3042 15.8763 27.2419 15.814 27.2172C15.694 27.1699 15.6265 27.0687 15.5545 26.9877C15.3865 26.7904 15.2425 26.5797 15.0895 26.3727C15.079 26.3539 15.055 26.3442 15.0363 26.3247L15.031 26.3299C15.0603 26.3877 15.0888 26.4402 15.118 26.5024L15.094 26.5219C15.0603 26.4784 15.0168 26.4402 14.983 26.3967L14.9643 26.4064L15.3918 27.0784L15.4923 27.2367C15.4851 27.2441 15.477 27.2506 15.4683 27.2562C15.436 27.2506 15.4054 27.2377 15.3788 27.2186C15.3522 27.1995 15.3302 27.1747 15.3145 27.1459C15.262 27.0499 15.2043 26.9922 15.0843 27.0019C15.0745 26.9584 15.0603 26.9157 15.055 26.8722C15.031 26.8722 15.0123 26.8722 14.974 26.8677C15.055 26.9967 15.127 27.1122 15.2043 27.2419C15.1858 27.2294 15.1665 27.2181 15.1465 27.2082C15.2515 27.3184 15.3288 27.4632 15.4683 27.5344C15.4968 27.6694 15.6505 27.7362 15.6888 27.8659C15.661 27.8617 15.6337 27.8552 15.607 27.8464L15.454 27.6642C15.4627 27.7029 15.4807 27.739 15.5065 27.7692C15.5785 27.8562 15.6415 27.9477 15.727 28.0242C15.7563 28.0527 15.799 28.0677 15.799 28.1202C15.8129 28.1075 15.8293 28.0978 15.847 28.0917C15.838 28.1157 15.8283 28.1247 15.823 28.1442C15.847 28.1442 15.8665 28.1487 15.8808 28.1487C15.8905 28.1824 15.8763 28.2357 15.9483 28.2259L15.967 28.2357C15.9963 28.3122 16.0443 28.3122 16.111 28.2837C16.1208 28.2784 16.1545 28.2837 16.159 28.2927C16.1883 28.3602 16.231 28.3647 16.2843 28.3167C16.2843 28.3459 16.2888 28.3744 16.2888 28.3992H16.3128C16.3128 28.3887 16.3083 28.3692 16.3083 28.3407C16.3368 28.3647 16.3563 28.3744 16.366 28.3887C16.423 28.4712 16.4763 28.5477 16.5625 28.6144C16.6728 28.7104 16.774 28.8117 16.8843 28.8979C17.0905 29.0704 17.3208 29.2099 17.5518 29.3397C17.8345 29.4972 18.1083 29.6704 18.3963 29.8242C18.7465 30.0064 19.1163 30.1317 19.5003 30.2224C19.6443 30.2517 19.7785 30.2802 19.918 30.3184C20.0425 30.3522 20.167 30.4047 20.2923 30.4384C20.4798 30.4819 20.6763 30.5157 20.8683 30.5487C20.911 30.5539 20.95 30.5584 20.998 30.5682V30.5779C21.0505 30.5779 21.118 30.5539 21.127 30.5727C21.1563 30.6207 21.1795 30.5967 21.214 30.5922C21.2568 30.5824 21.3003 30.5824 21.3483 30.5824C21.5163 30.5877 21.6745 30.6259 21.838 30.6117C21.871 30.6117 21.9243 30.5824 21.958 30.6402C21.967 30.6357 21.9768 30.6304 21.9865 30.6207C22.0105 30.6162 22.039 30.6162 22.063 30.6117V30.6207C22.054 30.6259 22.039 30.6259 22.015 30.6304C22.0384 30.6333 22.0612 30.6399 22.0825 30.6499C22.0728 30.6597 22.063 30.6597 22.054 30.6687C22.0443 30.6739 22.0248 30.6784 22.0015 30.6979C22.2115 30.7407 22.414 30.7459 22.591 30.6979V30.6642H22.615C22.615 30.6739 22.6203 30.6882 22.6248 30.6979C22.8985 30.7219 23.1625 30.6882 23.4168 30.5967C23.4408 30.6259 23.4603 30.6687 23.494 30.6064C23.503 30.5877 23.5368 30.5824 23.5615 30.5779C23.614 30.5682 23.6815 30.5442 23.7288 30.5584C23.7813 30.5779 23.8008 30.5299 23.839 30.5299C23.911 30.5299 23.974 30.5247 24.0415 30.5104C24.0745 30.5059 24.1128 30.4864 24.151 30.4767L24.1465 30.4579C24.1052 30.4525 24.0637 30.4492 24.022 30.4482C24.094 30.4144 24.1563 30.3807 24.223 30.3522L24.2283 30.3619C24.2088 30.3664 24.199 30.3904 24.1758 30.3904H24.2568C24.238 30.3904 24.214 30.4429 24.1848 30.4767C24.3963 30.4242 24.5928 30.3762 24.7803 30.3282V30.3184C24.7563 30.3237 24.7368 30.3237 24.7225 30.3282C24.718 30.2037 24.8523 30.2464 24.9003 30.1744C24.8425 30.1939 24.7803 30.2082 24.7225 30.2224V30.2127C24.9243 30.1264 25.1305 30.0357 25.3323 29.9487L25.3368 29.9584C25.303 29.9824 25.2648 30.0019 25.2123 30.0304C25.246 30.0357 25.27 30.0357 25.2888 30.0402C25.2888 30.0597 25.2888 30.0687 25.2843 30.0739C25.3848 30.0687 25.3608 29.9779 25.3893 29.9247C25.4088 29.9299 25.4328 29.9442 25.447 29.9344C25.4995 29.9247 25.5483 29.9059 25.6008 29.8864C25.6585 29.8677 25.7208 29.8527 25.7785 29.8287C25.8745 29.7859 25.9608 29.7327 26.0568 29.6847C26.0763 29.6802 26.1048 29.6847 26.1288 29.6847C26.1483 29.6847 26.158 29.6757 26.1723 29.6607C26.1963 29.6419 26.2203 29.6082 26.2398 29.6127C26.3208 29.6224 26.383 29.5939 26.407 29.5167L26.4168 29.5122C26.446 29.4882 26.4745 29.4642 26.503 29.4447C26.6328 29.3727 26.758 29.3007 26.887 29.2339C26.8923 29.2287 26.9065 29.2339 26.9163 29.2339C26.935 29.2339 26.959 29.2339 26.9688 29.2287C27.045 29.1934 27.1189 29.1533 27.19 29.1087C27.1705 29.1042 27.19 29.0997 27.1323 29.0899V29.0802C27.19 29.0704 27.2088 29.0607 27.2425 29.0517L27.2328 29.0419C27.3865 28.8882 27.583 28.7779 27.7278 28.6437C27.7563 28.6482 27.7705 28.6527 27.7848 28.6527C27.79 28.6339 27.79 28.6197 27.79 28.6047C27.814 28.5762 27.838 28.5372 27.8665 28.5184C27.9963 28.3984 28.1403 28.2979 28.255 28.1779C28.4275 28.0054 28.591 27.8277 28.7448 27.6454C28.8901 27.4829 29.0249 27.3113 29.1483 27.1317C29.3163 26.8767 29.4558 26.6179 29.6043 26.3487C29.7093 26.1612 29.806 25.9699 29.9118 25.7824C29.9208 25.7637 29.9448 25.7397 29.9643 25.7397C30.1225 25.7202 30.286 25.7104 30.439 25.6917C30.4784 25.6819 30.5159 25.6657 30.55 25.6437C30.5305 25.6144 30.5208 25.5762 30.502 25.5477C30.478 25.5139 30.4443 25.4802 30.4195 25.4464C30.396 25.4157 30.3768 25.3819 30.3625 25.3459L30.31 25.2642C30.2763 25.1967 30.238 25.1344 30.2088 25.0624C30.2043 25.0437 30.19 25.0144 30.199 24.9949C30.3048 24.7647 30.3483 24.5149 30.4488 24.2847C30.55 24.0499 30.5785 23.7807 30.6265 23.5272C30.67 23.2819 30.694 23.0419 30.7225 22.7967C30.742 22.6242 30.766 22.4607 30.7705 22.2882C30.7705 22.0527 30.7615 21.7984 30.7563 21.5442ZM15.886 28.1442C15.8425 28.0962 15.8088 28.0437 15.766 27.9957L15.7848 27.9762C15.8523 28.0482 15.9145 28.1202 15.982 28.1967C15.943 28.1779 15.9048 28.1682 15.886 28.1442ZM15.982 28.1967C16.0008 28.1922 16.015 28.1922 16.0345 28.1877C16.054 28.2162 16.063 28.2552 16.0825 28.2882C15.9963 28.2784 15.958 28.2447 15.982 28.1967ZM22.1305 30.6402V30.6207C22.2408 30.6117 22.351 30.5967 22.462 30.5877V30.6064C22.351 30.6214 22.246 30.6357 22.1305 30.6402ZM23.623 30.4864C23.542 30.5059 23.4505 30.5157 23.3688 30.5299C23.3403 30.5344 23.3013 30.5637 23.2923 30.5104C23.2825 30.5157 23.2683 30.5157 23.2585 30.5202C23.287 30.6064 23.359 30.5397 23.4168 30.5727C23.287 30.5922 23.1625 30.6019 23.038 30.6207V30.6117C23.071 30.6064 23.1145 30.6019 23.1483 30.5922V30.5727C23.0892 30.5673 23.0299 30.5643 22.9705 30.5637C22.951 30.5637 22.927 30.5877 22.9128 30.5922C22.8888 30.5967 22.8648 30.6019 22.8363 30.6019C22.735 30.6064 22.6345 30.6064 22.5385 30.6117L22.5145 30.6064V30.5922C22.9128 30.5397 23.302 30.4872 23.695 30.4339C23.7003 30.4437 23.7003 30.4579 23.7048 30.4677C23.6763 30.4677 23.6523 30.4819 23.623 30.4864ZM23.71 30.4287C23.8443 30.4099 23.9688 30.4002 24.0985 30.3807C23.83 30.4579 23.7385 30.4677 23.71 30.4287ZM18.5583 18.4864C18.7458 18.2277 18.9423 17.9682 19.1343 17.6989C19.192 17.6224 19.24 17.5414 19.3023 17.4642C19.3218 17.4402 19.3458 17.4304 19.3743 17.4064L19.36 17.3922C19.384 17.3637 19.408 17.3397 19.4178 17.3157C19.4463 17.2677 19.4658 17.2144 19.4898 17.1619C19.4943 17.1522 19.5138 17.1379 19.5138 17.1379C19.5955 17.1807 19.5955 17.0899 19.624 17.0607C19.6765 17.0037 19.7298 16.9362 19.7778 16.8784C19.8115 16.8304 19.8498 16.7922 19.8783 16.7344C19.8835 16.7157 19.8693 16.6864 19.8595 16.6624H19.84C19.8595 16.6527 19.8738 16.6339 19.8925 16.6197L19.9023 16.6144C19.936 16.5619 19.9743 16.5094 20.008 16.4607C20.08 16.3647 20.1573 16.2732 20.2383 16.1877C20.2293 16.2162 20.2143 16.2447 20.2053 16.2687L20.2143 16.2739C20.2863 16.1779 20.3635 16.0917 20.4355 15.9957L20.416 15.9859C20.3875 16.0144 20.3635 16.0437 20.3343 16.0722L20.3155 16.0624C20.3733 15.9859 20.4355 15.9087 20.4933 15.8179C20.5023 15.8367 20.5173 15.8607 20.5413 15.9042C20.5653 15.8464 20.5893 15.8037 20.6088 15.7602C20.5893 15.7797 20.5653 15.7939 20.5503 15.8127L20.5315 15.7939L20.6365 15.6357C20.7475 15.4767 20.8623 15.3087 20.9733 15.1504C21.016 15.0927 21.0693 15.0454 21.1023 14.9877C21.2133 14.7619 21.3903 14.5842 21.5298 14.3779C21.5583 14.3344 21.6018 14.3007 21.6348 14.2677C21.6648 14.2339 21.688 14.2437 21.712 14.2722L22.192 14.8819C22.312 15.0304 22.4275 15.1699 22.5423 15.3237C22.6773 15.5112 22.8063 15.7024 22.9458 15.8899C23.0995 16.1104 23.2533 16.3264 23.4018 16.5522C23.6268 16.8837 23.8383 17.2144 24.064 17.5459C24.232 17.7904 24.3955 18.0259 24.5538 18.2659H24.2515C23.9733 18.2607 23.6898 18.2367 23.4115 18.2464C23.032 18.2659 22.648 18.3042 22.2693 18.3327C21.7893 18.3762 21.304 18.3807 20.824 18.3807C20.6515 18.3807 20.4835 18.4047 20.3103 18.4144C20.104 18.4242 19.9023 18.4384 19.696 18.4437C19.4515 18.4527 19.216 18.4624 18.976 18.4677C18.8463 18.4917 18.7075 18.4864 18.5583 18.4864ZM25.3413 21.2082V21.2607C25.336 21.2607 25.3315 21.2659 25.3173 21.2659C25.2933 21.1842 25.2693 21.0934 25.24 21.0109C25.187 20.8361 25.1095 20.6697 25.0098 20.5167C24.8898 20.3487 24.7848 20.1807 24.6693 20.0082C24.64 19.9647 24.5973 19.9317 24.5635 19.8979C24.4383 19.7629 24.3138 19.6197 24.1555 19.5184C23.9208 19.3704 23.6733 19.2437 23.416 19.1397C23.344 19.1104 23.2818 19.0722 23.2098 19.0339H23.3538L24.3663 19.0144C24.5875 19.0099 24.7983 19.0099 25.0188 18.9957C25.072 18.9957 25.1013 19.0144 25.1298 19.0632C25.1823 19.1487 25.2348 19.2402 25.2933 19.3264C25.2978 19.3362 25.312 19.3557 25.312 19.3744C25.312 19.5042 25.312 19.6384 25.3173 19.7727C25.3218 19.9077 25.336 20.0367 25.3413 20.1762C25.3413 20.3112 25.3315 20.4544 25.336 20.5939C25.336 20.7904 25.3413 21.0019 25.3413 21.2082ZM18.976 19.2259C19.2543 19.2162 19.5183 19.1967 19.792 19.1824L20.4355 19.1539C20.5218 19.1487 20.608 19.1442 20.6943 19.1539C20.6002 19.1994 20.509 19.2508 20.4213 19.3077C20.3155 19.3797 20.2143 19.4704 20.1093 19.5522C20.0035 19.6287 19.9068 19.7247 19.8213 19.8259C19.7103 19.9602 19.5858 20.0802 19.4658 20.2099C19.384 20.3059 19.288 20.3922 19.216 20.4927C19.1155 20.6224 19.0285 20.7664 18.9333 20.9104C18.9663 20.3487 19.0008 19.7922 18.976 19.2259ZM22.84 24.9139C22.6525 24.9619 22.456 25.0144 22.2595 25.0384C22.0915 25.0624 21.9235 25.0579 21.7503 25.0579C21.5973 25.0579 21.448 25.0527 21.2943 25.0384C21.1218 25.0197 20.9538 25.0047 20.7858 24.9282C20.6418 24.8607 20.4978 24.8037 20.3538 24.7317C20.2098 24.6597 20.0703 24.5779 19.9653 24.4482C19.888 24.3522 19.7823 24.2757 19.6863 24.1932C19.7037 24.2651 19.7487 24.3273 19.8115 24.3664C19.7823 24.4002 19.7395 24.3859 19.6818 24.2899C19.6623 24.2997 19.648 24.3087 19.6338 24.3139C19.6533 24.2704 19.6675 24.2314 19.6863 24.1932L19.6098 24.0447C19.5612 23.9685 19.5161 23.8902 19.4748 23.8099C19.4658 23.7904 19.4658 23.7762 19.4515 23.7574C19.4228 23.7233 19.3955 23.6881 19.3698 23.6517C19.3218 23.5797 19.2835 23.5024 19.2213 23.4304C19.2213 23.4499 19.2258 23.4642 19.2258 23.4882L19.216 23.4927L19.0915 23.1904L19.0818 23.1957L19.1868 23.5842L19.168 23.5887C19.1493 23.565 19.1332 23.5393 19.12 23.5122C19.1103 23.4642 19.072 23.4642 19.0435 23.4837C19.024 23.4927 19.0143 23.5362 19.0195 23.5557C19.0623 23.6562 19.1058 23.7567 19.1538 23.8579C19.1635 23.8917 19.1778 23.9254 19.1973 23.9584C19.2018 23.9682 19.2213 23.9824 19.2213 24.0019C19.2453 24.0499 19.264 24.0979 19.2933 24.1362C19.3466 24.2087 19.4027 24.2793 19.4613 24.3477C19.5138 24.4197 19.5618 24.4962 19.6098 24.5682C19.6143 24.5779 19.6338 24.5779 19.6383 24.5877C19.6675 24.6739 19.768 24.7407 19.8408 24.7077C19.8595 24.8419 20.0035 24.8899 20.0658 25.0197C20.0072 24.9964 19.9497 24.9706 19.8933 24.9424C19.888 24.9477 19.888 24.9522 19.8835 24.9664C19.9555 25.0002 20.0275 25.0384 20.0898 25.0767C20.1475 25.1104 20.2098 25.1487 20.2623 25.1877C20.3343 25.2552 20.416 25.2882 20.5173 25.3122C20.512 25.2927 20.5075 25.2882 20.5075 25.2882C20.6703 25.3647 20.8435 25.4464 20.9725 25.5132C20.3583 25.5237 19.7013 25.5379 19.0195 25.5477C19.0195 25.4367 19.0143 25.3264 19.0143 25.2162C19.0143 25.1682 19.024 25.1299 19.0195 25.0812C19 24.8082 19 24.5397 18.967 24.2712C18.9381 23.9904 18.9283 23.708 18.9378 23.4259C18.9423 23.2722 18.9333 23.1139 18.928 22.9602C18.928 22.7539 18.928 22.5522 18.9333 22.3452C18.9333 22.3167 18.9423 22.2927 18.9573 22.2642H18.976C18.9813 22.2739 18.976 22.2927 18.9858 22.2979C19.0053 22.3167 19.0338 22.3459 19.0435 22.3407C19.0773 22.3167 19.1298 22.2927 19.144 22.2597C19.1723 22.1893 19.1871 22.1142 19.1875 22.0384C19.1875 21.9859 19.2115 21.9522 19.2355 21.9139C19.2453 21.8944 19.2543 21.8802 19.264 21.8562C19.24 21.8367 19.216 21.8277 19.1875 21.8037C19.2115 21.7362 19.2063 21.6597 19.2925 21.6259C19.3023 21.6207 19.3023 21.5922 19.312 21.5734C19.3173 21.5247 19.3218 21.4722 19.3315 21.4242C19.3413 21.4437 19.3503 21.4482 19.36 21.4579L19.3698 21.4384C19.3698 21.4144 19.3653 21.3664 19.3698 21.3664C19.4418 21.3567 19.4133 21.2802 19.4463 21.2419C19.4515 21.2367 19.4418 21.2179 19.4418 21.2082C19.4418 21.1984 19.4418 21.1797 19.4463 21.1797C19.5288 21.1602 19.5183 21.0739 19.5715 21.0304C19.5903 21.0207 19.5955 21.0019 19.6195 20.9727C19.6675 21.0552 19.5858 21.0979 19.576 21.1557C19.6773 21.0979 19.7058 20.9532 19.648 20.9104C19.6729 20.8904 19.6955 20.8678 19.7155 20.8429C19.783 20.7717 19.8498 20.7087 19.912 20.6367C19.9555 20.5842 19.9795 20.5167 20.0178 20.4642C20.0418 20.4357 20.0898 20.4117 20.1228 20.3922C20.2313 20.3407 20.3255 20.2634 20.3973 20.1672C20.4115 20.1534 20.4277 20.1418 20.4453 20.1327C20.464 20.1237 20.4978 20.1237 20.5023 20.1042C20.5075 20.0944 20.4933 20.0607 20.4783 20.0464C20.5023 20.0367 20.5263 20.0127 20.5743 19.9887C20.5555 20.0224 20.5503 20.0464 20.5413 20.0712L20.5698 20.0997C20.6223 20.0562 20.7048 20.0127 20.7573 19.9744L20.728 19.9459C20.6815 19.9728 20.6334 19.9968 20.584 20.0179C20.5938 19.9984 20.5938 19.9887 20.6035 19.9842C20.6853 19.9317 20.7715 19.8792 20.8578 19.8357C21.064 19.7397 21.2703 19.6482 21.4773 19.5567C21.5103 19.5379 21.5583 19.5522 21.6018 19.5522C21.6213 19.5522 21.6303 19.5522 21.6498 19.5477C21.7458 19.5184 21.8373 19.4899 21.9333 19.4652C21.976 19.4562 22.0195 19.4464 22.0623 19.4464C22.24 19.4517 22.4178 19.4517 22.5948 19.4659C22.672 19.4704 22.7448 19.4899 22.816 19.5139C22.9023 19.5424 22.9983 19.5859 23.08 19.6242C23.1813 19.6767 23.2773 19.7344 23.368 19.8019C23.5405 19.9122 23.6995 20.0367 23.872 20.1379C24.04 20.2384 24.1698 20.3727 24.2755 20.5264C24.4053 20.7087 24.5538 20.8767 24.6115 21.1024L24.6978 21.4917C24.7173 21.5637 24.7555 21.6357 24.7413 21.7167C24.712 21.8659 24.6888 22.0197 24.664 22.1682C24.6543 22.2259 24.64 22.2882 24.6453 22.3459C24.6543 22.5282 24.5875 22.6864 24.5155 22.8544C24.4915 22.9069 24.4578 22.9602 24.4293 23.0224L24.4773 23.0464L24.5298 22.9414L24.5395 22.9459C24.5103 23.0277 24.487 23.1184 24.4578 23.2002C24.3858 23.3824 24.3138 23.5752 24.2275 23.7522C24.1795 23.8527 24.0978 23.9344 24.04 24.0304C23.9823 24.1122 23.935 24.2029 23.872 24.2802C23.8195 24.3477 23.767 24.4099 23.6943 24.4579C23.5368 24.5779 23.368 24.6927 23.2 24.7887C23.0857 24.8453 22.9648 24.8873 22.84 24.9139ZM19.6863 24.6019L19.6818 24.6064C19.672 24.6019 19.6533 24.5967 19.6383 24.5824L19.4943 24.3717C19.4853 24.3522 19.4755 24.3379 19.4853 24.3139C19.5528 24.4099 19.6143 24.5059 19.6863 24.6019ZM23.3688 25.4127C23.632 25.3024 23.8533 25.1397 24.0543 24.9567C24.0835 24.9282 24.112 24.8997 24.1503 24.8757C24.4 24.7219 24.5823 24.5104 24.7458 24.2704C24.9333 23.9967 25.0578 23.6899 25.2108 23.4019C25.2213 23.3779 25.2355 23.3539 25.2453 23.3344C25.2355 24.0064 25.3128 24.6694 25.3983 25.3407L23.3688 25.4127ZM29.3635 25.2357C29.3583 25.2447 29.344 25.2597 29.3395 25.2687C29.3343 25.2597 29.3343 25.2402 29.3298 25.2162C29.296 25.3122 29.2195 25.2642 29.1618 25.2642C28.84 25.2687 28.5183 25.2687 28.1973 25.2687C27.8898 25.2687 27.5778 25.2687 27.2703 25.2739C27.1698 25.2739 27.064 25.2979 26.9628 25.3024C26.7183 25.3122 26.4783 25.3219 26.2338 25.3264C26.2143 25.3264 26.2 25.2979 26.1663 25.2739C26.1618 25.2837 26.1475 25.3024 26.1333 25.3264C26.128 25.3167 26.1138 25.3024 26.104 25.2837C26.1007 25.3007 26.0944 25.3169 26.0853 25.3317H26.0658C26.056 25.2492 26.032 25.1727 26.032 25.0864C26.032 24.9087 26.0515 24.7317 26.056 24.5539C26.0613 24.4722 26.056 24.3957 26.056 24.3184C26.08 24.3379 26.0995 24.3477 26.1235 24.3664C26.1333 24.3424 26.1475 24.3237 26.1573 24.3087C26.1573 24.3087 26.1475 24.3042 26.1333 24.2899C26.1423 24.2847 26.1573 24.2704 26.1573 24.2659C26.1618 24.2464 26.176 24.2322 26.176 24.2179C26.176 24.1744 26.1663 24.1407 26.1573 24.1077L26.176 24.1024L26.2098 24.2802H26.2293C26.2053 24.2367 26.2818 24.2037 26.2195 24.1557C26.2143 24.1504 26.224 24.1122 26.224 24.0979C26.2053 24.0642 26.1955 24.0259 26.176 23.9779C26.1813 23.9727 26.2 23.9682 26.2195 23.9584C26.1955 23.9487 26.176 23.9344 26.1618 23.9299C26.2195 23.8774 26.2195 23.8482 26.1663 23.7859C26.176 23.7807 26.1903 23.7807 26.1903 23.7762C26.1903 23.7237 26.1903 23.6712 26.1813 23.6179C26.1715 23.5602 26.2 23.4882 26.1093 23.4544C26.1133 23.4721 26.1215 23.4886 26.1333 23.5024C26.1333 23.5024 26.1138 23.5077 26.0995 23.5219C26.0223 23.4499 26.0703 23.3539 26.0515 23.2482C26.0943 23.2579 26.1235 23.2722 26.152 23.2819C26.1423 23.2384 26.1093 23.1957 26.0943 23.1379H26.0703V22.7487C26.0703 22.7539 26.1138 22.7539 26.1378 22.7584L26.1423 22.7397C26.1235 22.7157 26.0995 22.6917 26.0748 22.6624L26.0853 22.6527C26.0373 22.5957 26.0613 22.5087 26.0613 22.4952V22.0819C26.1183 22.1397 26.032 22.2162 26.1183 22.2544V22.1922H26.1138C26.1093 22.1059 26.1093 22.0144 26.104 21.9282H26.0943C26.0898 21.9379 26.0898 21.9477 26.0853 21.9567H26.0755C26.0853 21.4917 26.0995 21.0207 26.1093 20.5459C26.1663 20.6224 26.2338 20.6944 26.2773 20.7709C26.4115 21.0207 26.5893 21.2322 26.7573 21.4579C26.9013 21.6544 27.0303 21.8659 27.16 22.0677C27.3183 22.3122 27.472 22.5522 27.6355 22.7967C27.7555 22.9797 27.88 23.1619 28 23.3397C28.1103 23.4972 28.2303 23.6517 28.3503 23.8047L28.6578 24.2127C28.7778 24.3807 28.8933 24.5442 29.0133 24.7024C29.0703 24.7842 29.1378 24.8704 29.2008 24.9522C29.2338 25.0002 29.2863 25.0339 29.3253 25.0624C29.32 25.0624 29.3155 25.0624 29.3013 25.0579C29.32 25.0819 29.3298 25.1007 29.344 25.1104C29.392 25.1442 29.3965 25.1824 29.3635 25.2357ZM29.6658 23.7567V23.7139C29.6658 23.7282 29.6703 23.7424 29.6658 23.7567ZM29.8675 21.1459L29.8195 21.1024C29.8143 21.1219 29.8195 21.1362 29.8098 21.1602C29.8053 21.1407 29.7618 21.1504 29.7618 21.1317C29.7573 21.2127 29.7955 21.2997 29.7903 21.3807C29.8098 21.3717 29.8773 21.3619 29.896 21.3477L29.92 21.3567C29.8 21.4437 29.8338 21.5344 29.8863 21.6357C29.896 21.6597 29.9343 21.7077 29.896 21.7557C29.8863 21.7647 29.9013 21.8037 29.9058 21.8322H29.9253V21.8419L29.8728 21.8607C29.8623 21.8419 29.7903 21.8082 29.7903 21.7797V22.0819C29.848 22.1007 29.848 22.1824 29.8728 22.2259C29.8818 22.2064 29.8915 22.1967 29.896 22.1779L29.9013 22.1824C29.896 22.2162 29.8915 22.2544 29.8773 22.2882C29.8675 22.3407 29.8533 22.3887 29.848 22.4419L29.8578 22.4659C29.7903 22.6144 29.8293 22.7779 29.8053 22.9309C29.7858 23.0419 29.8053 23.1619 29.7955 23.2819C29.7833 23.3856 29.764 23.4883 29.7378 23.5894C29.7333 23.6082 29.7183 23.6127 29.6898 23.6224C29.698 23.5618 29.6965 23.5003 29.6853 23.4402L29.5983 23.3967C29.5983 23.4792 29.6463 23.5939 29.6658 23.6847C29.6463 23.6802 29.5795 23.6367 29.5698 23.6367C29.56 23.7087 29.56 23.8047 29.5503 23.8819C29.5458 23.9397 29.4933 23.9922 29.4828 24.0597C29.4828 24.0927 29.5263 24.1167 29.5173 24.1797H29.5653C29.5653 24.0597 29.6178 23.9539 29.6178 23.8287H29.6373C29.6418 23.8384 29.6613 23.8527 29.656 23.8579C29.6463 23.9254 29.6223 23.9922 29.6275 24.0597C29.6275 24.0927 29.656 24.1317 29.6463 24.1699C29.6342 24.2105 29.6261 24.2522 29.6223 24.2944C29.6178 24.2659 29.6133 24.2517 29.6133 24.2367L29.5458 24.2322C29.5413 24.2659 29.5893 24.3042 29.5795 24.3327C29.5743 24.3379 29.5698 24.3379 29.5555 24.3424L29.3583 24.0597C29.2053 23.8339 29.0508 23.6082 28.8978 23.3772C28.8576 23.3214 28.8224 23.2622 28.7928 23.2002C28.6098 22.8882 28.408 22.5852 28.1823 22.2927C28.0098 22.0722 27.8748 21.8367 27.7173 21.6064C27.568 21.3859 27.4195 21.1744 27.2748 20.9539C27.2223 20.8819 27.1548 20.8189 27.1075 20.7424C26.9538 20.4979 26.8195 20.2527 26.6658 20.0082C26.536 19.8064 26.392 19.6099 26.2578 19.4179C26.2098 19.3504 26.1618 19.2829 26.1138 19.2117C26.1072 19.1981 26.1038 19.1832 26.104 19.1682C26.0943 19.0384 26.08 18.9087 26.0755 18.7842C26.0755 18.6642 26.0853 18.5487 26.0853 18.4242V18.3192C26.0853 18.2892 26.0898 18.2659 26.0898 18.2367L26.1093 18.2127C25.9368 18.2127 25.7583 18.2082 25.5903 18.2127C25.48 18.2179 25.4178 18.1699 25.3413 18.0882C25.1155 17.8332 24.952 17.5459 24.7555 17.2722C24.5733 17.0127 24.3805 16.7584 24.1938 16.5042C24.04 16.2979 23.8863 16.0962 23.7333 15.8892C23.5608 15.6544 23.3973 15.4144 23.2195 15.1797C23.008 14.8962 22.7875 14.6127 22.567 14.3299C22.4658 14.2002 22.3555 14.0749 22.24 13.9407C22.3173 13.9504 22.3893 13.9647 22.4613 13.9699L22.744 13.9887C22.9555 14.0082 23.1715 14.0179 23.3823 14.0464C23.56 14.0704 23.7378 14.1042 23.92 14.1327C24.3093 14.2002 24.6925 14.3052 25.0675 14.4304C25.288 14.5024 25.4995 14.5984 25.7103 14.6854C26.1903 14.8819 26.6463 15.1167 27.0933 15.3664C27.2373 15.4437 27.3183 15.5682 27.424 15.6784C27.5778 15.8367 27.7315 16.0002 27.88 16.1637C28.0525 16.3602 28.2115 16.5612 28.375 16.7584C28.5235 16.9362 28.6773 17.1139 28.8258 17.2909C28.8738 17.3442 28.9075 17.4109 28.9503 17.4687C29.0463 17.6127 29.1528 17.7477 29.2338 17.9007C29.2915 18.0117 29.3298 18.1459 29.3688 18.2659C29.4258 18.4482 29.4888 18.6259 29.5458 18.8082C29.5893 18.9432 29.6223 19.0864 29.6508 19.2259C29.6755 19.3219 29.6703 19.4224 29.6995 19.5139C29.7333 19.6384 29.6995 19.7727 29.7333 19.8979C29.7378 19.9077 29.7423 19.9264 29.752 19.9407C29.776 19.9647 29.7955 19.9887 29.7573 20.0232C29.752 20.0277 29.752 20.0517 29.7573 20.0704C29.7689 20.0577 29.7785 20.0433 29.7858 20.0277C29.7858 20.0367 29.7903 20.0464 29.7903 20.0517C29.7903 20.0757 29.7858 20.0997 29.7903 20.1237C29.7903 20.1327 29.8 20.1522 29.8098 20.1664C29.8244 20.1534 29.8405 20.142 29.8578 20.1327C29.9103 20.3352 29.9155 20.5362 29.9155 20.7424C29.9155 20.9397 29.9493 21.1317 29.8675 21.3237C29.8915 21.2659 29.848 21.2082 29.8675 21.1459Z" fill="#222222"/>
<path d="M26.1049 23.4692L26.1147 23.4744L26.1102 23.4692H26.1049ZM27.0409 29.3117C26.9785 29.3606 26.9068 29.3964 26.8302 29.4167L26.8204 29.3972C26.8879 29.3544 26.9554 29.3162 27.0222 29.2727C27.0222 29.2877 27.0364 29.2974 27.0409 29.3117ZM15.9529 21.2942C16.0204 21.2124 16.0827 21.1262 16.1554 21.0444L16.2124 21.0684C16.1449 21.1509 16.0587 21.2657 15.9919 21.3519C15.9822 21.3422 15.9627 21.3039 15.9529 21.2942ZM14.2729 24.1937L14.1289 23.8862L14.1814 23.8622C14.2489 23.9582 14.2782 24.0684 14.3262 24.1697L14.2729 24.1937ZM15.7804 21.3564C15.7467 21.4089 15.7084 21.4674 15.6754 21.5244L15.5982 21.5439C15.6319 21.4914 15.7227 21.3954 15.7564 21.3422C15.7609 21.3422 15.7714 21.3474 15.7804 21.3572V21.3564ZM26.4079 29.5502L26.4169 29.5457C26.4604 29.5502 26.5039 29.5554 26.5519 29.5554C26.4799 29.6124 26.4319 29.6079 26.4079 29.5502ZM15.7954 21.6032C15.7999 21.5837 15.8142 21.5694 15.8239 21.5507C15.8329 21.5507 15.8524 21.5454 15.8524 21.5454C15.8764 21.5019 15.8764 21.4734 15.9004 21.4404L15.8809 21.4299L15.7759 21.5072C15.7849 21.5169 15.7849 21.5259 15.7849 21.5357C15.7369 21.5312 15.7174 21.5552 15.6987 21.6174C15.6942 21.6369 15.6649 21.6414 15.6312 21.6654C15.6267 21.6752 15.6222 21.7089 15.6079 21.7374L15.6124 21.7419C15.6038 21.7496 15.5942 21.7562 15.5839 21.7614C15.5502 21.7952 15.5067 21.8289 15.4729 21.8619C15.4684 21.8814 15.4639 21.8957 15.4639 21.9144C15.5067 21.8717 15.5742 21.7944 15.6319 21.7472L15.6364 21.7517C15.6604 21.7179 15.6799 21.6797 15.7039 21.6467L15.7129 21.6654C15.6942 21.7134 15.6799 21.7659 15.6604 21.8139C15.6507 21.8192 15.6319 21.8334 15.6319 21.8237C15.6079 21.8432 15.5884 21.8672 15.5644 21.8814L15.4594 21.9534C15.4009 22.0059 15.3394 22.0539 15.2764 22.1072C15.2329 22.1747 15.1947 22.2317 15.1467 22.3089C15.2187 22.2894 15.2329 22.3179 15.2284 22.3809C15.3102 22.3899 15.3147 22.3284 15.3387 22.2797C15.3439 22.2699 15.3484 22.2459 15.3627 22.2369C15.4152 22.1889 15.4729 22.1499 15.5352 22.1019C15.5449 22.0929 15.5449 22.0689 15.5449 22.0494C15.5449 22.0449 15.5164 22.0449 15.4969 22.0397C15.5494 21.9819 15.6267 21.8814 15.6799 21.8147C15.7084 21.7952 15.7369 21.7712 15.7369 21.7569C15.7324 21.6894 15.7707 21.6744 15.8194 21.6512C15.7999 21.6272 15.7954 21.6129 15.7954 21.6032Z" fill="#222222"/>
<path d="M15.9088 21.5397C15.8848 21.5824 15.8608 21.6162 15.8368 21.6597L15.8031 21.6402C15.7791 21.7752 15.6981 21.8952 15.6156 21.9184C15.6396 21.9282 15.6636 21.9424 15.6831 21.9379C15.7026 21.9327 15.7116 21.9042 15.7266 21.8854L15.8841 21.6544L15.9373 21.5682L15.9088 21.5397ZM13.9408 24.1362C13.9693 24.1362 13.9986 24.1407 14.0368 24.1407C14.0368 24.1167 14.0653 24.1219 14.0653 24.0979H14.0848C14.0848 24.1264 14.0893 24.1504 14.0893 24.1797H13.9648L13.9408 24.1362ZM13.8928 23.8624C13.8733 23.8437 13.8448 23.8287 13.8448 23.8099C13.8396 23.7859 13.8546 23.7574 13.8733 23.7282C13.8831 23.7717 13.8928 23.8047 13.9026 23.8482L13.8928 23.8624ZM14.0413 23.4837C14.0653 23.5407 14.0893 23.6082 14.1133 23.6659L14.0653 23.6899L13.9888 23.5077C14.0044 23.496 14.0223 23.4878 14.0413 23.4837ZM27.2076 29.1379C27.2441 29.1264 27.2811 29.1166 27.3186 29.1087C27.2661 29.1522 27.2226 29.1807 27.1888 29.2144L27.1693 29.2047C27.1843 29.1807 27.1933 29.1627 27.2076 29.1379ZM19.9356 16.6429C19.9693 16.6197 20.0031 16.6002 20.0368 16.5762L20.0466 16.5859C20.0128 16.6339 19.9791 16.6819 19.9408 16.7397C19.9356 16.6962 19.9356 16.6722 19.9311 16.6437L19.9356 16.6429ZM21.6681 19.6339L21.8413 19.5567C21.8368 19.5904 21.8368 19.6144 21.8368 19.6392C21.818 19.6337 21.7986 19.6302 21.7791 19.6287C21.7453 19.6339 21.6786 19.6812 21.6493 19.6864L21.6688 19.6339H21.6681ZM26.1036 24.6499C26.1133 24.7077 26.2288 24.7362 26.1133 24.7984C26.1328 24.8082 26.1471 24.8179 26.1658 24.8277L26.1568 24.8517C26.1471 24.8562 26.1231 24.8704 26.1088 24.8607C26.1036 24.8607 26.0893 24.8367 26.0893 24.8277C26.0938 24.7752 26.0983 24.7219 26.1036 24.6499Z" fill="#222222"/>
</svg>
