<svg width="44" height="44" viewBox="0 0 44 44" fill="none" xmlns="http://www.w3.org/2000/svg">
<circle cx="22" cy="22" r="22" fill="white"/>
<path d="M25.6095 29.0955C23.2405 29.9684 20.6381 29.9684 18.2692 29.0955C18.0517 29.0175 17.877 28.7595 17.877 28.5375V27.9653C17.877 27.7433 18.0517 27.6338 18.27 27.7125C20.6386 28.5852 23.2408 28.5852 25.6095 27.7125C25.827 27.6338 26.0017 27.7425 26.0017 27.9653V28.5375C25.998 28.7595 25.8232 29.0175 25.6095 29.0955Z" fill="#222222"/>
<path d="M25.6095 28.3976C23.2395 29.6104 20.6392 29.6104 18.2692 28.3976C18.0517 28.2881 17.877 27.9304 17.877 27.6206V26.8301C17.877 26.5204 18.0517 26.3674 18.27 26.4806C20.6392 27.6941 23.2402 27.6941 25.6095 26.4806C25.827 26.3719 26.0017 26.5204 26.0017 26.8301V27.6199C25.998 27.9296 25.8232 28.2874 25.6095 28.3961V28.3976Z" fill="#542F2E"/>
<path d="M21.9395 29.7286C22.0286 29.7286 22.1141 29.6932 22.1771 29.6302C22.2401 29.5672 22.2755 29.4818 22.2755 29.3926C22.2755 29.3035 22.2401 29.2181 22.1771 29.1551C22.1141 29.092 22.0286 29.0566 21.9395 29.0566C21.8504 29.0566 21.7649 29.092 21.7019 29.1551C21.6389 29.2181 21.6035 29.3035 21.6035 29.3926C21.6035 29.4818 21.6389 29.5672 21.7019 29.6302C21.7649 29.6932 21.8504 29.7286 21.9395 29.7286Z" fill="#542F2E"/>
<path d="M21.9403 29.6322C22.0167 29.6322 22.09 29.6018 22.144 29.5478C22.198 29.4938 22.2283 29.4205 22.2283 29.3442C22.2283 29.2678 22.198 29.1945 22.144 29.1405C22.09 29.0865 22.0167 29.0562 21.9403 29.0562C21.864 29.0562 21.7907 29.0865 21.7367 29.1405C21.6827 29.1945 21.6523 29.2678 21.6523 29.3442C21.6523 29.4205 21.6827 29.4938 21.7367 29.5478C21.7907 29.6018 21.864 29.6322 21.9403 29.6322Z" fill="#222222"/>
<path d="M22.0224 29.5452C22.049 29.5452 22.0746 29.5346 22.0934 29.5158C22.1123 29.497 22.1229 29.4714 22.1229 29.4447C22.1229 29.4181 22.1123 29.3925 22.0934 29.3737C22.0746 29.3548 22.049 29.3442 22.0224 29.3442C21.9957 29.3442 21.9702 29.3548 21.9513 29.3737C21.9325 29.3925 21.9219 29.4181 21.9219 29.4447C21.9219 29.4714 21.9325 29.497 21.9513 29.5158C21.9702 29.5346 21.9957 29.5452 22.0224 29.5452Z" fill="#C2A487"/>
<path d="M21.9397 31.3816C22.0599 31.3851 22.1796 31.3644 22.2917 31.3208C22.4038 31.2772 22.506 31.2115 22.5923 31.1277C22.6785 31.0439 22.7471 30.9436 22.7939 30.8329C22.8408 30.7221 22.8649 30.603 22.8649 30.4827C22.8649 30.3625 22.8408 30.2434 22.7939 30.1326C22.7471 30.0218 22.6785 29.9216 22.5923 29.8378C22.506 29.754 22.4038 29.6883 22.2917 29.6447C22.1796 29.6011 22.0599 29.5804 21.9397 29.5839C21.7058 29.5906 21.4837 29.6883 21.3207 29.8561C21.1576 30.024 21.0664 30.2487 21.0664 30.4827C21.0664 30.7167 21.1576 30.9415 21.3207 31.1094C21.4837 31.2772 21.7058 31.3749 21.9397 31.3816Z" fill="#222222"/>
<path d="M21.9398 31.2991C22.1538 31.2991 22.3591 31.214 22.5104 31.0627C22.6618 30.9114 22.7468 30.7061 22.7468 30.4921C22.7468 30.278 22.6618 30.0728 22.5104 29.9214C22.3591 29.7701 22.1538 29.6851 21.9398 29.6851C21.7258 29.6851 21.5205 29.7701 21.3692 29.9214C21.2178 30.0728 21.1328 30.278 21.1328 30.4921C21.1328 30.7061 21.2178 30.9114 21.3692 31.0627C21.5205 31.214 21.7258 31.2991 21.9398 31.2991Z" fill="#C2A487"/>
<path d="M22.1741 30.2348C22.2221 30.2783 22.2484 30.3398 22.2484 30.4268C22.2484 30.5138 22.2221 30.5753 22.1734 30.6188C22.105 30.6637 22.0239 30.6851 21.9424 30.6796H21.8509V30.8761H21.6934V30.1733H21.9424C22.0474 30.1733 22.1261 30.1913 22.1741 30.2348ZM22.0601 30.5093C22.0791 30.4828 22.0884 30.4504 22.0864 30.4178C22.0864 30.3788 22.0736 30.3481 22.0519 30.3308C22.0176 30.3109 21.9781 30.3018 21.9386 30.3046H21.8509V30.5401H21.9559C22.0084 30.5401 22.0429 30.5318 22.0609 30.5101L22.0601 30.5093Z" fill="#222222"/>
<path d="M29.2223 23.1701C29.4398 26.1589 26.2065 28.8424 21.9825 28.8379C17.7623 28.8424 14.5253 26.1589 14.7428 23.1694C14.961 20.1716 18.2123 17.6974 21.9908 17.6929C25.7745 17.6974 28.9988 20.1716 29.2215 23.1694L29.2223 23.1701Z" fill="#C2A487"/>
<path d="M21.9692 17.2749C17.9987 17.2749 14.3117 20.0724 15.0092 24.3309C15.1487 24.7239 15.3805 25.7447 16.4845 26.6484C16.816 26.9184 17.3875 27.1457 17.6582 26.9619C18.352 26.4909 17.1212 25.1379 18.526 23.8899H18.496C19.2595 23.3102 20.341 22.8474 21.961 22.8474C23.5795 22.8474 24.661 23.3094 25.4252 23.8899H25.3952C26.8 25.1379 25.5737 26.4909 26.263 26.9619C26.533 27.1457 27.1097 26.9184 27.4367 26.6477C28.5407 25.7447 28.7762 24.7232 28.9165 24.3302C29.614 20.0672 25.9405 17.2749 21.9692 17.2749Z" fill="#E5C49D"/>
<path d="M25.3852 24.3474C24.7177 23.5269 23.4525 22.7334 21.9817 22.7334H21.9645C20.4892 22.7334 19.224 23.5269 18.5602 24.3474C17.871 25.1851 18.12 25.5429 18.12 26.3461C18.12 29.2524 19.1362 28.4056 19.8217 28.7544C20.5192 29.0949 21.2265 28.9726 21.9682 28.9726H21.9817C22.7235 28.9726 23.43 29.0949 24.1282 28.7506C24.8092 28.4011 25.8307 29.2569 25.8307 26.3506C25.8262 25.5519 26.0745 25.1851 25.3852 24.3481V24.3474Z" fill="#542F2E"/>
<path d="M17.0688 24.2739C17.3916 24.2739 17.7013 24.1456 17.9295 23.9173C18.1578 23.6891 18.2861 23.3794 18.2861 23.0566C18.2861 22.7338 18.1578 22.4242 17.9295 22.1959C17.7013 21.9676 17.3916 21.8394 17.0688 21.8394C16.746 21.8394 16.4364 21.9676 16.2081 22.1959C15.9798 22.4242 15.8516 22.7338 15.8516 23.0566C15.8516 23.3794 15.9798 23.6891 16.2081 23.9173C16.4364 24.1456 16.746 24.2739 17.0688 24.2739Z" fill="#C2A487"/>
<path d="M17.1786 24.069C17.5015 24.069 17.8112 23.9408 18.0396 23.7124C18.2679 23.4841 18.3962 23.1743 18.3962 22.8514C18.3962 22.5285 18.2679 22.2188 18.0396 21.9904C17.8112 21.7621 17.5015 21.6338 17.1786 21.6338C16.8556 21.6338 16.5459 21.7621 16.3176 21.9904C16.0892 22.2188 15.9609 22.5285 15.9609 22.8514C15.9609 23.1743 16.0892 23.4841 16.3176 23.7124C16.5459 23.9408 16.8556 24.069 17.1786 24.069Z" fill="#542F2E"/>
<path d="M17.4881 22.6197C17.5714 22.6197 17.6514 22.5866 17.7103 22.5277C17.7692 22.4687 17.8023 22.3888 17.8023 22.3055C17.8023 22.2221 17.7692 22.1422 17.7103 22.0833C17.6514 22.0243 17.5714 21.9912 17.4881 21.9912C17.4047 21.9912 17.3248 22.0243 17.2659 22.0833C17.2069 22.1422 17.1738 22.2221 17.1738 22.3055C17.1738 22.3888 17.2069 22.4687 17.2659 22.5277C17.3248 22.5866 17.4047 22.6197 17.4881 22.6197Z" fill="white"/>
<path d="M26.8423 24.2739C27.1651 24.2739 27.4747 24.1456 27.703 23.9173C27.9313 23.6891 28.0595 23.3794 28.0595 23.0566C28.0595 22.7338 27.9313 22.4242 27.703 22.1959C27.4747 21.9676 27.1651 21.8394 26.8423 21.8394C26.5194 21.8394 26.2098 21.9676 25.9815 22.1959C25.7532 22.4242 25.625 22.7338 25.625 23.0566C25.625 23.3794 25.7532 23.6891 25.9815 23.9173C26.2098 24.1456 26.5194 24.2739 26.8423 24.2739Z" fill="#C2A487"/>
<path d="M26.7723 24.069C27.0952 24.069 27.405 23.9408 27.6333 23.7124C27.8617 23.4841 27.9899 23.1743 27.9899 22.8514C27.9899 22.5285 27.8617 22.2188 27.6333 21.9904C27.405 21.7621 27.0952 21.6338 26.7723 21.6338C26.4494 21.6338 26.1397 21.7621 25.9113 21.9904C25.683 22.2188 25.5547 22.5285 25.5547 22.8514C25.5547 23.1743 25.683 23.4841 25.9113 23.7124C26.1397 23.9408 26.4494 24.069 26.7723 24.069Z" fill="#542F2E"/>
<path d="M27.0857 22.6197C27.1691 22.6197 27.249 22.5866 27.3079 22.5277C27.3669 22.4687 27.4 22.3888 27.4 22.3055C27.4 22.2221 27.3669 22.1422 27.3079 22.0833C27.249 22.0243 27.1691 21.9912 27.0857 21.9912C27.0024 21.9912 26.9225 22.0243 26.8635 22.0833C26.8046 22.1422 26.7715 22.2221 26.7715 22.3055C26.7715 22.3888 26.8046 22.4687 26.8635 22.5277C26.9225 22.5866 27.0024 22.6197 27.0857 22.6197Z" fill="white"/>
<path d="M19.409 18.365C19.409 18.365 15.2855 19.0768 15.1197 24.0035C15.1152 24.0778 15.0372 24.1258 14.9712 24.086L14.8407 24.0073L14.7402 22.7158L14.9277 20.0803L16.6467 18.8105L18.1917 18.1865L19.409 18.3658V18.365ZM24.5277 18.365C24.5277 18.365 28.6512 19.0768 28.8177 24.0035C28.8215 24.0778 28.9002 24.1258 28.9655 24.086L29.0967 24.0073L29.1965 22.7158L29.009 20.0803L27.29 18.8105L25.745 18.1865L24.5277 18.3658V18.365Z" fill="#C2A487"/>
<path d="M21.8834 27.1387V24.6539H22.0649V27.1327C22.3326 27.1642 22.6799 27.3202 23.0129 27.4199C23.3579 27.5422 23.6886 27.5902 23.5581 27.6074C23.1044 27.6254 22.6064 27.4552 21.9959 27.4634C21.3809 27.4552 20.8829 27.6254 20.4336 27.6074C20.3024 27.5857 20.6346 27.5377 20.9789 27.4199C21.2946 27.3247 21.6201 27.1799 21.8834 27.1387ZM23.1134 23.8162C23.2566 24.1342 22.7594 24.6539 21.9696 24.6539C21.1799 24.6539 20.6826 24.1342 20.8266 23.8154C20.9661 23.4884 21.4679 23.3834 21.9696 23.3789C22.4721 23.3834 22.9731 23.4884 23.1126 23.8154L23.1134 23.8162Z" fill="#222222"/>
<path d="M19.4076 18.3647C19.4076 18.3647 14.5506 19.0367 14.9698 23.8585C14.9916 24.103 14.0008 22.816 13.2328 22.423C12.4648 22.0307 12.4903 20.761 12.4903 20.761C12.4903 20.761 12.4776 18.5485 15.5803 17.8937C18.6786 17.2435 19.4076 18.3647 19.4076 18.3647ZM24.5263 18.3647C24.5263 18.3647 29.3826 19.0367 28.9641 23.8585C28.9416 24.103 29.9323 22.816 30.7003 22.423C31.4683 22.0307 31.4428 20.761 31.4428 20.761C31.4428 20.761 31.4556 18.5485 28.3528 17.8937C25.2553 17.2435 24.5263 18.3647 24.5263 18.3647Z" fill="#542F2E"/>
<path d="M21.9742 21.8394C20.4644 21.8394 18.9367 23.3229 19.2554 23.1571C19.8449 22.8474 20.1854 22.3021 21.9742 22.3021C23.7637 22.3021 24.0997 22.8474 24.6929 23.1571C25.0117 23.3221 23.4839 21.8394 21.9742 21.8394Z" fill="#C2A487"/>
<path d="M21.9729 21.1886C20.8254 21.1886 19.6689 22.3136 19.9089 22.1876C20.3589 21.9521 20.9342 21.5374 21.9729 21.5374C23.0117 21.5374 23.5877 21.9521 24.0369 22.1876C24.2769 22.3144 23.1204 21.1886 21.9729 21.1886ZM21.9639 17.5361C20.6987 17.5361 19.4162 18.2606 19.6817 18.1774C20.1797 18.0251 20.8164 17.7589 21.9639 17.7589C23.1114 17.7589 23.7489 18.0251 24.2462 18.1774C24.5124 18.2599 23.2337 17.5361 21.9639 17.5361Z" fill="#C2A487"/>
<path d="M22.2586 23.6412C22.2938 23.7192 22.1716 23.846 21.9751 23.846C21.7786 23.846 21.6563 23.7192 21.6916 23.6412C21.7268 23.5625 21.8491 23.5362 21.9751 23.5317C22.0973 23.5317 22.2241 23.558 22.2586 23.6412Z" fill="#222222"/>
</svg>
