<svg width="44" height="44" viewBox="0 0 44 44" fill="none" xmlns="http://www.w3.org/2000/svg">
<circle cx="22" cy="22" r="22" fill="white"/>
<g clip-path="url(#clip0_815_2070)">
<mask id="mask0_815_2070" style="mask-type:luminance" maskUnits="userSpaceOnUse" x="10" y="11" width="24" height="22">
<path d="M10 11.4399H34V32.7999H10V11.4399Z" fill="white"/>
</mask>
<g mask="url(#mask0_815_2070)">
<path d="M22.002 24.2591C22.2864 24.2644 22.5689 24.213 22.8331 24.1079C23.0973 24.0028 23.3379 23.846 23.5409 23.6469C23.7438 23.4477 23.9051 23.21 24.0151 22.9478C24.1252 22.6856 24.1818 22.4041 24.1818 22.1197C24.1818 21.8354 24.1252 21.5538 24.0151 21.2916C23.9051 21.0294 23.7438 20.7918 23.5409 20.5926C23.3379 20.3934 23.0973 20.2367 22.8331 20.1316C22.5689 20.0264 22.2864 19.975 22.002 19.9804C21.4416 19.9908 20.9076 20.2209 20.515 20.6209C20.1223 21.021 19.9023 21.5592 19.9023 22.1197C19.9023 22.6803 20.1223 23.2185 20.515 23.6185C20.9076 24.0186 21.4416 24.2486 22.002 24.2591Z" fill="#3DAFD0"/>
<path d="M22.0014 26.5041C28.3412 26.5041 33.4802 24.5406 33.4802 22.1196C33.4802 19.6986 28.3412 17.7358 22.0014 17.7358C15.6624 17.7358 10.5234 19.6986 10.5234 22.1196C10.5234 24.5406 15.6624 26.5041 22.0014 26.5041Z" stroke="#3DAFD0" stroke-width="0.625"/>
<path d="M18.2075 24.3124C21.3762 29.8039 25.6445 33.2749 27.7407 32.0637C29.837 30.8532 28.967 25.4194 25.7982 19.9279C22.628 14.4357 18.3597 10.9654 16.2635 12.1759C14.1672 13.3872 15.038 18.8209 18.2075 24.3124Z" stroke="#3DAFD0" stroke-width="0.625"/>
<path d="M18.2074 19.9279C15.0372 25.4194 14.1672 30.8524 16.2634 32.0629C18.3597 33.2734 22.6279 29.8032 25.7982 24.3117C28.9677 18.8202 29.8377 13.3864 27.7414 12.1759C25.6452 10.9654 21.3769 14.4357 18.2067 19.9272L18.2074 19.9279Z" stroke="#3DAFD0" stroke-width="0.625"/>
</g>
</g>
<defs>
<clipPath id="clip0_815_2070">
<rect width="24" height="24" fill="white" transform="translate(10 10)"/>
</clipPath>
</defs>
</svg>
