<svg width="44" height="44" viewBox="0 0 44 44" fill="none" xmlns="http://www.w3.org/2000/svg">
<circle cx="22" cy="22" r="22" fill="white"/>
<g clip-path="url(#clip0_815_2169)">
<mask id="mask0_815_2169" style="mask-type:luminance" maskUnits="userSpaceOnUse" x="10" y="10" width="24" height="25">
<path d="M10 10.0005H34V34.0005H10V10.0005Z" fill="white"/>
</mask>
<g mask="url(#mask0_815_2169)">
<path d="M26.6298 26.4757C27.0617 26.4296 27.4599 26.2209 27.7435 25.8919C28.0271 25.5628 28.1749 25.1382 28.1568 24.7042C28.14 24.2616 27.9526 23.8427 27.6338 23.5352C27.3151 23.2276 26.8897 23.0553 26.4468 23.0542H26.3853C26.1605 23.0618 25.9394 23.1136 25.7347 23.2068C25.53 23.3 25.3457 23.4327 25.1924 23.5973C25.0391 23.7619 24.9198 23.9551 24.8414 24.166C24.7629 24.3768 24.7269 24.601 24.7353 24.8257C24.7668 25.284 24.9498 25.6807 25.2243 25.956C24.1863 28.0027 22.5978 29.499 20.2158 30.7515C18.5973 31.6065 16.9173 31.9117 15.2381 31.698C13.8633 31.515 12.7946 30.9045 12.1226 29.8965C11.1453 28.3995 11.0538 26.781 11.8781 25.1617C12.4586 24.0015 13.3751 23.1465 13.9556 22.719C13.7978 22.2065 13.6651 21.6867 13.5581 21.1612C9.12932 24.3682 9.58757 28.7047 10.9316 30.7515C11.9396 32.2785 13.9856 33.225 16.2453 33.225C16.8566 33.225 17.4678 33.1642 18.0783 33.0112C21.9873 32.2477 24.9498 29.9265 26.6298 26.4757ZM32.0051 22.6882C29.6838 19.9702 26.2631 18.4732 22.3541 18.4732H21.8651C21.7245 18.1973 21.5103 17.9657 21.2462 17.8039C20.9822 17.6422 20.6785 17.5566 20.3688 17.5567H20.3073C20.0825 17.5644 19.8614 17.6163 19.6568 17.7096C19.4521 17.8029 19.2679 17.9357 19.1146 18.1003C18.9614 18.265 18.8422 18.4583 18.7638 18.6691C18.6855 18.88 18.6495 19.1042 18.6581 19.329C18.6753 19.7713 18.8629 20.1899 19.1816 20.4971C19.5003 20.8043 19.9254 20.9765 20.3681 20.9775H20.4296C21.1016 20.9475 21.6821 20.52 21.9258 19.9395H22.4756C24.7968 19.9395 26.9958 20.6115 28.9811 21.9247C30.5081 22.9327 31.6076 24.246 32.2188 25.8337C32.7378 27.1162 32.7071 28.3687 32.1573 29.4382C31.3023 31.0567 29.8668 31.9425 27.9731 31.9425C26.7521 31.9425 25.5911 31.5757 24.9806 31.3012C24.5405 31.6899 24.0817 32.0568 23.6058 32.4007C24.9191 33.0112 26.2631 33.3472 27.5456 33.3472C30.4781 33.3472 32.6456 31.7287 33.4706 30.1102C34.3563 28.3387 34.2956 25.284 32.0051 22.6882ZM16.4898 26.9947C16.5069 27.4372 16.6943 27.8559 17.0131 28.1633C17.3318 28.4707 17.757 28.643 18.1998 28.644H18.2613C18.4861 28.6363 18.7071 28.5844 18.9117 28.4912C19.1163 28.3979 19.3005 28.2652 19.4537 28.1006C19.607 27.9361 19.7262 27.7429 19.8046 27.5321C19.883 27.3214 19.919 27.0972 19.9106 26.8725C19.8937 26.4299 19.7063 26.011 19.3876 25.7034C19.0688 25.3959 18.6435 25.2235 18.2006 25.2225H18.1391C18.0783 25.2225 17.9861 25.2225 17.9253 25.2532C16.6728 23.1765 16.1538 20.9167 16.3376 18.4732C16.4591 16.641 17.0703 15.0532 18.1391 13.7392C19.0248 12.609 20.7348 12.0592 21.8958 12.0292C25.1328 11.9677 26.5076 15.999 26.5983 17.6182C26.9958 17.7097 27.6678 17.9235 28.1261 18.0757C27.7593 13.1295 24.7061 10.563 21.7736 10.563C19.0248 10.563 16.4898 12.5482 15.4818 15.48C14.0771 19.3897 14.9936 23.1465 16.7043 26.109C16.5513 26.3227 16.4591 26.6595 16.4898 26.9947Z" fill="#764ABC"/>
</g>
</g>
<defs>
<clipPath id="clip0_815_2169">
<rect width="24" height="24" fill="white" transform="translate(10 10)"/>
</clipPath>
</defs>
</svg>
