<svg width="44" height="44" viewBox="0 0 44 44" fill="none" xmlns="http://www.w3.org/2000/svg">
<circle cx="22" cy="22" r="22" fill="white"/>
<g clip-path="url(#clip0_815_1548)">
<path fill-rule="evenodd" clip-rule="evenodd" d="M20.7786 14.242C21.4746 14.347 22.1331 14.56 22.7533 14.8803V14.9763L23.2318 15.1038V15.1998L23.7096 15.5193V15.6153C23.8746 15.7225 24.0343 15.8395 24.1873 15.9663C24.4348 16.2565 24.6583 16.5663 24.8563 16.8925C24.8706 16.9129 24.8897 16.9294 24.912 16.9405C24.9343 16.9516 24.9589 16.9571 24.9838 16.9563C24.9786 17.01 24.984 17.0643 24.9996 17.116C25.0438 17.1568 25.0793 17.206 25.104 17.2607C25.1288 17.3155 25.1422 17.3747 25.1436 17.4348H25.2388C25.2726 17.6328 25.3251 17.8248 25.3978 18.01C25.4121 18.163 25.4548 18.307 25.5253 18.4413C25.5533 18.524 25.5533 18.6136 25.5253 18.6963C25.6056 18.7668 25.7008 18.7938 25.8126 18.7758V18.6805C25.8898 18.6706 25.9621 18.637 26.0196 18.5845C26.0586 18.589 26.0953 18.5995 26.1306 18.6168L26.2266 18.5043C26.289 18.4888 26.3537 18.4837 26.4178 18.4893V18.3933C26.4658 18.3611 26.5199 18.3391 26.5768 18.3288C26.8966 18.3287 27.2161 18.3075 27.5331 18.265L28.1706 18.3288C28.3506 18.3498 28.5313 18.376 28.7121 18.409C28.8036 18.454 28.8891 18.502 28.9671 18.5523C29.0931 18.6963 29.2521 18.781 29.4441 18.808C29.5245 18.8444 29.6109 18.866 29.6991 18.8718C29.6923 18.9093 29.7028 18.9415 29.7313 18.9678C29.8236 19.0818 29.9406 19.1568 30.0816 19.1913V19.2873C30.1776 19.2978 30.2301 19.351 30.2406 19.447H30.3366C30.3323 19.4693 30.3329 19.4923 30.3385 19.5144C30.3441 19.5364 30.3544 19.5569 30.3688 19.5745C30.4354 19.6095 30.4931 19.6593 30.5374 19.7202C30.5816 19.7811 30.6112 19.8513 30.6238 19.9255H30.7191C30.7033 20.053 30.7566 20.128 30.8781 20.149C30.8715 20.2087 30.8797 20.269 30.9019 20.3247C30.9242 20.3804 30.9597 20.4298 31.0056 20.4685C31.0371 20.551 31.0476 20.6365 31.0378 20.7235H31.1331C31.1931 21.0085 31.2351 21.2958 31.2606 21.586C31.2501 21.8635 31.2606 22.141 31.2921 22.4163C31.4571 22.4515 31.6161 22.4935 31.7706 22.5438C31.8906 22.615 32.0181 22.6683 32.1531 22.7035C32.1487 22.7258 32.1492 22.7487 32.1547 22.7708C32.1601 22.7928 32.1703 22.8134 32.1846 22.831L32.5671 23.0553C32.6098 23.0875 32.6308 23.1303 32.6308 23.1828C32.7043 23.2203 32.7786 23.263 32.8536 23.3103C32.8999 23.3659 32.9325 23.4317 32.9488 23.5023H33.0448C33.1273 23.635 33.2016 23.7738 33.2676 23.917C33.2924 23.9162 33.3171 23.9217 33.3394 23.9328C33.3616 23.9439 33.3808 23.9604 33.3951 23.9808C33.4686 24.1383 33.5323 24.298 33.5863 24.46H33.6823C33.7183 24.595 33.7393 24.7338 33.7453 24.8748H33.8413C33.8653 25.1208 33.9073 25.3548 33.9688 25.5775C33.9838 26.1445 33.9516 26.7085 33.8728 27.2703C33.8278 27.3993 33.7851 27.5268 33.7453 27.6528C33.7063 27.7558 33.6796 27.863 33.6658 27.9723C33.5402 28.1499 33.4385 28.3433 33.3636 28.5475H33.2676V28.7073C33.21 28.7242 33.1585 28.7571 33.119 28.8023C33.0795 28.8475 33.0538 28.903 33.0448 28.9623L32.7898 29.0898C32.7793 29.1858 32.7261 29.2398 32.6308 29.2495V29.3455H32.5348C32.5356 29.398 32.5138 29.4408 32.4711 29.473C32.1807 29.6996 31.8588 29.8825 31.5156 30.016C31.4344 30.0473 31.3469 30.0583 31.2606 30.0483C31.2606 30.1008 31.2396 30.1435 31.1968 30.1758C30.9831 30.2193 30.7708 30.262 30.5593 30.3033C30.4195 30.289 30.2782 30.3054 30.1453 30.3513C25.0266 30.3783 19.9078 30.373 14.7883 30.3355C14.4133 30.313 14.0413 30.2703 13.6738 30.208C13.6738 30.1758 13.6588 30.1548 13.6258 30.1443C13.1511 30.0257 12.7027 29.8197 12.3036 29.5368C12.2832 29.5225 12.2667 29.5033 12.2556 29.4811C12.2444 29.4588 12.239 29.4342 12.2398 29.4093C12.1164 29.3798 12.0051 29.313 11.9211 29.218C11.8739 29.188 11.8172 29.1765 11.7621 29.1858C11.7516 29.0898 11.6983 29.0373 11.6023 29.026C11.5918 28.9308 11.5386 28.8775 11.4433 28.867C11.4273 28.7884 11.3886 28.7162 11.3319 28.6594C11.2752 28.6026 11.2031 28.5637 11.1246 28.5475V28.3878C11.1072 28.3915 11.0893 28.3904 11.0725 28.3848C11.0557 28.3791 11.0408 28.369 11.0293 28.3555C10.9072 28.231 10.8194 28.077 10.7743 27.9085C10.731 27.8826 10.696 27.8448 10.6734 27.7996C10.6508 27.7544 10.6416 27.7038 10.6468 27.6535H10.5508C10.4513 27.3593 10.3344 27.0713 10.2006 26.791C10.1423 26.4964 10.1105 26.1973 10.1053 25.897H10.0086C9.97521 25.1255 10.0395 24.3529 10.1998 23.5975C10.2291 23.5293 10.2658 23.4655 10.3116 23.4063C10.3602 23.2223 10.4185 23.0411 10.4863 22.8633H10.5823C10.6498 22.6218 10.7668 22.4088 10.9326 22.225C10.9627 22.1776 10.9742 22.1207 10.9648 22.0653L11.2828 21.8418C11.2887 21.7537 11.3102 21.6673 11.3466 21.5868C11.4426 21.5755 11.4958 21.5223 11.5063 21.4263C11.5614 21.4358 11.618 21.4246 11.6653 21.3948C11.9013 21.1474 12.1691 20.9325 12.4618 20.7558C12.5206 20.7254 12.5876 20.7144 12.6531 20.7243C12.6657 20.6698 12.6933 20.62 12.7328 20.5805C12.7723 20.541 12.8221 20.5134 12.8766 20.5008C13.2411 20.3635 13.6131 20.2458 13.9911 20.149H14.0871C14.0796 19.7005 14.1006 19.2535 14.1508 18.808C14.2033 18.6145 14.2573 18.4225 14.3098 18.2335C14.3389 18.2281 14.3667 18.2167 14.3913 18.2002C14.4159 18.1837 14.4369 18.1624 14.4531 18.1375C14.5521 17.8945 14.6211 17.6395 14.6601 17.371C14.738 17.2937 14.8387 17.2435 14.9473 17.2278C15.0006 17.1145 15.0801 17.0553 15.1858 17.0515C15.1791 16.9645 15.1843 16.879 15.2023 16.7965C15.1853 16.7568 15.1639 16.719 15.1386 16.684C15.1854 16.6257 15.2082 16.5516 15.2023 16.477C15.2946 16.4358 15.3426 16.3615 15.3448 16.2535C15.5893 16.057 15.8173 15.844 16.0303 15.6153C16.0438 15.6037 16.054 15.5886 16.0596 15.5717C16.0653 15.5548 16.0663 15.5367 16.0626 15.5193C16.2924 15.3697 16.526 15.2259 16.7631 15.088C16.8317 15.0351 16.8957 14.9764 16.9543 14.9125C17.0242 14.8816 17.1013 14.8704 17.1771 14.8803V14.785C17.3961 14.7243 17.6091 14.65 17.8146 14.5608C17.9166 14.5225 18.0223 14.4955 18.1333 14.4813C18.2136 14.428 18.2983 14.3853 18.3883 14.3538C19.1748 14.198 19.9801 14.1601 20.7778 14.2413L20.7786 14.242Z" fill="#3CADE6"/>
<path fill-rule="evenodd" clip-rule="evenodd" d="M15.202 16.4775C15.2082 16.5524 15.1854 16.6268 15.1383 16.6853C15.1636 16.7201 15.185 16.7575 15.202 16.797C15.1848 16.8795 15.1795 16.965 15.187 17.052C15.0805 17.0565 15.001 17.115 14.947 17.2283C14.8387 17.2442 14.7383 17.2944 14.6605 17.3715C14.6226 17.6344 14.5531 17.8918 14.4535 18.138C14.4374 18.1629 14.4164 18.1842 14.3918 18.2007C14.3671 18.2172 14.3394 18.2286 14.3103 18.234C14.3002 18.1581 14.3111 18.0808 14.3418 18.0105C14.5127 17.5855 14.7263 17.1789 14.9793 16.797C15.0094 16.7496 15.0209 16.6927 15.0115 16.6373H15.1068C15.1091 16.6051 15.1189 16.5739 15.1355 16.5461C15.152 16.5184 15.1748 16.4949 15.202 16.4775Z" fill="#5FB8E7"/>
<path fill-rule="evenodd" clip-rule="evenodd" d="M28.1692 18.329L27.5317 18.2653C27.2149 18.3076 26.8957 18.3289 26.5762 18.329C26.6467 18.308 26.7209 18.287 26.7989 18.2653C27.1802 18.2228 27.5651 18.2228 27.9464 18.2653C28.0252 18.287 28.0994 18.308 28.1692 18.329Z" fill="#8ACFF3"/>
<path fill-rule="evenodd" clip-rule="evenodd" d="M28.9648 18.5527L29.2836 18.6165V18.7125H29.4426V18.8077C29.2574 18.7844 29.0873 18.6936 28.9648 18.5527Z" fill="#94D1F0"/>
<path fill-rule="evenodd" clip-rule="evenodd" d="M25.3992 18.0103C25.4577 18.0665 25.4787 18.1415 25.4622 18.2338H25.5582C25.5642 18.398 25.5957 18.557 25.6534 18.7123C25.8784 18.53 26.1334 18.4235 26.4184 18.3935V18.4888C26.3542 18.4837 26.2896 18.4893 26.2272 18.5053C26.1947 18.5421 26.1627 18.5793 26.1312 18.617C26.0962 18.6003 26.0587 18.5894 26.0202 18.5848C25.9625 18.6374 25.8899 18.6709 25.8124 18.6808V18.776C25.7618 18.7858 25.7096 18.7837 25.6598 18.7699C25.6101 18.7561 25.5643 18.731 25.5259 18.6965C25.5539 18.6138 25.5539 18.5242 25.5259 18.4415C25.4549 18.3078 25.4115 18.1611 25.3984 18.0103H25.3992Z" fill="#6CBBE5"/>
<path fill-rule="evenodd" clip-rule="evenodd" d="M14.1501 18.8086C14.0998 19.2541 14.0781 19.7011 14.0863 20.1496H13.9896C13.9813 19.7371 14.0128 19.3268 14.0856 18.9203C14.0886 18.8663 14.1111 18.8296 14.1501 18.8086Z" fill="#90D3F4"/>
<path fill-rule="evenodd" clip-rule="evenodd" d="M31.2617 21.5864H31.3577C31.3464 21.8324 31.3577 22.0769 31.3892 22.3214C31.5227 22.3964 31.6502 22.4714 31.7717 22.5442C31.6148 22.4933 31.4553 22.4508 31.2939 22.4167C31.262 22.1412 31.2512 21.8636 31.2617 21.5864Z" fill="#82C8ED"/>
<path fill-rule="evenodd" clip-rule="evenodd" d="M19.0254 22.7997C18.9909 22.8282 18.9909 22.8552 19.0254 22.8799C19.2107 22.8874 19.3914 22.9197 19.5677 22.9752C19.5841 22.9862 19.5982 23.0004 19.6092 23.0168C19.6201 23.0333 19.6277 23.0518 19.6314 23.0712C19.5795 23.1516 19.557 23.2475 19.5677 23.3427C19.5262 23.3561 19.488 23.3778 19.4552 23.4064C19.2488 23.3196 19.0266 23.2762 18.8027 23.2789C18.3122 23.2557 18.1532 23.4687 18.3249 23.9172C18.4502 24.0387 18.5987 24.1122 18.7712 24.1407V24.2367C18.9107 24.2592 19.0487 24.2907 19.1852 24.3327C19.2527 24.3904 19.3277 24.4332 19.4079 24.4602V24.5562C19.4997 24.5887 19.582 24.6436 19.6472 24.7159C19.7132 24.9447 19.7402 25.1787 19.7267 25.4179H19.6314C19.6042 25.5607 19.5614 25.7 19.5039 25.8334C19.4446 25.8285 19.3848 25.8375 19.3295 25.8596C19.2742 25.8817 19.2248 25.9164 19.1852 25.9609C18.8096 26.0506 18.4209 26.0722 18.0377 26.0247C17.9462 25.9967 17.86 25.9536 17.7827 25.8972C17.7403 25.7403 17.7403 25.5749 17.7827 25.4179C18.2537 25.6279 18.7202 25.6279 19.1852 25.4179V24.9394C19.0514 24.8857 18.9275 24.8102 18.8184 24.7159C18.4901 24.6341 18.1884 24.4691 17.9424 24.2367C17.8083 24.0763 17.74 23.871 17.7512 23.6622C17.7699 23.5009 17.7909 23.3412 17.8149 23.1829C17.9102 23.1724 17.9634 23.1192 17.9747 23.0232C18.2951 22.8463 18.6608 22.7685 19.0254 22.7997Z" fill="#F6FBFB"/>
<path fill-rule="evenodd" clip-rule="evenodd" d="M22.2749 22.8955H19.9814V23.3425C19.9495 23.1849 19.9387 23.0238 19.9492 22.8633C20.7246 22.8527 21.5001 22.8635 22.2749 22.8955Z" fill="#BCECFD"/>
<path fill-rule="evenodd" clip-rule="evenodd" d="M14.1825 22.9594C14.28 22.9714 14.376 22.9924 14.4698 23.0232V23.1192C14.5755 23.1192 14.6288 23.1717 14.6288 23.2789C14.6536 23.2781 14.6783 23.2836 14.7006 23.2947C14.7228 23.3058 14.742 23.3223 14.7563 23.3427C14.8035 23.6449 14.7938 23.9427 14.724 24.2367C14.6287 24.2472 14.5755 24.3004 14.565 24.3964C14.4803 24.4242 14.3947 24.4564 14.31 24.4924C14.2871 24.5033 14.2668 24.5188 14.2504 24.5381C14.234 24.5574 14.2218 24.5799 14.2148 24.6042C14.3037 24.7519 14.3993 24.8956 14.5013 25.0347C14.5312 25.0842 14.5425 25.1374 14.5328 25.1944H14.6288C14.7263 25.3384 14.8012 25.4982 14.8515 25.6737H14.9475V25.8334H15.0428V25.9932H14.4705C14.3462 25.6924 14.1855 25.408 13.992 25.1464C13.9571 25.0824 13.9354 25.012 13.9283 24.9394H13.833C13.8379 24.9047 13.8347 24.8693 13.8237 24.8359C13.8126 24.8026 13.794 24.7723 13.7693 24.7474C13.6012 24.7158 13.4299 24.7053 13.2592 24.7159C13.1957 25.1277 13.1743 25.5448 13.1955 25.9609H12.75V22.8957C13.233 22.8799 13.71 22.9009 14.1825 22.9594Z" fill="#F8FCFC"/>
<path fill-rule="evenodd" clip-rule="evenodd" d="M17.2392 22.896V23.343H15.9972V24.141C15.9988 24.1507 16.0025 24.16 16.0079 24.1683C16.0133 24.1765 16.0204 24.1836 16.0287 24.189C16.3999 24.2048 16.7719 24.2108 17.1439 24.2048V24.588C16.7614 24.5828 16.3789 24.588 15.9964 24.6045C15.9651 24.9175 15.9545 25.2322 15.9649 25.5465H17.2399V25.9613C16.6872 25.9665 16.1352 25.9613 15.5824 25.9455C15.5402 24.9347 15.5402 23.9226 15.5824 22.9118C16.1344 22.896 16.6864 22.8908 17.2392 22.896Z" fill="#FCFDFC"/>
<path fill-rule="evenodd" clip-rule="evenodd" d="M22.274 22.8955V23.3425H21.3815C21.3605 24.211 21.3387 25.084 21.3185 25.9608H20.9045C20.9257 25.0982 20.9044 24.2352 20.8407 23.3748C20.5552 23.3428 20.2676 23.332 19.9805 23.3425V22.8955H22.274Z" fill="#FAFCFC"/>
<path fill-rule="evenodd" clip-rule="evenodd" d="M24.5701 22.8633H25.2076C25.2736 22.9915 25.3051 23.1303 25.3028 23.2788H25.3981L25.5256 23.917H25.6216C25.6913 24.1248 25.7551 24.3378 25.8128 24.556C25.9628 24.892 26.1016 25.2325 26.2268 25.5775C26.2643 25.7155 26.2958 25.8543 26.3221 25.993H25.7806C25.7832 25.9053 25.7669 25.8181 25.7326 25.7373C25.65 25.5729 25.5808 25.4021 25.5256 25.2265C25.1016 25.1946 24.6764 25.1838 24.2513 25.1943L24.1561 25.6735C24.0809 25.7639 24.0363 25.8757 24.0286 25.993H23.4863C23.5133 25.8543 23.5448 25.7155 23.5823 25.5775L23.8373 25.0345C23.8943 24.8793 23.9266 24.7195 23.9326 24.556H24.0286V24.3963H24.1238L24.2198 23.917C24.3181 23.6485 24.4246 23.3823 24.5378 23.119C24.5689 23.0379 24.58 22.9504 24.5701 22.864V22.8633Z" fill="#F6FBFC"/>
<path fill-rule="evenodd" clip-rule="evenodd" d="M26.8959 22.8957C27.3444 22.8829 27.7907 22.9039 28.2339 22.9594C28.3802 22.9939 28.5182 23.0472 28.6479 23.1192C28.6584 23.2152 28.7117 23.2684 28.8077 23.2789C28.8347 23.4589 28.8564 23.6389 28.8714 23.8219C28.8544 24.0139 28.8331 24.2054 28.8077 24.3964C28.7594 24.4285 28.705 24.4502 28.6479 24.4602V24.5562C28.5527 24.5667 28.4994 24.6199 28.4889 24.7159L28.0112 24.8434C27.8003 24.8754 27.5867 24.8862 27.3737 24.8757C27.3102 25.2337 27.2888 25.5979 27.3099 25.9609H26.8637C26.8562 24.9349 26.8667 23.9134 26.8959 22.8957Z" fill="#F9FCFC"/>
<path fill-rule="evenodd" clip-rule="evenodd" d="M19.0264 22.7998C19.2342 22.8223 19.4359 22.8703 19.6317 22.9438C19.6585 23.0098 19.6668 23.0819 19.6555 23.1522C19.6443 23.2225 19.614 23.2885 19.5679 23.3428C19.5572 23.2477 19.5797 23.1517 19.6317 23.0713C19.6279 23.0519 19.6203 23.0334 19.6094 23.0169C19.5985 23.0005 19.5844 22.9863 19.5679 22.9753C19.3925 22.9193 19.2104 22.887 19.0264 22.8793C18.9912 22.8553 18.9912 22.8283 19.0264 22.7998Z" fill="#A0D3F2"/>
<path fill-rule="evenodd" clip-rule="evenodd" d="M26.8939 22.8955C26.8646 23.9133 26.8541 24.9355 26.8624 25.9608H27.3079C27.2876 25.5865 27.3086 25.225 27.3716 24.8755V25.993H26.8301C26.8091 24.949 26.8301 23.917 26.8939 22.8955Z" fill="#D6F1FD"/>
<path fill-rule="evenodd" clip-rule="evenodd" d="M13.2578 23.3428H13.9905V23.4388C13.7607 23.388 13.5253 23.3666 13.29 23.375V24.3005C13.2581 23.9823 13.2473 23.6624 13.2578 23.3428Z" fill="#84C6ED"/>
<path fill-rule="evenodd" clip-rule="evenodd" d="M17.242 22.8633H17.338V23.374H16.063V24.1405H16V23.3425H17.242V22.8633Z" fill="#93D0F2"/>
<path fill-rule="evenodd" clip-rule="evenodd" d="M21.3841 23.3428H22.2766C21.9908 23.3748 21.703 23.3856 21.4156 23.375V25.9925H21.3203V25.961C21.3833 25.1 21.4051 24.227 21.3841 23.3428Z" fill="#82CAF3"/>
<path fill-rule="evenodd" clip-rule="evenodd" d="M25.1445 23.9808C25.116 23.9853 25.095 23.9748 25.0808 23.9493C25.0399 23.819 24.9918 23.6911 24.9368 23.566C24.8203 23.7105 24.7585 23.8913 24.762 24.0768H24.666C24.735 23.8285 24.8093 23.5833 24.8895 23.3418H24.9848C25.0448 23.548 25.0973 23.7618 25.1438 23.9808H25.1445Z" fill="#8FC9EA"/>
<path fill-rule="evenodd" clip-rule="evenodd" d="M28.2342 22.9593C27.7905 22.9041 27.3432 22.8828 26.8962 22.8955C26.8325 23.9267 26.8113 24.9601 26.8325 25.993C26.8007 24.9501 26.7902 23.9066 26.801 22.8633H28.2342V22.9593Z" fill="#9ED7F1"/>
<path fill-rule="evenodd" clip-rule="evenodd" d="M21.3841 23.3428C21.4051 24.227 21.3841 25.1 21.3203 25.961C21.3406 25.0843 21.3623 24.2113 21.3841 23.3428Z" fill="#CBEEFE"/>
<path fill-rule="evenodd" clip-rule="evenodd" d="M14.1803 22.9596C13.705 22.901 13.2258 22.8797 12.7471 22.8958V25.9611H13.1926C13.0355 25.9929 12.8748 26.0038 12.7148 25.9933V22.8628C13.1933 22.8523 13.6711 22.8628 14.1488 22.8951C14.1601 22.9168 14.1713 22.9386 14.1803 22.9596Z" fill="#CFF5FE"/>
<path fill-rule="evenodd" clip-rule="evenodd" d="M13.2591 23.3425C13.2486 23.6673 13.2591 23.9875 13.2913 24.3003H13.8328C13.628 24.3426 13.4166 24.3426 13.2118 24.3003L13.1953 23.8218C13.1953 23.6493 13.2171 23.4903 13.2591 23.3418V23.3425Z" fill="#C5E0F1"/>
<path fill-rule="evenodd" clip-rule="evenodd" d="M13.9915 23.4389C14.0468 23.4292 14.1038 23.4404 14.1513 23.4704C14.3148 23.6526 14.3463 23.8544 14.2465 24.0779C14.1523 24.1284 14.0664 24.1928 13.9915 24.2691C13.9442 24.2989 13.8876 24.3102 13.8325 24.3006H13.291V23.3744C13.5263 23.3659 13.7617 23.3881 13.9915 23.4389Z" fill="#41ADE7"/>
<path fill-rule="evenodd" clip-rule="evenodd" d="M20.8398 23.3745C20.9036 24.2354 20.9248 25.099 20.9036 25.962H21.3176V25.9935H20.8398V23.3745Z" fill="#B2E7FC"/>
<path fill-rule="evenodd" clip-rule="evenodd" d="M27.3711 24.3965V23.3743C27.5563 23.3375 27.7476 23.3323 27.9448 23.3593C28.2223 23.4088 28.3716 23.5738 28.3911 23.8535C28.3524 23.9823 28.3099 24.1098 28.2636 24.236C28.1226 24.275 27.9846 24.3223 27.8488 24.38C27.6901 24.3961 27.5305 24.4017 27.3711 24.3965Z" fill="#43AEE6"/>
<path fill-rule="evenodd" clip-rule="evenodd" d="M27.3724 23.3745V24.3968C27.329 24.23 27.3076 24.0583 27.3086 23.886C27.3086 23.703 27.3304 23.5335 27.3724 23.3745Z" fill="#BCE1F8"/>
<path fill-rule="evenodd" clip-rule="evenodd" d="M29.9849 25.9931C30.0059 24.9491 29.9849 23.9171 29.9211 22.8956C29.764 22.8637 29.6034 22.8528 29.4434 22.8633V25.9931C29.389 24.9614 29.3573 23.9286 29.3481 22.8956C29.2356 22.8866 29.1771 22.9398 29.1726 23.0553C29.0876 23.1085 29.0208 23.1865 28.9814 23.2788C28.9756 23.3642 28.9482 23.4468 28.9019 23.5188C28.9499 23.6006 28.9716 23.6913 28.9656 23.7896C28.9559 23.9717 28.9346 24.1531 28.9019 24.3326C28.8912 24.3491 28.8773 24.3634 28.8609 24.3743C28.8445 24.3853 28.826 24.3928 28.8066 24.3963C28.8321 24.2058 28.8531 24.0138 28.8704 23.8218C28.8554 23.6388 28.8336 23.4581 28.8066 23.2788C28.8794 23.3276 28.9011 23.3163 28.8704 23.2466C28.882 23.2332 28.8969 23.2233 28.9137 23.2177C28.9305 23.2122 28.9484 23.2113 28.9656 23.2151C28.9604 23.1288 28.9656 23.0441 28.9814 22.9593C28.9949 22.9968 29.0166 23.0291 29.0451 23.0553C29.0819 22.9856 29.1081 22.9113 29.1254 22.8318C29.1414 22.8102 29.1633 22.7935 29.1884 22.7838C29.3459 22.7988 29.5049 22.8153 29.6669 22.8318C29.7869 22.8303 29.8979 22.8093 30.0014 22.7681L30.0329 22.7996C30.0381 23.8226 30.0546 24.8448 30.0809 25.8648C30.066 25.9178 30.0317 25.9641 29.9849 25.9931Z" fill="#52B0E2"/>
<path fill-rule="evenodd" clip-rule="evenodd" d="M29.9219 22.8955C29.9856 23.917 30.0066 24.949 29.9856 25.993H29.9219V22.8955Z" fill="#C3DEF2"/>
<path fill-rule="evenodd" clip-rule="evenodd" d="M29.9192 22.8958H29.4737V25.9611H29.9199V25.9933H29.4414V22.8628C29.6064 22.8523 29.7662 22.8636 29.9192 22.8958Z" fill="#C9FCFF"/>
<path fill-rule="evenodd" clip-rule="evenodd" d="M29.9221 22.8955V25.9608H29.4766V22.8955H29.9221Z" fill="#FCFDFD"/>
<path fill-rule="evenodd" clip-rule="evenodd" d="M25.1414 23.9812V24.1409H25.2367C25.2412 24.3419 25.2839 24.5332 25.3642 24.7162H24.5039C24.5197 24.5557 24.5414 24.3959 24.5677 24.2369H24.6629V24.0772H24.7589C24.7554 23.8917 24.8172 23.7108 24.9337 23.5664C24.9884 23.6902 25.0364 23.8184 25.0777 23.9489C25.0919 23.9752 25.1129 23.9857 25.1407 23.9812H25.1414Z" fill="#47AEE5"/>
<path fill-rule="evenodd" clip-rule="evenodd" d="M17.24 22.8635V22.8958C16.6877 22.8904 16.1354 22.8956 15.5833 22.9115C15.5411 23.9224 15.5411 24.9345 15.5833 25.9453C16.1353 25.961 16.688 25.9663 17.2408 25.961C16.6723 25.9933 16.0985 26.0038 15.5195 25.9933V22.8628L17.24 22.8635Z" fill="#D7F6FF"/>
<path fill-rule="evenodd" clip-rule="evenodd" d="M13.2587 24.7153C13.2797 25.1428 13.2587 25.5583 13.1949 25.9611C13.1747 25.5336 13.1957 25.1181 13.2587 24.7153Z" fill="#C1DFF4"/>
<path fill-rule="evenodd" clip-rule="evenodd" d="M15.9988 24.1406H17.177V24.6199H16.0625V25.5139H17.273C17.2828 25.6691 17.273 25.8184 17.2408 25.9609V25.5461H15.9665C15.9568 25.2289 15.9665 24.9154 15.9988 24.6041C16.3813 24.5876 16.763 24.5824 17.1455 24.5876V24.2051C16.7735 24.2096 16.4023 24.2051 16.0303 24.1886C16.022 24.1832 16.0149 24.1762 16.0095 24.1679C16.0041 24.1596 16.0004 24.1504 15.9988 24.1406Z" fill="#DCF4FC"/>
<path fill-rule="evenodd" clip-rule="evenodd" d="M33.9669 25.5781C34.0044 26.0836 34.0096 26.5944 33.9834 27.1111L33.8236 27.6219C33.8141 27.6334 33.8019 27.6425 33.788 27.6481C33.7741 27.6537 33.759 27.6558 33.7441 27.6541C33.7839 27.5274 33.8266 27.3999 33.8716 27.2709C33.9504 26.7099 33.9826 26.1459 33.9669 25.5781Z" fill="#BFE7F8"/>
<path fill-rule="evenodd" clip-rule="evenodd" d="M13.6738 30.208C14.0421 30.2703 14.4141 30.313 14.7891 30.3355C19.9086 30.373 25.0266 30.3775 30.1461 30.3505C30.2773 30.3055 30.4161 30.2898 30.5601 30.3033C30.4315 30.3242 30.3039 30.3507 30.1776 30.3828C24.9103 30.4098 19.6423 30.4045 14.3751 30.367C14.162 30.3332 13.9495 30.2959 13.7376 30.2553C13.711 30.2485 13.6881 30.2315 13.6738 30.208Z" fill="#B2DEF5"/>
</g>
<defs>
<clipPath id="clip0_815_1548">
<rect width="24" height="24" fill="white" transform="translate(10 10)"/>
</clipPath>
</defs>
</svg>
