<svg width="215" height="193" viewBox="0 0 215 193" fill="none" xmlns="http://www.w3.org/2000/svg">
<path opacity="0.1" d="M0 92.4366V60.8873H110.817V92.4366H0ZM0 145.282V117.676H130.535V145.282H0ZM33.1268 193V-87H130.141C143.549 -87 155.38 -84.3709 165.634 -79.1127C176.15 -74.1174 185.089 -67.2817 192.451 -58.6056C199.812 -50.1925 205.333 -40.5962 209.014 -29.8169C212.958 -19.3005 214.93 -8.52113 214.93 2.52113C214.93 17.77 211.775 32.3615 205.465 46.2958C199.155 59.9671 189.822 71.1409 177.465 79.8169C165.371 88.2301 150.385 92.4366 132.507 92.4366H68.6197V193H33.1268ZM68.6197 60.8873H130.535C142.892 60.8873 152.62 58.2582 159.718 53C166.817 47.7418 171.812 40.6432 174.704 31.7042C177.596 22.7653 179.042 13.0376 179.042 2.52113C179.042 -8.52113 177.202 -18.3803 173.521 -27.0563C170.103 -35.9953 164.582 -42.9624 156.958 -47.9577C149.333 -52.9531 139.606 -55.4507 127.775 -55.4507H68.6197V60.8873Z" fill="white"/>
</svg>
