<svg width="44" height="44" viewBox="0 0 44 44" fill="none" xmlns="http://www.w3.org/2000/svg">
<circle cx="22" cy="22" r="22" fill="white"/>
<path d="M30.6541 23.4668C29.9008 23.4677 29.1575 23.6401 28.4806 23.9708C28.2571 23.5283 28.0336 23.1338 27.9946 22.8443C27.9504 22.5068 27.8979 22.3006 27.9504 21.8971C28.0029 21.4943 28.2399 20.9198 28.2354 20.8756C28.2309 20.8321 28.1829 20.6258 27.7006 20.6213C27.2191 20.6168 26.8029 20.7136 26.7549 20.8403C26.7061 20.9678 26.6146 21.2573 26.5524 21.5551C26.4699 21.9938 25.5894 23.5583 25.0854 24.3788C24.9234 24.0586 24.7831 23.7781 24.7524 23.5538C24.7089 23.2163 24.6556 23.0108 24.7089 22.6073C24.7614 22.2038 24.9976 21.6301 24.9939 21.5858C24.9886 21.5423 24.9414 21.3361 24.4591 21.3316C23.9769 21.3271 23.5606 21.4238 23.5126 21.5506C23.4646 21.6781 23.4121 21.9758 23.3109 22.2653C23.2104 22.5548 22.0404 25.1678 21.7336 25.8428C21.5761 26.1893 21.4404 26.4653 21.3436 26.6536C21.3436 26.6536 21.3399 26.6671 21.3264 26.6888C21.2431 26.8508 21.1951 26.9386 21.1951 26.9386V26.9431C21.1291 27.0616 21.0594 27.1711 21.0241 27.1711C20.9979 27.1711 20.9491 26.8553 21.0331 26.4256C21.2079 25.5181 21.6241 24.1066 21.6196 24.0586C21.6196 24.0323 21.6984 23.7863 21.3481 23.6596C21.0061 23.5321 20.8831 23.7428 20.8531 23.7428C20.8231 23.7428 20.8006 23.8178 20.8006 23.8178C20.8006 23.8178 21.1816 22.2301 20.0731 22.2301C19.3809 22.2301 18.4261 22.9891 17.9529 23.6731C17.6551 23.8351 17.0199 24.1808 16.3404 24.5536C16.0824 24.6983 15.8154 24.8431 15.5649 24.9788C15.5476 24.9616 15.5304 24.9398 15.5124 24.9218C14.1721 23.4886 11.6919 22.4761 11.7976 20.5516C11.8366 19.8496 12.0774 18.0091 16.5601 15.7733C20.2486 13.9538 23.1841 14.4578 23.6926 15.5761C24.4201 17.1713 22.1191 20.1353 18.3076 20.5643C16.8526 20.7271 16.0906 20.1653 15.8979 19.9553C15.6969 19.7363 15.6654 19.7228 15.5911 19.7671C15.4689 19.8323 15.5476 20.0296 15.5911 20.1436C15.7051 20.4421 16.1739 20.9678 16.9674 21.2266C17.6679 21.4546 19.3726 21.5813 21.4359 20.7841C23.7451 19.8893 25.5496 17.4038 25.0194 15.3218C24.4899 13.2083 20.9844 12.5116 17.6679 13.6906C15.6969 14.3918 13.5579 15.4966 12.0204 16.9351C10.1941 18.6451 9.90461 20.1301 10.0231 20.7526C10.4476 22.9628 13.4926 24.4006 14.7106 25.4656C14.6491 25.5008 14.5921 25.5316 14.5441 25.5578C13.9351 25.8601 11.6131 27.0743 11.0349 28.3591C10.3779 29.8141 11.1399 30.8581 11.6439 30.9983C13.2084 31.4318 14.8164 30.6518 15.6789 29.3633C16.5421 28.0741 16.4364 26.3993 16.0389 25.6321C16.0344 25.6223 16.0283 25.6134 16.0209 25.6058L16.4986 25.3253C16.8091 25.1416 17.1159 24.9706 17.3791 24.8303C17.2299 25.2376 17.1204 25.7243 17.0679 26.4256C17.0019 27.2506 17.3394 28.3193 17.7819 28.7401C17.9791 28.9246 18.2116 28.9291 18.3601 28.9291C18.8776 28.9291 19.1101 28.4993 19.3681 27.9908C19.6831 27.3683 19.9681 26.6453 19.9681 26.6453C19.9681 26.6453 19.6134 28.5998 20.5771 28.5998C20.9274 28.5998 21.2821 28.1438 21.4396 27.9121V27.9166L21.4666 27.8723L21.5236 27.7801V27.7718C21.6639 27.5258 21.9789 26.9693 22.4476 26.0446C23.0521 24.8521 23.6349 23.3611 23.6349 23.3611C23.6349 23.3611 23.6874 23.7256 23.8674 24.3301C23.9724 24.6856 24.1914 25.0756 24.3669 25.4528C24.2266 25.6501 24.1389 25.7596 24.1389 25.7596L24.1434 25.7641C24.0294 25.9126 23.9071 26.0753 23.7706 26.2328C23.2936 26.8028 22.7236 27.4553 22.6456 27.6443C22.5534 27.8678 22.5751 28.0306 22.7506 28.1618C22.8774 28.2578 23.1054 28.2713 23.3371 28.2578C23.6398 28.2408 23.9375 28.1728 24.2176 28.0568C24.4501 27.9736 24.7216 27.8461 24.9751 27.6578C25.4446 27.3113 25.7296 26.8156 25.7026 26.1623C25.6899 25.8031 25.5714 25.4438 25.4274 25.1063C25.4709 25.0448 25.5099 24.9833 25.5541 24.9218C26.2944 23.8396 26.8681 22.6516 26.8681 22.6516C26.8681 22.6516 26.9206 23.0153 27.1006 23.6198C27.1884 23.9273 27.3676 24.2603 27.5259 24.5843C26.8284 25.1498 26.3994 25.8076 26.2464 26.2373C25.9704 27.0353 26.1849 27.3946 26.5929 27.4778C26.7766 27.5176 27.0391 27.4298 27.2319 27.3466C27.5223 27.251 27.7959 27.1103 28.0426 26.9296C28.5114 26.5838 28.9629 26.1016 28.9366 25.4483C28.9171 25.1469 28.8489 24.8505 28.7349 24.5708C29.3266 24.3256 30.0886 24.1898 31.0614 24.3038C33.1464 24.5498 33.5589 25.8518 33.4794 26.3993C33.4006 26.9468 32.9626 27.2453 32.8179 27.3376C32.6739 27.4298 32.6251 27.4606 32.6379 27.5258C32.6559 27.6226 32.7264 27.6181 32.8486 27.6008C33.0196 27.5701 33.9436 27.1583 33.9834 26.1496C34.0494 24.8603 32.8231 23.4533 30.6541 23.4668ZM14.5666 28.8938C13.8736 29.6476 12.9099 29.9326 12.4936 29.6918C12.0474 29.4331 12.2221 28.3193 13.0719 27.5221C13.5894 27.0346 14.2554 26.5838 14.6979 26.3071C14.7984 26.2463 14.9476 26.1586 15.1269 26.0483L15.1749 26.0221L15.2799 25.9568C15.5911 27.0968 15.2934 28.1003 14.5659 28.8938H14.5666ZM19.6044 25.4663C19.3636 26.0528 18.8596 27.5566 18.5529 27.4733C18.2904 27.4036 18.1284 26.2636 18.5004 25.1371C18.6886 24.5716 19.0876 23.8966 19.3201 23.6333C19.6966 23.2126 20.1129 23.0723 20.2134 23.2433C20.3409 23.4668 19.7536 25.0981 19.6044 25.4663ZM23.7624 27.4561C23.6611 27.5086 23.5651 27.5438 23.5209 27.5176C23.4909 27.4996 23.5651 27.4298 23.5651 27.4298C23.5651 27.4298 24.0864 26.8688 24.2926 26.6146C24.4104 26.4646 24.5506 26.2898 24.6999 26.0926V26.1496C24.6999 26.8201 24.0511 27.2716 23.7624 27.4561ZM26.9694 26.7241C26.8944 26.6716 26.9079 26.4961 27.1576 25.9478C27.2544 25.7333 27.4816 25.3733 27.8716 25.0276C27.9159 25.1678 27.9466 25.3036 27.9421 25.4303C27.9376 26.2763 27.3331 26.5928 26.9694 26.7241Z" fill="#222222"/>
</svg>
