<svg width="44" height="44" viewBox="0 0 44 44" fill="none" xmlns="http://www.w3.org/2000/svg">
<circle cx="22" cy="22" r="22" fill="white"/>
<g clip-path="url(#clip0_815_2095)">
<mask id="mask0_815_2095" style="mask-type:luminance" maskUnits="userSpaceOnUse" x="10" y="10" width="24" height="24">
<path d="M10 10H34V34H10V10Z" fill="white"/>
</mask>
<g mask="url(#mask0_815_2095)">
<path d="M10.375 21.9829V33.7017H33.8125V10.2642H10.375V21.9829ZM29.2623 21.0454C29.8233 21.1758 30.3333 21.4694 30.7277 21.8892C30.9452 22.1157 31.1342 22.3677 31.2902 22.6392C31.2902 22.6692 30.2778 23.3539 29.6613 23.7364C29.6388 23.7514 29.5487 23.6539 29.4498 23.5054C29.337 23.3111 29.1769 23.1486 28.9844 23.0329C28.7919 22.9172 28.5732 22.8522 28.3488 22.8439C27.6378 22.7952 27.1803 23.1687 27.1847 23.7814C27.1788 23.9344 27.2133 24.0852 27.2853 24.2202C27.4412 24.5442 27.7315 24.7377 28.6427 25.1314C30.3213 25.8529 31.039 26.3299 31.4852 27.0064C31.9847 27.7564 32.095 28.9677 31.7575 29.8639C31.3825 30.8389 30.4638 31.5012 29.164 31.7202C28.5715 31.7877 27.9715 31.7817 27.379 31.7014C26.4758 31.5549 25.6427 31.1249 25 30.4737C24.784 30.2352 24.364 29.6149 24.3903 29.5699C24.4593 29.5189 24.5312 29.4724 24.6063 29.4327L25.4688 28.9377L26.1423 28.5477L26.2825 28.7554C26.5195 29.0952 26.8225 29.3847 27.1712 29.6067C27.9212 30.0012 28.945 29.9464 29.4513 29.4912C29.6213 29.3243 29.7275 29.103 29.7512 28.8659C29.7749 28.6288 29.7147 28.3909 29.581 28.1937C29.3935 27.9327 29.0185 27.7137 27.97 27.2562C26.7603 26.7349 26.239 26.4124 25.7628 25.8987C25.4655 25.5595 25.2461 25.1594 25.12 24.7264C25.0258 24.2319 25.0119 23.7254 25.0787 23.2264C25.3277 22.0579 26.2037 21.2427 27.4825 21.0004C28.0749 20.9274 28.6749 20.9441 29.2623 21.0499V21.0454ZM23.761 22.0279V22.9879H20.7175V31.6564H18.5597V22.9864H15.5087V22.0489C15.5012 21.7264 15.5087 21.4039 15.535 21.0814C15.5462 21.0664 17.41 21.0589 19.66 21.0627H23.749L23.7603 22.0287L23.761 22.0279Z" fill="#007ACC"/>
</g>
</g>
<defs>
<clipPath id="clip0_815_2095">
<rect width="24" height="24" fill="white" transform="translate(10 10)"/>
</clipPath>
</defs>
</svg>
