<svg width="44" height="44" viewBox="0 0 44 44" fill="none" xmlns="http://www.w3.org/2000/svg">
<circle cx="22" cy="22" r="22" fill="white"/>
<path d="M22.046 10L32.6525 16V28L22.046 34L11.4395 28V16L22.046 10Z" fill="white"/>
<path d="M30.7593 27.5866L22.3968 32.3168V28.6336L27.6078 25.7671L30.7593 27.5866ZM31.3323 27.0691V17.1773L28.273 18.9451V25.3036L31.3315 27.0683L31.3323 27.0691ZM13.3008 27.5866L21.6633 32.3168V28.6336L16.45 25.7671L13.3008 27.5866ZM12.7285 27.0691V17.1773L15.787 18.9451V25.3036L12.7285 27.0683V27.0691ZM13.087 16.5361L21.6625 11.6851V15.2453L16.168 18.2678L16.1238 18.2933L13.087 16.5361ZM30.973 16.5361L22.3975 11.6851V15.2453L27.892 18.2656L27.9363 18.2903L30.973 16.5361Z" fill="#90D7FE"/>
<path d="M21.6627 27.795L16.5215 24.9668V19.3673L21.6627 22.3358V27.795ZM22.3977 27.795L27.539 24.969V19.3673L22.397 22.3358V27.795H22.3977ZM16.8695 18.72L22.0295 15.8843L27.191 18.7208L22.0302 21.6998L16.8695 18.7208V18.72Z" fill="#2375B7"/>
</svg>
