<svg width="44" height="44" viewBox="0 0 44 44" fill="none" xmlns="http://www.w3.org/2000/svg">
<circle cx="22" cy="22" r="22" fill="white"/>
<g clip-path="url(#clip0_815_485)">
<mask id="mask0_815_485" style="mask-type:luminance" maskUnits="userSpaceOnUse" x="10" y="10" width="25" height="24">
<path d="M31.002 10H13.002C11.3451 10 10.002 11.3431 10.002 13V31C10.002 32.6569 11.3451 34 13.002 34H31.002C32.6588 34 34.002 32.6569 34.002 31V13C34.002 11.3431 32.6588 10 31.002 10Z" fill="white"/>
</mask>
<g mask="url(#mask0_815_485)">
<path d="M33.9945 10H10.0095C10.0075 10 10.0056 10.0008 10.0041 10.0022C10.0027 10.0036 10.002 10.0055 10.002 10.0075V33.9925C10.002 33.997 10.005 34 10.0095 34H33.9945C33.9964 34 33.9984 33.9992 33.9998 33.9978C34.0012 33.9964 34.002 33.9945 34.002 33.9925V10.0075C34.002 10.0055 34.0012 10.0036 33.9998 10.0022C33.9984 10.0008 33.9964 10 33.9945 10Z" fill="#2D8CFF"/>
<path d="M30.0645 26.7347C30.4395 26.8285 30.768 26.641 30.9555 26.3597C31.0492 26.2188 31.0492 25.9847 31.0492 25.4688V18.3903C31.0492 17.875 31.0492 17.6875 30.9555 17.5C30.8145 17.125 30.4395 16.984 30.0645 17.125C29.0797 17.7812 26.9235 19.7035 26.877 20.5C26.8395 20.641 26.8395 20.875 26.8395 21.2035V22.984C26.8395 23.359 26.8395 23.5 26.877 23.6875C26.9242 24.0625 27.0645 24.391 27.252 24.5785C27.8145 25 29.6895 26.6875 30.1117 26.6875L30.0645 26.7347ZM13.002 18.766C13.002 18.0625 13.002 17.6875 13.143 17.5C13.2367 17.3125 13.518 17.125 13.6582 16.984C13.8457 16.8438 14.1742 16.8438 14.9242 16.8438H20.9707C22.752 16.8438 23.643 16.8438 24.3457 17.2188C24.8617 17.5938 25.4242 17.9223 25.752 18.625C26.127 19.3285 26.127 20.2188 26.127 22V25.1875C26.127 25.891 26.127 26.266 25.986 26.4535C25.8922 26.641 25.611 26.8285 25.4707 26.9688C25.2832 27.1097 24.9547 27.1097 24.2047 27.1097H18.1582C16.377 27.1097 15.486 27.1097 14.7832 26.7347C14.2672 26.3597 13.7047 26.0312 13.377 25.3285C13.002 24.625 13.002 23.7347 13.002 21.9535V18.766Z" fill="white"/>
</g>
</g>
<defs>
<clipPath id="clip0_815_485">
<rect width="24" height="24" fill="white" transform="translate(10 10)"/>
</clipPath>
</defs>
</svg>
