<svg width="60" height="60" viewBox="0 0 60 60" fill="none" xmlns="http://www.w3.org/2000/svg">
<circle cx="30" cy="30" r="29" stroke="#005de0" stroke-width="2"/>
<path d="M44 30C44 38.1627 42.3436 45.5032 39.7122 50.766C37.0509 56.0886 33.5593 59 30 59C26.4407 59 22.9491 56.0886 20.2878 50.766C17.6564 45.5032 16 38.1627 16 30C16 21.8373 17.6564 14.4968 20.2878 9.23401C22.9491 3.91138 26.4407 1 30 1C33.5593 1 37.0509 3.91138 39.7122 9.23401C42.3436 14.4968 44 21.8373 44 30Z" stroke="#005de0" stroke-width="2"/>
<path d="M30 44C21.8373 44 14.4968 42.3436 9.23401 39.7122C3.91138 37.0509 0.999999 33.5593 0.999999 30C0.999999 26.4407 3.91138 22.9491 9.23401 20.2878C14.4968 17.6564 21.8373 16 30 16C38.1627 16 45.5032 17.6564 50.766 20.2878C56.0886 22.9491 59 26.4407 59 30C59 33.5593 56.0886 37.0509 50.766 39.7122C45.5032 42.3436 38.1627 44 30 44Z" stroke="#005de0" stroke-width="2"/>
</svg>
