<?xml version="1.0" encoding="UTF-8"?>
<svg id="_Слой_2" data-name="Слой 2" xmlns="http://www.w3.org/2000/svg" viewBox="0 0 1273 332.42">
  <defs>
    <style>
      .cls-1, .cls-2 {
        fill: #fff;
      }

      .cls-3 {
        fill: #005de0;
      }

      .cls-2 {
        opacity: .5;
      }
    </style>
  </defs>
  <g id="_Лого_reCode_ENG_MINIMIZED_" data-name="Лого reCode [ENG MINIMIZED]">
    <path class="cls-3" d="m0,159.56C0,84.34,0,46.73,23.37,23.37,46.73,0,84.34,0,159.56,0h13.3c75.22,0,112.83,0,136.2,23.37,23.37,23.37,23.37,60.98,23.37,136.2v13.3c0,75.22,0,112.83-23.37,136.2-23.37,23.37-60.98,23.37-136.2,23.37h-13.3c-75.22,0-112.83,0-136.2-23.37C0,285.69,0,248.08,0,172.86v-13.3Z"/>
    <path class="cls-1" d="m132.58,223.83l-33.25-57.63,33.25-57.63h48.43l27.62-47.88h-103.67l-60.87,105.51,60.87,105.5h103.67l-27.62-47.88h-48.43Z"/>
    <polygon class="cls-2" points="287.57 166.26 234.86 257.63 207.24 209.75 232.33 166.26 207.16 122.64 234.78 74.77 287.57 166.26"/>
    <g>
      <path d="m481.03,137.61c-1.12,1.12-2.44,1.69-3.93,1.69-7.68,0-14.56.89-20.64,2.67-6.09,1.78-12.12,4.26-18.11,7.44v112.9c0,1.5-.56,2.86-1.69,4.07-1.12,1.22-2.44,1.83-3.93,1.83h-25.84c-1.5,0-2.81-.61-3.93-1.83-1.12-1.22-1.69-2.57-1.69-4.07V115.43c0-1.5.56-2.81,1.69-3.93,1.12-1.12,2.43-1.69,3.93-1.69h24.43c1.5,0,2.81.56,3.93,1.69s1.69,2.44,1.69,3.93v5.9c6.92-5.43,13.95-9.03,21.06-10.81,7.11-1.78,13.48-2.67,19.1-2.67,1.5,0,2.81.56,3.93,1.69,1.12,1.12,1.69,2.44,1.69,3.93v20.22c0,1.5-.56,2.81-1.69,3.93Z"/>
      <path d="m630.44,194.91c0,4.68-1.87,7.02-5.62,7.02h-91.56v.84c0,4.12.47,8.28,1.4,12.5.93,4.21,2.67,8.05,5.2,11.51,2.53,3.47,5.99,6.28,10.39,8.43,4.4,2.15,9.97,3.23,16.71,3.23,10.29,0,19.98-.32,29.07-.98,9.08-.65,16.61-1.26,22.61-1.83h.84c1.5,0,2.71.33,3.65.98.93.66,1.4,1.73,1.4,3.23v18.54c0,2.25-.33,3.93-.98,5.06-.66,1.12-2.3,1.87-4.91,2.25-4.49.94-8.71,1.69-12.64,2.25-3.93.56-7.91,1.03-11.94,1.4-4.03.37-8.43.65-13.2.84-4.77.18-10.35.28-16.71.28-7.12,0-14.65-1.08-22.59-3.23-7.95-2.15-15.27-5.9-21.96-11.23-6.69-5.34-12.22-12.54-16.58-21.62-4.37-9.08-6.55-20.55-6.55-34.4v-20.78c0-10.86,1.49-20.69,4.48-29.49,2.99-8.8,7.33-16.29,13.03-22.47,5.7-6.18,12.75-10.95,21.16-14.32,8.41-3.37,17.93-5.06,28.59-5.06s20.41,1.73,28.72,5.2c8.31,3.47,15.27,8.38,20.88,14.74,5.6,6.37,9.86,13.9,12.75,22.61,2.9,8.71,4.34,18.3,4.34,28.79v15.73Zm-37.07-20.5c0-11.04-2.73-19.56-8.18-25.56-5.46-5.99-12.61-8.99-21.44-8.99s-16.08,2.95-21.73,8.85c-5.64,5.9-8.47,14.46-8.47,25.7v1.12h59.82v-1.12Z"/>
      <path d="m787.71,263.85c-1.12.84-2.62,1.54-4.49,2.11-1.12.38-3.05.8-5.76,1.26-2.72.47-6.04.94-9.97,1.4s-8.33.89-13.2,1.26c-4.87.37-10.02.56-15.45.56-8.43,0-17.32-1.22-26.68-3.65-9.36-2.43-17.89-6.88-25.61-13.34-7.71-6.46-14.13-15.21-19.24-26.26-5.11-11.04-7.67-25.28-7.67-42.69v-41.28c0-17.6,2.55-31.97,7.67-43.11,5.11-11.14,11.53-19.89,19.24-26.26,7.71-6.36,16.25-10.72,25.61-13.06,9.36-2.34,18.25-3.51,26.68-3.51,5.43,0,10.58.19,15.45.56,4.87.38,9.27.8,13.2,1.26,3.93.47,7.25.98,9.97,1.54,2.71.56,4.63.94,5.76,1.12,1.87.56,3.37,1.26,4.49,2.11,1.12.84,1.69,2.3,1.69,4.35v18.82c0,1.69-.42,3.09-1.26,4.21s-2.3,1.69-4.35,1.69h-.56c-2.44-.18-5.38-.42-8.85-.7-3.47-.28-7.16-.51-11.09-.7-3.93-.18-7.96-.37-12.08-.56-4.12-.18-8.05-.28-11.8-.28-5.99,0-11.47.89-16.43,2.67-4.96,1.78-9.22,4.68-12.78,8.71-3.56,4.03-6.37,9.41-8.43,16.15-2.06,6.74-3.09,15.07-3.09,25v41.28c0,9.74,1.03,17.97,3.09,24.71,2.06,6.74,4.87,12.17,8.43,16.29,3.55,4.12,7.82,7.07,12.78,8.85,4.96,1.78,10.44,2.67,16.43,2.67,3.74,0,7.67-.09,11.8-.28,4.12-.18,8.14-.37,12.08-.56,3.93-.18,7.63-.42,11.09-.7,3.46-.28,6.41-.51,8.85-.7h.56c2.06,0,3.51.56,4.35,1.69.84,1.12,1.26,2.53,1.26,4.21v18.82c0,2.06-.56,3.51-1.69,4.35Z"/>
      <path d="m950.03,200.52c0,10.11-1.45,19.43-4.35,27.94-2.91,8.52-7.16,15.87-12.78,22.05-5.62,6.18-12.59,11.05-20.92,14.6-8.33,3.55-18.02,5.34-29.07,5.34s-20.74-1.78-29.07-5.34c-8.33-3.55-15.31-8.43-20.92-14.6-5.62-6.18-9.88-13.52-12.78-22.05-2.91-8.52-4.35-17.83-4.35-27.94v-22.75c0-10.11,1.45-19.42,4.35-27.94,2.9-8.52,7.16-15.87,12.78-22.05,5.62-6.18,12.59-11.05,20.92-14.6,8.33-3.55,18.02-5.34,29.07-5.34s20.73,1.78,29.07,5.34c8.33,3.56,15.31,8.43,20.92,14.6,5.62,6.18,9.87,13.53,12.78,22.05,2.9,8.52,4.35,17.83,4.35,27.94v22.75Zm-37.07-22.75c0-11.61-2.53-20.83-7.58-27.66-5.06-6.83-12.55-10.25-22.47-10.25s-17.41,3.42-22.47,10.25c-5.06,6.84-7.58,16.06-7.58,27.66v22.75c0,11.61,2.53,20.83,7.58,27.66,5.06,6.84,12.54,10.25,22.47,10.25s17.41-3.41,22.47-10.25c5.06-6.83,7.58-16.05,7.58-27.66v-22.75Z"/>
      <path d="m1107.3,255.57c0,2.06-.47,3.61-1.4,4.63-.94,1.03-3,2.01-6.18,2.95-8.8,2.25-18.16,4.03-28.08,5.34-9.93,1.31-19.38,1.97-28.37,1.97-22.66,0-39.51-6.22-50.55-18.68-11.05-12.45-16.57-29.72-16.57-51.82v-21.62c0-22.09,5.52-39.36,16.57-51.82,11.04-12.45,27.9-18.68,50.55-18.68,3.37,0,7.39.14,12.08.42,4.68.28,9.64.8,14.88,1.54v-49.71c0-1.5.56-2.81,1.69-3.93s2.43-1.69,3.93-1.69h25.84c1.5,0,2.81.56,3.93,1.69s1.69,2.44,1.69,3.93v195.47Zm-37.07-115.15c-3.93-.56-8.57-1.02-13.9-1.4-5.34-.37-9.69-.56-13.06-.56-5.99,0-10.95,1.03-14.88,3.07-3.93,2.05-7.02,4.84-9.27,8.38-2.25,3.54-3.79,7.73-4.63,12.57-.84,4.84-1.26,10.15-1.26,15.92v21.5c0,5.77.42,11.08,1.26,15.92.84,4.84,2.39,9.04,4.63,12.57,2.25,3.54,5.34,6.33,9.27,8.38,3.93,2.05,8.89,3.07,14.88,3.07,5.06,0,10.15-.18,15.31-.56,5.15-.37,9.03-.84,11.65-1.4v-97.47Z"/>
      <path d="m1273,194.91c0,4.68-1.87,7.02-5.62,7.02h-91.56v.84c0,4.12.47,8.28,1.4,12.5.93,4.21,2.67,8.05,5.2,11.51,2.53,3.47,5.99,6.28,10.39,8.43,4.4,2.15,9.97,3.23,16.71,3.23,10.29,0,19.98-.32,29.07-.98,9.08-.65,16.61-1.26,22.61-1.83h.84c1.5,0,2.71.33,3.65.98.93.66,1.4,1.73,1.4,3.23v18.54c0,2.25-.33,3.93-.98,5.06-.66,1.12-2.3,1.87-4.91,2.25-4.49.94-8.71,1.69-12.64,2.25-3.93.56-7.91,1.03-11.94,1.4-4.03.37-8.43.65-13.2.84-4.77.18-10.35.28-16.71.28-7.12,0-14.65-1.08-22.59-3.23-7.95-2.15-15.27-5.9-21.96-11.23-6.69-5.34-12.22-12.54-16.58-21.62-4.37-9.08-6.55-20.55-6.55-34.4v-20.78c0-10.86,1.49-20.69,4.48-29.49,2.99-8.8,7.33-16.29,13.03-22.47,5.7-6.18,12.75-10.95,21.16-14.32,8.41-3.37,17.93-5.06,28.59-5.06s20.41,1.73,28.72,5.2c8.31,3.47,15.27,8.38,20.88,14.74,5.6,6.37,9.86,13.9,12.75,22.61,2.9,8.71,4.34,18.3,4.34,28.79v15.73Zm-37.07-20.5c0-11.04-2.73-19.56-8.18-25.56-5.46-5.99-12.61-8.99-21.44-8.99s-16.08,2.95-21.73,8.85c-5.64,5.9-8.47,14.46-8.47,25.7v1.12h59.82v-1.12Z"/>
    </g>
  </g>
</svg>